<svg enable-background="new 0 0 193 193" viewBox="0 0 193 193" xmlns="http://www.w3.org/2000/svg" xmlns:xlink="http://www.w3.org/1999/xlink"><clipPath id="a"><path d="m0 0h193v193h-193z"/></clipPath><g clip-path="url(#a)"><circle cx="179.6" cy="129.6" fill="#ffd15d" r="3"/><path d="m158 65.5-7.7-2.5 1.3-4.1c.5-1.4-.2-2.5-1-3.1s-2.1-.9-3.3 0l-3.5 2.5-4.7-6.4 3.5-2.5c1.2-.9 1.3-2.2 1-3.1s-1.2-1.9-2.6-1.9h-4.3v-8.1h4.3c1.5 0 2.3-1 2.6-1.9s.2-2.2-1-3.1l-3.5-2.5 4.7-6.5 3.5 2.5c1.2.9 2.5.6 3.3 0s1.5-1.7 1-3.1l-1.3-4.1 7.7-2.5 1.3 4.1c.5 1.4 1.7 1.9 2.6 1.9 1 0 2.2-.5 2.6-1.9l1.3-4.1 7.7 2.5-1.3 4.1c-.5 1.4.2 2.5 1 3.1s2.1.9 3.3 0l3.5-2.5 4.7 6.4-3.5 2.5c-1.2.9-1.3 2.2-1 3.1s1.2 1.9 2.6 1.9h4.3v8.1h-4.3c-1.5 0-2.3 1-2.6 1.9s-.2 2.2 1 3.1l3.5 2.5-4.7 6.5-3.5-2.5c-1.2-.9-2.5-.6-3.3 0s-1.5 1.7-1 3.1l1.3 4.1-7.7 2.5-1.3-4.1c-.5-1.4-1.7-1.9-2.6-1.9-1 0-2.2.5-2.6 1.9zm-5.1-3.7 3.9 1.3.7-2.2c.7-2 2.4-3.3 4.5-3.3 2.1 0 3.9 1.3 4.5 3.3l.7 2.2 3.9-1.3-.7-2.2c-.7-2 0-4.1 1.7-5.3s3.9-1.2 5.6 0l1.9 1.4 2.4-3.3-1.9-1.4c-1.7-1.2-2.4-3.3-1.7-5.3s2.4-3.3 4.5-3.3h2.3v-4.1h-2.3c-2.1 0-3.9-1.3-4.5-3.3-.7-2 0-4.1 1.7-5.3l1.9-1.4-2.3-3.2-1.9 1.4c-1.7 1.2-3.9 1.2-5.6 0s-2.4-3.3-1.7-5.3l.7-2.2-3.9-1.2-.7 2.2c-.7 2-2.4 3.3-4.5 3.3-2.1 0-3.9-1.3-4.5-3.3l-.7-2.2-3.9 1.3.7 2.2c.7 2 0 4.1-1.7 5.3s-3.9 1.2-5.6 0l-1.9-1.4-2.4 3.3 1.9 1.4c1.7 1.2 2.4 3.3 1.7 5.3s-2.4 3.3-4.5 3.3h-2.3v4.1h2.3c2.1 0 3.9 1.3 4.5 3.3.7 2 0 4.1-1.7 5.3l-1.9 1.4 2.3 3.2 1.9-1.4c1.7-1.2 3.9-1.2 5.6 0s2.4 3.3 1.7 5.3z" fill="#48515a"/><path d="m152.7 47.2c-3.8-5.2-2.6-12.4 2.6-16.2 2.5-1.8 5.6-2.6 8.6-2.1 3.1.5 5.7 2.1 7.6 4.6l-1.6 1.2c-1.5-2.1-3.7-3.4-6.3-3.8-2.5-.4-5.1.2-7.1 1.7-4.3 3.1-5.2 9.1-2.1 13.4z" fill="#475059"/><path d="m162 46.8c-1.3 0-2.7-.4-3.8-1.2-1.4-1-2.3-2.5-2.6-4.2s.1-3.4 1.2-4.8c1-1.4 2.5-2.3 4.2-2.6s3.4.1 4.8 1.2c1.4 1 2.3 2.5 2.6 4.2s-.1 3.4-1.2 4.8c-1.2 1.7-3.2 2.6-5.2 2.6zm0-10c-.2 0-.4 0-.6 0-.9.1-1.7.6-2.3 1.4-.5.8-.8 1.7-.6 2.6.1.9.6 1.7 1.4 2.3 1.6 1.1 3.8.8 4.9-.8.5-.8.8-1.7.6-2.6s-.6-1.7-1.4-2.3c-.5-.4-1.3-.6-2-.6z" fill="#f58e70"/><path d="m161.2 55.3c-.6 0-1-.5-1-1.1 0-.5.5-1 1.1-.9.5 0 1 .5.9 1 0 .6-.5 1-1 1zm3-1.1c-.1-.5.2-1.1.8-1.2.5-.1 1.1.2 1.2.8.1.5-.2 1.1-.8 1.2-.1 0-.2 0-.2 0-.5-.1-.9-.4-1-.8zm-7.2.2c-.5-.2-.8-.8-.6-1.3.2-.5.8-.8 1.3-.6.5.2.8.8.6 1.3-.2.4-.5.7-.9.7-.2 0-.3 0-.4-.1zm11-1.4c-.3-.5-.1-1.1.4-1.4.5-.3 1.1-.1 1.4.4.3.5.1 1.1-.4 1.4-.2.1-.3.1-.5.1-.3 0-.7-.2-.9-.5zm-14.8-.6c-.4-.3-.5-1-.2-1.4.3-.4 1-.5 1.4-.2.4.3.5 1 .2 1.4-.2.3-.5.4-.8.4-.2 0-.4 0-.6-.2zm18.2-1.6c-.4-.4-.4-1 0-1.4.4-.4 1-.4 1.4 0 .4.4.4 1 0 1.4-.2.2-.5.3-.7.3-.3-.1-.5-.1-.7-.3zm-21.3-1.3c-.3-.4-.3-1.1.2-1.4.4-.3 1.1-.2 1.4.2.3.4.3 1.1-.2 1.4-.2.1-.4.2-.6.2-.3 0-.6-.2-.8-.4zm23.8-1.8c-.5-.3-.7-.9-.4-1.4.2-.5.9-.7 1.3-.4.5.2.7.9.4 1.4-.2.3-.5.5-.9.5-.1 0-.2 0-.4-.1zm-25.9-2c-.2-.5.1-1.1.6-1.3.5-.2 1.1.1 1.3.6.2.5-.1 1.1-.6 1.3-.1 0-.2.1-.4.1-.3 0-.7-.3-.9-.7zm27.5-1.7c-.5-.1-.9-.6-.8-1.2.1-.5.6-.9 1.2-.8.5.1.9.6.8 1.2-.1.5-.5.8-1 .8 0 .1-.1.1-.2 0zm-28.4-2.4c0-.5.4-1 .9-1.1.5 0 1 .4 1.1.9 0 .5-.4 1-.9 1.1h-.1c-.6 0-1-.4-1-.9zm27.9-2.4c-.1-.6.4-1 .9-1.1.6 0 1 .4 1.1.9 0 .5-.3 1-.9 1.1h-.1c-.6 0-1-.4-1-.9zm-26.9-.7c-.5-.1-.9-.6-.8-1.2.1-.5.6-.9 1.2-.8.5.1.9.6.8 1.2-.1.5-.5.8-1 .8-.1 0-.2 0-.2 0zm26-2.9c-.2-.5.1-1.1.6-1.3.5-.2 1.1.1 1.3.6.2.5-.1 1.1-.6 1.3-.1 0-.2.1-.4.1-.4-.1-.7-.3-.9-.7zm-24.9-1c-.5-.2-.7-.9-.4-1.4.3-.5.9-.7 1.4-.4.5.3.7.9.4 1.4-.2.3-.5.5-.9.5-.2.1-.4 0-.5-.1zm23.1-2.3c-.3-.4-.3-1.1.2-1.4.4-.3 1.1-.2 1.4.2.3.4.3 1.1-.2 1.4-.2.1-.4.2-.6.2-.3 0-.6-.1-.8-.4zm-21-1c-.4-.4-.4-1 0-1.4.4-.4 1-.4 1.4 0 .4.4.4 1 0 1.4-.2.2-.5.3-.7.3-.3-.1-.5-.2-.7-.3zm18.3-1.5c-.5-.3-.5-.9-.2-1.4.3-.5.9-.6 1.4-.2.5.3.5.9.2 1.4-.2.3-.5.4-.8.4-.2 0-.4-.1-.6-.2zm-15.4-1.2c-.3-.5-.1-1.1.4-1.4.5-.3 1.1-.1 1.4.4.3.5.1 1.1-.4 1.4-.1.1-.3.1-.5.1-.3 0-.7-.2-.9-.5zm12.2-.6c-.5-.2-.8-.8-.6-1.3.2-.5.8-.8 1.3-.6.5.2.8.8.6 1.3-.1.4-.5.7-.9.7-.2 0-.3 0-.4-.1zm-8.5-1.1c-.1-.5.2-1.1.8-1.2.5-.1 1.1.2 1.2.8.1.5-.2 1.1-.8 1.2-.1 0-.2 0-.2 0-.5 0-.9-.4-1-.8zm4.8.4c-.5 0-1-.5-.9-1.1 0-.5.5-1 1-.9.5 0 1 .5 1 1.1 0 .5-.5.9-1.1.9.1 0 .1 0 0 0z" fill="#48515a"/><path d="m184.6 92.7h2v4h-2z" fill="#48515a"/><path d="m184.6 102.7h2v4h-2z" fill="#48515a"/><path d="m188.6 98.7h4v2h-4z" fill="#48515a"/><path d="m178.6 98.7h4v2h-4z" fill="#48515a"/><path d="m18.8 147.8c-7 0-12.7-5.7-12.7-12.7s5.7-12.7 12.7-12.7 12.7 5.7 12.7 12.7-5.7 12.7-12.7 12.7zm0-23.5c-5.9 0-10.7 4.8-10.7 10.7s4.8 10.7 10.7 10.7 10.7-4.8 10.7-10.7-4.8-10.7-10.7-10.7z" fill="#475059"/><path d="m18.8 147.8c-4.1 0-7.3-5.6-7.3-12.7s3.2-12.7 7.3-12.7 7.3 5.6 7.3 12.7-3.2 12.7-7.3 12.7zm0-23.5c-2.9 0-5.3 4.9-5.3 10.7s2.4 10.7 5.3 10.7 5.3-4.9 5.3-10.7-2.4-10.7-5.3-10.7z" fill="#475059"/><path d="m7 134.1h23.5v2h-23.5z" fill="#475059"/><circle cx="21.6" cy="159.6" fill="#ffd15d" r="3"/><circle cx="12.7" cy="90.4" fill="#f58e70" r="2"/><path d="m181.5 178.5h-101c-2.8 0-5-2.2-5-5s2.2-5 5-5h101l10.8 5zm-100.9-8c-1.7 0-3 1.3-3 3s1.3 3 3 3h100.5l6.5-3-6.5-3z" fill="#475059"/><path d="m86.2 169.9h2v7.6h-2z" fill="#475059"/><path d="m87.2 172.5h93.4v2h-93.4z" fill="#475059"/><g fill="#48515a"><path d="m6.4 52.7h2v4h-2z"/><path d="m6.4 62.7h2v4h-2z"/><path d="m10.4 58.7h4v2h-4z"/><path d="m.4 58.7h4v2h-4z"/><path d="m154.6 159.6h-107.1v-18c0-.6.4-1 1-1s1 .4 1 1v16h103.1v-18.9c0-.6.4-1 1-1s1 .4 1 1z"/><path d="m134.5 137.4c-17.1 0-31-13.9-31-31s13.9-31 31-31 31 13.9 31 31-13.9 31-31 31zm0-60c-16 0-29 13-29 29s13 29 29 29 29-13 29-29-13-29-29-29z"/><path d="m134.5 133.4c-14.9 0-27-12.1-27-27s12.1-27 27-27 27 12.1 27 27-12.1 27-27 27zm0-52c-13.8 0-25 11.2-25 25s11.2 25 25 25 25-11.2 25-25-11.3-25-25-25z"/><path d="m113.5 106.4h-2c0-12.7 10.3-23 23-23v2c-11.6 0-21 9.4-21 21z"/><path d="m137.5 85.4c-.1 0-.1 0-.2 0s-.1 0-.2-.1c-.1 0-.1-.1-.2-.1 0 0-.1-.1-.1-.1s-.1-.1-.1-.1-.1-.1-.1-.2-.1-.1-.1-.2 0-.1 0-.2c0-.3.1-.5.3-.7.4-.4 1-.4 1.4 0 .1.1.2.2.2.3s.1.2.1.4c0 .3-.1.5-.3.7s-.5.3-.7.3z"/><path d="m112.5 110.4c-.3 0-.5-.1-.7-.3s-.3-.4-.3-.7.1-.5.3-.7c0-.1.1-.1.1-.1.1 0 .1-.1.2-.1s.1 0 .2-.1c.2 0 .4 0 .6.1.1.1.2.1.3.2.2.2.3.4.3.7v.2c0 .1 0 .1-.1.2 0 .1 0 .1-.1.2 0 .1-.1.1-.1.1-.1.1-.2.2-.3.2s-.3.1-.4.1z"/><path d="m158.2 126.2h2v10h-2z" transform="matrix(.7071 -.7071 .7071 .7071 -46.1015 150.9834)"/><path d="m186.6 162.6c-1 0-2-.4-2.8-1.2l-24.7-24.7 5.7-5.7 24.7 24.7c1.6 1.6 1.6 4.1 0 5.7-.8.8-1.8 1.2-2.9 1.2zm-24.7-25.9 23.3 23.3c.8.8 2 .8 2.8 0s.8-2 0-2.8l-23.3-23.3z"/><path d="m181.5 155.5h6v2h-6z" transform="matrix(.7071 -.7071 .7071 .7071 -56.6061 176.31)"/><path d="m162.5 136.4h6v2h-6z" transform="matrix(.7071 -.7071 .7071 .7071 -48.7084 157.2435)"/><path d="m154.6 103.4h2v6h-2z"/><path d="m155.6 113.4c-.3 0-.5-.1-.7-.3s-.3-.4-.3-.7.1-.5.3-.7c.3-.3.7-.4 1.1-.2.1 0 .1.1.2.1s.1.1.2.1c.1.1.2.2.2.3s.1.2.1.4c0 .1 0 .3-.1.4 0 .1-.1.2-.2.3 0 .1-.1.1-.2.1 0 0-.1.1-.2.1-.1.1-.2.1-.4.1z"/><path d="m155.6 101.4c-.3 0-.5-.1-.7-.3s-.3-.4-.3-.7c0-.1 0-.3.1-.4 0-.1.1-.2.2-.3.3-.3.7-.4 1.1-.2.1 0 .1.1.2.1s.1.1.2.1c.1.1.2.2.2.3s.1.2.1.4c0 .1 0 .3-.1.4 0 .1-.1.2-.2.3 0 0-.1.1-.2.1 0 0-.1.1-.2.1-.1.1-.2.1-.4.1z"/><path d="m153.6 135.4c-.1 0-.1 0-.2 0s-.1 0-.2-.1c-.1 0-.1 0-.2-.1-.1 0-.1-.1-.2-.1 0 0-.1-.1-.1-.2s-.1-.1-.1-.2 0-.1 0-.2 0-.1 0-.2 0-.3.1-.4c0-.1.1-.2.2-.3 0 0 .1-.1.2-.1s.1-.1.2-.1.1 0 .2-.1h.4c.1 0 .1 0 .2.1.1 0 .1.1.2.1s.1.1.2.1c.1.1.2.2.2.3s.1.3.1.4v.2c0 .1 0 .1-.1.2 0 .1-.1.1-.1.2s-.1.1-.1.2c0 0-.1.1-.2.1 0 0-.1.1-.2.1s-.1.1-.2.1-.2 0-.3 0z"/></g><path d="m107.1 15.5v23.8h23.9" fill="#ffd15d"/><path d="m48.5 142.3c-.6 0-1-.4-1-1v-49.5c0-2.5-2-4.5-4.5-4.5s-4.5 2-4.5 4.5v17c0 3.6-2.9 6.5-6.5 6.5h-.9c-3.6 0-6.5-2.9-6.5-6.5v-94.3h17.7c.6 0 1 .4 1 1s-.4 1-1 1h-15.7v92.3c0 2.5 2 4.5 4.5 4.5h.9c2.5 0 4.5-2 4.5-4.5v-17c0-3.6 2.9-6.5 6.5-6.5s6.5 2.9 6.5 6.5v49.5c0 .6-.4 1-1 1z" fill="#48515a"/><path d="m131 75.6c-.6 0-1-.4-1-1v-34.8l-23.3-23.3h-54.9c-.6 0-1-.4-1-1s.4-1 1-1h55.7l24.5 24.4v35.7c0 .6-.5 1-1 1z" fill="#48515a"/><path d="m47.1 16.5c-.1 0-.3 0-.4-.1s-.2-.1-.3-.2c-.2-.2-.3-.4-.3-.7 0-.1 0-.3.1-.4s.1-.2.2-.3.2-.2.3-.2c.2-.1.4-.1.6-.1.1 0 .1 0 .2.1.1 0 .1 0 .2.1.1 0 .1.1.2.1.1.1.2.2.2.3.1.1.1.2.1.4 0 .3-.1.5-.3.7 0 .1-.1.1-.2.1s-.1.1-.2.1-.1 0-.2 0c-.1.1-.2.1-.2.1z" fill="#48515a"/><path d="m105.5 87.3h-62.5c-.6 0-1-.4-1-1s.4-1 1-1h62.5c.6 0 1 .4 1 1s-.4 1-1 1z" fill="#48515a"/><path d="m48.2 115.3h-16.2c-.6 0-1-.4-1-1s.4-1 1-1h16.2c.6 0 1 .4 1 1s-.5 1-1 1z" fill="#48515a"/><circle cx="17.7" cy="37.3" fill="#5fe0ed" r="2"/><path d="m40.2 111.3h5.4v-1.1-18.4c0-1.4-1.1-2.5-2.5-2.5s-2.5 1.1-2.5 2.5v17c-.1.9-.2 1.7-.4 2.5z" fill="#ffd15d"/><path d="m168.2 86.6-4.3-4.2-28.6 28.6-12.6-12.6-4.3 4.2 16.9 16.9z" fill="#5fe0ed"/><path d="m135.3 120.9-.7-.7-17.6-17.6 5.7-5.7 12.6 12.6 28.6-28.5 5.7 5.7zm-15.4-18.3 15.5 15.5 31.5-31.5-2.8-2.8-28.6 28.6-12.6-12.6z" fill="#48515a"/><path d="m42.6 58.5c-.4 0-.8-.1-1.2-.4-.6-.5-.9-1.2-.8-2l1.4-8.2-6-5.8c-.5-.5-.7-1.3-.5-2s.9-1.3 1.6-1.4l8.3-1.2 3.7-7.5c.3-.7 1-1.1 1.8-1.1s1.5.4 1.8 1.1l3.7 7.5 8.3 1.2c.8.1 1.4.6 1.6 1.4.2.7 0 1.5-.5 2.1l-6 5.8 1.4 8.2c.1.8-.2 1.5-.8 2s-1.4.5-2.1.2l-7.4-3.9-7.4 3.9c-.3 0-.6.1-.9.1zm8.3-6.4 8.3 4.4-1.6-9.3 6.7-6.6-9.3-1.4-4.2-8.4-4.2 8.4-9.3 1.4 6.7 6.6-1.6 9.3z" fill="#48515a"/><path d="m50.9 35.4-2.8 5.7-6.4 1 4.6 4.4-1.1 6.3 5.7-2.9 5.7 2.9-1.1-6.3 4.6-4.4-6.3-1z" fill="#ffd15d"/><path d="m47.4 70.5h-8v-8h8zm-6-2h4v-4h-4z" fill="#48515a"/><path d="m50.4 65.5h64v2h-64z" fill="#48515a"/><path d="m47.4 80.5h-8v-8h8zm-6-2h4v-4h-4z" fill="#48515a"/><path d="m50.4 75.5h64v2h-64z" fill="#48515a"/><path d="m66.5 104.5h-8v-8h8zm-6-2h4v-4h-4z" fill="#48515a"/><path d="m69.5 99.5h32v2h-32z" fill="#48515a"/><path d="m66.5 114.5h-8v-8h8zm-6-2h4v-4h-4z" fill="#48515a"/><path d="m69.5 109.5h32v2h-32z" fill="#48515a"/><path d="m66.5 124.5h-8v-8h8zm-6-2h4v-4h-4z" fill="#48515a"/><path d="m69.5 119.5h32v2h-32z" fill="#48515a"/><path d="m66.5 134.5h-8v-8h8zm-6-2h4v-4h-4z" fill="#48515a"/><path d="m69.5 129.5h41v2h-41z" fill="#48515a"/><path d="m66.5 144.5h-8v-8h8zm-6-2h4v-4h-4z" fill="#48515a"/><path d="m69.5 139.5h67v2h-67z" fill="#48515a"/></g></svg>