<svg enable-background="new 0 0 178.8 192" viewBox="0 0 178.8 192" xmlns="http://www.w3.org/2000/svg"><path d="m101.4 144.2v-59.1l-6.5-5.1-6.5 5.1v59.1z" fill="#ffd15d"/><path d="m72.9 144.2v-60.5h-.1l-4.4-3.7v64.2z" fill="#ffd15d"/><path d="m96.9 59.1-8.5-17-9 17z" fill="#f58e70"/><path d="m108.4 144.2h-2v-63.9l-18-36-19 36v63.9h-2v-64.4l.1-.2 20.9-39.7 20 39.9z" fill="#475059"/><path d="m87.1 50.4h2v17.5h-2z" fill="#475059" transform="matrix(.0017856 -1 1 .0017856 28.876 147.1578)"/><path d="m101.4 86.4-6.5-5.1-6.5 5.1-6.5-5.1-7.6 5-6.5-5.5 1.2-1.5 5.5 4.5 7.4-4.9 6.5 4.9 6.5-5.1 6.5 5.1 5.4-4.5 1.2 1.5z" fill="#475059"/><circle cx="19.2" cy="22" fill="#5fe0ed" r="4"/><circle cx="139.4" cy="129.6" fill="#5fe0ed" r="4"/><path d="m116.4 145h-58v-15.7c0-6.9-3.2-13.9-8.8-19.2-11.6-11-18-26.2-17.5-41.8 1-28.3 23.9-51.8 52.2-53.3 13-.7 25.9 3.2 36.3 11.1l-1.2 1.6c-10-7.5-22.4-11.3-35-10.7-27.3 1.5-49.3 24-50.2 51.4-.5 15 5.7 29.7 16.8 40.3 6 5.7 9.4 13.2 9.4 20.6v13.7h54v-13c0-7.8 3.5-15.7 9.6-21.6 10.6-10.2 16.5-23.8 16.5-38.3h2c0 15.1-6.1 29.2-17.1 39.8-5.7 5.5-9 12.8-9 20.1z" fill="#48515a"/><path d="m97.2 172.5h-18c-8.3 0-15.3-6.3-15.3-14.6v-3.4h48v3.4c0 8.3-6.5 14.6-14.7 14.6z" fill="#ffd15d"/><path d="m97.2 173h-18c-8.7 0-15.8-6.8-15.8-15.1v-3.9h49v3.9c0 8.5-6.7 15.1-15.2 15.1zm-32.8-18v2.9c0 7.8 6.6 14.1 14.8 14.1h18c8.1 0 14.2-6.1 14.2-14.1v-2.9z" fill="#ffd15d"/><path d="m59.4 144h56v8h-56z" fill="#dededd"/><path d="m116.4 153h-58v-10h58zm-56-2h54v-6h-54z" fill="#dededd"/><g fill="#48515a"><path d="m55.4 143h64v2h-64z"/><path d="m99.7 177h-21.3c-4.9 0-9.6-2-13.1-5.4l-.2-.2c-3.6-3.6-5.6-8.4-5.6-13.2v-6.2h2v6.3c0 4.2 1.8 8.4 4.9 11.6l.2.2c3.1 3.1 7.4 4.9 11.8 4.9h21c3.3-.9 7.1-2.1 9.9-4.9l.2-.2h.1c3-3.1 4.8-7.3 4.8-11.5v-6.4h2v6.3c0 4.8-2 9.6-5.6 13.2l-.2.2h-.1c-3.1 3-7.2 4.3-10.7 5.2z"/><path d="m55.4 147h64v2h-64z"/><path d="m55.4 151h64v2h-64z"/><path d="m154.2 166.9c-3.3 0-6-2.7-6-6s2.7-6 6-6 6 2.7 6 6-2.7 6-6 6zm0-10c-2.2 0-4 1.8-4 4s1.8 4 4 4 4-1.8 4-4-1.8-4-4-4z"/><path d="m170.4 109.1h2v4h-2z"/><path d="m170.4 119.1h2v4h-2z"/><path d="m174.4 115.1h4v2h-4z"/><path d="m164.4 115.1h4v2h-4z"/><path d="m11.4 88h2v4h-2z"/><path d="m11.4 98h2v4h-2z"/><path d="m15.4 94h4v2h-4z"/><path d="m5.4 94h4v2h-4z"/><path d="m12.2 56.9c-2.2 0-4-1.8-4-4s1.8-4 4-4 4 1.8 4 4-1.8 4-4 4zm0-6c-1.1 0-2 .9-2 2s.9 2 2 2 2-.9 2-2-.9-2-2-2z"/><path d="m117.4 178h2v4h-2z"/><path d="m117.4 188h2v4h-2z"/><path d="m121.4 184h4v2h-4z"/><path d="m111.4 184h4v2h-4z"/><path d="m84.4 176h2v8h-2z"/><path d="m90.4 176h2v8h-2z"/><path d="m85.4 188c-.1 0-.1 0-.2 0s-.1 0-.2 0c-.1-.1-.2-.1-.3-.2-.2-.2-.3-.4-.3-.7s.1-.5.3-.7c0 0 .1-.1.2-.1s.1-.1.2-.1.1 0 .2-.1c.3-.1.7 0 .9.3.2.2.3.5.3.7 0 .3-.1.5-.3.7 0 .1-.1.1-.2.1 0 0-.1.1-.2.1s-.1 0-.2 0-.1 0-.2 0z"/><path d="m91.4 188c-.3 0-.5-.1-.7-.3s-.3-.4-.3-.7.1-.5.3-.7c.4-.4 1-.4 1.4 0 .2.2.3.4.3.7s-.1.5-.3.7-.4.3-.7.3z"/><path d="m85.4 192c-.1 0-.1 0-.2 0s-.1 0-.2 0-.1-.1-.2-.1c0 0-.1-.1-.2-.1-.1-.1-.2-.2-.2-.3s-.1-.2-.1-.4c0-.3.1-.5.3-.7 0 0 .1-.1.2-.1s.1-.1.2-.1.1 0 .2-.1c.3-.1.7 0 .9.3.2.2.3.5.3.7 0 .1 0 .3-.1.4 0 .1-.1.2-.2.3-.2.1-.4.2-.7.2z"/><path d="m91.4 192c-.3 0-.5-.1-.7-.3-.1-.1-.2-.2-.2-.3s-.1-.2-.1-.4c0-.3.1-.5.3-.7.4-.4 1-.4 1.4 0 .2.2.3.5.3.7 0 .1 0 .3-.1.4 0 .1-.1.2-.2.3-.2.2-.4.3-.7.3z"/><path d="m120.1 20.9c-.1 0-.1 0-.2 0s-.1 0-.2-.1c-.1 0-.1-.1-.2-.1s-.1-.1-.2-.1c-.2-.2-.3-.5-.3-.7 0-.3.1-.5.3-.7 0 0 .1-.1.2-.1 0 0 .1-.1.2-.1s.1 0 .2-.1c.3-.1.7 0 .9.3.2.2.3.5.3.7 0 .3-.1.5-.3.7-.1.2-.4.3-.7.3z"/><path d="m87.1 131c-.5 0-1-.4-1-1 0-.6.5-1 1-1 .5 0 1 .5 1 1 0 .5-.5 1-1 1zm3-1.1c0-.5.4-1 .9-1.1.5 0 1 .4 1.1.9 0 .6-.4 1-.9 1.1s0 0-.1 0c-.6 0-1-.4-1-.9zm-7.1.9c-.5 0-1-.5-.9-1.1 0-.6.5-1 1.1-.9.5 0 1 .5.9 1.1-.1.5-.5.9-1.1.9zm11-1.2c-.1-.5.3-1 .9-1.1.5-.1 1 .3 1.1.9.1.5-.3 1-.9 1.1h-.1c-.5-.1-.9-.4-1-.9zm-15 .8c-.5-.1-.9-.6-.8-1.1.1-.5.6-.9 1.1-.9.6.1.9.6.9 1.1-.1.5-.5.9-1 .9-.1 0-.2 0-.2 0zm19-1.4c-.1-.5.2-1.1.8-1.2.5-.1 1.1.2 1.2.8.1.5-.2 1.1-.8 1.2-.1 0-.1 0-.2 0-.5 0-.9-.3-1-.8zm-23 .7c-.5-.1-.9-.6-.8-1.2.1-.5.6-.9 1.2-.8.5.1.9.6.8 1.2-.1.5-.5.8-1 .8-.1.1-.2 0-.2 0zm26.9-1.6c-.1-.5.2-1.1.7-1.2.5-.1 1.1.2 1.2.7.1.5-.2 1.1-.7 1.2-.1 0-.2 0-.3 0-.4.1-.8-.2-.9-.7zm-30.9.7c-.5-.2-.8-.7-.7-1.2.1-.5.7-.9 1.2-.7.5.1.8.7.7 1.2-.1.4-.5.7-1 .7s-.1 0-.2 0zm34.7-1.8c-.2-.5.1-1.1.6-1.3.5-.2 1.1.1 1.3.6.2.5-.1 1.1-.6 1.3-.1 0-.2.1-.3.1-.5 0-.8-.2-1-.7zm-38.5.6c-.5-.2-.8-.8-.6-1.3.2-.5.8-.8 1.3-.6.5.2.8.8.6 1.3-.1.4-.5.7-1 .7-.1-.1-.2-.1-.3-.1zm42.3-1.9c-.2-.5 0-1.1.5-1.3.5-.2 1.1 0 1.3.5.2.5 0 1.1-.5 1.3-.1 0-.3.1-.4.1-.4 0-.8-.2-.9-.6zm-46.1.4c-.5-.2-.8-.8-.5-1.3.2-.5.8-.7 1.3-.5.5.2.8.8.5 1.3-.2.4-.5.6-.9.6-.2 0-.3 0-.4-.1zm49.7-2c-.2-.5 0-1.1.4-1.3.5-.2 1.1-.1 1.3.4.2.5 0 1.1-.5 1.3-.1.1-.3.1-.4.1-.3 0-.6-.2-.8-.5zm-53.4.3c-.5-.2-.7-.9-.4-1.3.2-.5.9-.7 1.3-.4.5.2.7.9.4 1.3-.2.4-.5.5-.9.5-.1 0-.2 0-.4-.1zm56.9-2.2c-.3-.5-.1-1.1.4-1.4.5-.3 1.1-.1 1.4.4.3.5.1 1.1-.4 1.4-.2.1-.3.1-.5.1-.3 0-.7-.2-.9-.5zm-60.4.3c-.5-.3-.6-.9-.4-1.4.3-.5.9-.6 1.4-.4.5.3.6.9.4 1.4-.2.3-.5.5-.9.5-.2 0-.4-.1-.5-.1zm63.9-2.4c-.3-.4-.2-1.1.3-1.4.5-.3 1.1-.2 1.4.3.3.5.2 1.1-.3 1.4-.2.1-.4.2-.6.2-.3 0-.7-.2-.8-.5zm-67.3.2c-.5-.3-.6-.9-.3-1.4.3-.4.9-.6 1.4-.2.5.3.6.9.3 1.4-.2.3-.5.4-.8.4-.3-.1-.5-.1-.6-.2zm70.5-2.4c-.3-.4-.3-1.1.2-1.4.4-.3 1.1-.3 1.4.2.3.4.3 1.1-.2 1.4-.2.1-.4.2-.6.2-.3-.1-.6-.2-.8-.4zm-73.8 0c-.4-.4-.5-1-.2-1.4.3-.4 1-.5 1.4-.2.4.3.5 1 .2 1.4-.2.2-.5.4-.8.4-.2 0-.4-.1-.6-.2zm76.9-2.6c-.4-.4-.3-1 .1-1.4.4-.4 1-.3 1.4.1.4.4.3 1-.1 1.4-.2.2-.4.2-.7.2-.2.1-.5 0-.7-.3zm-80-.1c-.4-.4-.5-1-.1-1.4.4-.4 1-.4 1.4-.1.4.4.4 1 .1 1.4-.2.2-.5.3-.7.3-.3.1-.5 0-.7-.2zm82.9-2.6c-.4-.4-.4-1 0-1.4.4-.4 1-.4 1.4 0 .4.4.4 1 0 1.4-.2.2-.5.3-.7.3-.2 0-.5-.1-.7-.3zm-85.8-.2c-.4-.4-.4-1 0-1.4.4-.4 1-.4 1.4 0 .4.4.4 1 0 1.4-.2.2-.4.3-.7.3-.3 0-.5-.1-.7-.3zm88.6-2.7c-.4-.4-.5-1-.1-1.4.4-.4 1-.5 1.4-.1.4.4.5 1 .1 1.4-.2.2-.5.4-.8.4-.2 0-.4-.1-.6-.3zm-91.3-.3c-.4-.4-.3-1.1.1-1.4.4-.4 1.1-.3 1.4.1.4.4.3 1.1-.1 1.4-.2.2-.4.2-.7.2-.3.1-.6 0-.7-.3zm93.8-2.7c-.4-.3-.5-1-.2-1.4.3-.4 1-.5 1.4-.2.4.3.5 1 .2 1.4-.2.3-.5.4-.8.4-.1 0-.4-.1-.6-.2zm-96.4-.4c-.3-.4-.2-1.1.2-1.4.4-.3 1.1-.2 1.4.2.3.4.2 1.1-.2 1.4-.2.1-.4.2-.6.2-.3 0-.6-.2-.8-.4zm98.8-2.8c-.5-.3-.6-.9-.3-1.4.3-.5.9-.6 1.4-.3.5.3.6.9.3 1.4-.2.3-.5.5-.8.5-.2 0-.4-.1-.6-.2zm-101.1-.6c-.3-.5-.2-1.1.3-1.4.5-.3 1.1-.2 1.4.3.3.5.2 1.1-.3 1.4-.2.1-.4.2-.5.2-.4 0-.7-.2-.9-.5zm103.3-2.8c-.5-.3-.7-.9-.4-1.4.3-.5.9-.7 1.4-.4.5.3.6.9.4 1.4-.2.3-.5.5-.9.5-.2.1-.4 0-.5-.1zm-105.4-.6c-.3-.5-.1-1.1.4-1.4.5-.3 1.1-.1 1.4.4.3.5.1 1.1-.4 1.4-.2.1-.3.1-.5.1-.4 0-.7-.2-.9-.5zm107.3-2.9c-.5-.2-.7-.8-.5-1.3.2-.5.8-.7 1.3-.5.5.2.7.8.5 1.3-.2.4-.5.6-.9.6-.1 0-.3 0-.4-.1zm-109.1-.7c-.2-.5 0-1.1.5-1.3.5-.2 1.1 0 1.3.5.2.5 0 1.1-.5 1.3-.1.1-.3.1-.4.1-.4-.1-.8-.3-.9-.6zm110.7-2.9c-.5-.2-.8-.8-.6-1.3.2-.5.8-.8 1.3-.6.5.2.8.8.6 1.3-.2.4-.5.6-.9.6-.2 0-.3 0-.4 0zm-112.3-.9c-.2-.5 0-1.1.6-1.3.5-.2 1.1 0 1.3.6.2.5-.1 1.1-.6 1.3-.1 0-.2.1-.4.1-.4 0-.8-.3-.9-.7zm113.7-2.9c-.5-.2-.8-.7-.7-1.2.2-.5.7-.8 1.2-.7.5.2.8.7.7 1.2-.1.4-.5.7-1 .7 0 .1-.1.1-.2 0zm-115.1-.9c-.2-.5.1-1.1.7-1.2.5-.2 1.1.1 1.3.6.2.5-.1 1.1-.6 1.3-.1 0-.2 0-.3 0-.6 0-1-.3-1.1-.7zm116.2-2.9c-.5-.1-.9-.7-.8-1.2.1-.5.7-.9 1.2-.8.5.1.9.7.8 1.2-.1.5-.5.8-1 .8-.1 0-.1 0-.2 0zm-117.3-1c-.1-.5.2-1.1.7-1.2.5-.1 1.1.2 1.2.7.1.5-.2 1.1-.7 1.2-.1 0-.2 0-.2 0-.5.1-.9-.2-1-.7zm-.8-4c-.1-.5.3-1.1.8-1.2.5-.1 1.1.3 1.2.8.1.5-.3 1.1-.8 1.2-.1 0-.1 0-.2 0-.5.1-1-.3-1-.8zm-.6-4c-.1-.6.3-1.1.9-1.1.5-.1 1 .3 1.1.9.1.6-.3 1-.9 1.1h-.1c-.5 0-.9-.4-1-.9zm-.3-4c0-.5.4-1 1-1 .5 0 1 .4 1 1 0 .6-.4 1-1 1-.5-.1-1-.5-1-1zm.9-3.1c-.5 0-1-.5-1-1 0-.5.5-1 1-1 .6 0 1 .5 1 1 .1.6-.4 1-1 1 .1 0 .1 0 0 0zm.2-3.9c-.5 0-.9-.5-.9-1.1 0-.6.5-1 1.1-.9.5.1 1 .5.9 1.1-.1.5-.5.9-1 .9s0 0-.1 0zm.5-4c-.5-.1-.9-.6-.8-1.1.1-.5.6-.9 1.1-.8.5.1.9.6.8 1.1-.1.5-.5.8-1 .8zm.6-3.9c-.5-.1-.9-.7-.8-1.2.1-.5.7-.9 1.2-.8.5.1.9.7.8 1.2-.1.5-.5.8-1 .8s-.1 0-.2 0zm1-3.9c-.5-.2-.8-.7-.7-1.2.2-.5.7-.8 1.2-.7.5.2.8.7.7 1.2-.1.4-.5.7-1 .7s-.1 0-.2 0zm1.2-3.8c-.5-.2-.8-.8-.6-1.3.2-.5.8-.8 1.3-.6.5.2.8.8.6 1.3-.1.4-.5.6-.9.6-.1.1-.3 0-.4 0zm1.5-3.7c-.5-.2-.7-.8-.5-1.3.2-.5.8-.7 1.3-.5.5.2.7.8.5 1.3-.2.4-.5.6-.9.6-.1 0-.3 0-.4-.1zm1.7-3.6c-.5-.3-.7-.9-.4-1.4.3-.5.9-.7 1.4-.4.5.3.7.9.4 1.4-.2.3-.5.5-.9.5-.2 0-.4 0-.5-.1zm1.9-3.5c-.5-.3-.6-.9-.3-1.4.3-.5.9-.6 1.4-.3.5.3.6.9.3 1.4-.2.3-.5.5-.8.5-.2 0-.4-.1-.6-.2zm2.2-3.3c-.5-.3-.5-.9-.2-1.4.3-.4.9-.5 1.4-.2.5.3.5 1 .2 1.4-.2.3-.5.4-.8.4-.2 0-.4-.1-.6-.2zm2.4-3.2c-.4-.4-.5-1-.1-1.4.4-.4 1-.5 1.4-.1.4.4.5 1 .1 1.4-.2.2-.5.4-.8.4-.2-.1-.4-.2-.6-.3zm2.6-3c-.4-.4-.4-1 0-1.4.4-.4 1-.4 1.4 0 .4.4.4 1 0 1.4-.2.2-.5.3-.7.3-.3-.1-.5-.2-.7-.3zm2.8-2.9c-.4-.4-.4-1 0-1.4.4-.4 1-.4 1.4 0 .4.4.3 1-.1 1.4-.2.2-.4.3-.7.3-.2 0-.4-.1-.6-.3zm2.9-2.7c-.4-.4-.3-1.1.1-1.4.4-.4 1.1-.3 1.4.1.3.4.3 1.1-.2 1.4-.2.1-.4.2-.6.2-.2.1-.5 0-.7-.3zm3.2-2.4c-.3-.5-.2-1.1.2-1.4.5-.3 1.1-.2 1.4.2.3.4.2 1.1-.2 1.4-.2.1-.4.2-.6.2-.3 0-.6-.1-.8-.4zm3.3-2.3c-.3-.5-.1-1.1.3-1.4.5-.3 1.1-.1 1.4.3.3.5.1 1.1-.3 1.4-.2.1-.3.1-.5.1-.4.1-.7-.1-.9-.4zm61.2-.5c-.5-.3-.6-.9-.4-1.4.3-.5.9-.6 1.4-.4.5.3.7.9.4 1.4-.2.3-.5.5-.9.5-.2 0-.4 0-.5-.1zm-57.8-1.5c-.3-.5-.1-1.1.4-1.4.5-.3 1.1-.1 1.3.4.2.5.1 1.1-.4 1.4-.1.1-.3.1-.5.1-.3 0-.6-.1-.8-.5zm54.3-.4c-.5-.2-.7-.8-.5-1.3.2-.5.8-.7 1.3-.5.5.2.7.8.5 1.3-.2.4-.5.6-.9.6-.1 0-.3 0-.4-.1zm-50.7-1.4c-.2-.5 0-1.1.5-1.3.5-.2 1.1 0 1.3.5.2.5 0 1.1-.5 1.3-.1.1-.3.1-.4.1-.4 0-.8-.2-.9-.6zm47.1-.2c-.5-.2-.8-.8-.5-1.3.2-.5.8-.8 1.3-.6.5.2.8.8.6 1.3-.2.4-.5.6-.9.6-.3.1-.4.1-.5 0zm-43.4-1.3c-.2-.5.1-1.1.6-1.3.5-.2 1.1.1 1.3.6.2.5-.1 1.1-.6 1.3-.1 0-.2.1-.4.1-.4-.1-.8-.3-.9-.7zm39.7 0c-.5-.2-.8-.7-.6-1.3.2-.5.7-.8 1.3-.6.5.2.8.7.6 1.3-.1.4-.5.7-1 .7-.1-.1-.2-.1-.3-.1zm-36-1.3c-.1-.5.2-1.1.7-1.2.5-.2 1.1.1 1.2.7.2.5-.1 1.1-.7 1.2-.1 0-.2 0-.3 0-.3 0-.8-.3-.9-.7zm32.3.2c-.5-.1-.9-.7-.7-1.2.1-.5.7-.9 1.2-.7.5.1.9.7.7 1.2-.1.5-.5.8-1 .8-.1-.1-.1-.1-.2-.1zm-28.4-1.3c-.1-.5.2-1.1.8-1.2.5-.1 1.1.2 1.2.8.1.5-.2 1.1-.8 1.2-.1 0-.1 0-.2 0-.5 0-.9-.3-1-.8zm24.5.4c-.5-.1-.9-.6-.8-1.2.1-.5.6-.9 1.2-.8.5.1.9.6.8 1.2-.1.5-.5.8-1 .8 0 .1-.1.1-.2 0zm-20.6-1.1c-.1-.6.3-1.1.8-1.1.5-.1 1 .3 1.1.8.1.6-.3 1.1-.8 1.1s-.1 0-.2 0c-.4 0-.8-.4-.9-.8zm16.8.6c-.5-.1-.9-.6-.9-1.1.1-.5.6-.9 1.1-.9.5.1.9.6.9 1.1-.1.5-.5.9-1 .9-.1 0-.1 0-.1 0zm-12.9-1.2c0-.6.4-1 .9-1.1.5 0 1 .4 1.1.9 0 .5-.4 1-.9 1.1s0 0-.1 0c-.5.1-.9-.3-1-.9zm8-.2c0-.5.5-1 1.1-.9.5 0 1 .5.9 1 0 .6-.5 1-1 1-.6-.1-1-.6-1-1.1zm-4 0c0-.5.4-1 1-1 .6 0 1 .4 1 1 0 .5-.4 1-1 1-.5 0-1-.5-1-1z"/><path d="m146.3 81.4c-.3 0-.5-.1-.7-.3s-.3-.4-.3-.7.1-.5.3-.7c.4-.4 1-.4 1.4 0 .1.1.2.2.2.3s.1.3.1.4c0 .3-.1.5-.3.7s-.5.3-.7.3z"/><path d="m139 64h-3.9c-.6 0-1-.4-1-1s.4-1 1-1c1.5 0 2.8-.5 4-1.4.6-.5 1.2-1.1 1.7-2.1.4-.8.6-1.8.6-3.3v-.4c-6-2-11.1-5.9-14.7-11.4-4.2-6.5-5.5-14.2-3.7-21.7 1.8-7.7 6.6-14 13.5-18 12.8-7.4 29.2-3.5 37.4 8.8 5.8 8.7 6.3 19.9 1.3 29.1l-.2.4c-1.9 3.4-4.5 6.2-7.6 8.6l-1.6 1.1c-3.9 2.5-8.3 4-12.9 4.4-2.8 4.9-8.1 7.9-13.9 7.9zm11.4-61.9c-4.4 0-8.8 1.1-12.8 3.4-6.4 3.7-10.8 9.6-12.6 16.7-1.7 7-.5 14.2 3.4 20.2 3.5 5.3 8.4 9.1 14.3 10.8.4.1.7.5.7 1v1.1c0 1.2-.1 2.8-.9 4.2-.6 1-1.2 1.8-1.9 2.4 4.5-.5 8.6-3.2 10.9-7.2.2-.3.5-.5.8-.5 4.4-.3 8.7-1.7 12.4-4.1l1.5-1.1c2.9-2.2 5.2-4.8 7-8l.2-.4c4.7-8.6 4.2-18.9-1.2-27-4.7-7.4-13.2-11.5-21.8-11.5z"/><path d="m166.5 25h-32c-.6 0-1-.4-1-1s.4-1 1-1h32c.6 0 1 .4 1 1s-.4 1-1 1z"/><path d="m166.5 29h-32c-.6 0-1-.4-1-1s.4-1 1-1h32c.6 0 1 .4 1 1s-.4 1-1 1z"/><path d="m161.5 33h-27c-.6 0-1-.4-1-1s.4-1 1-1h27c.6 0 1 .4 1 1s-.4 1-1 1z"/></g><circle cx="24.5" cy="141.7" fill="#ffd15d" r="20.5"/><path d="m37.7 172.8h-3.3c-4.9 0-9.6-2.6-12.2-6.8-3.9-.3-7.8-1.7-11.1-3.8l-1.4-1c-2.7-2-4.9-4.5-6.6-7.4l-.1-.3c-4.3-8-3.9-17.6 1.1-25.2 7.1-10.7 21.3-14 32.4-7.6 5.9 3.4 10 8.8 11.5 15.4 1.6 6.6.4 13.3-3.2 19-3 4.6-7.5 8.1-12.8 9.9v.3c0 .9.3 1.9.7 2.7.4.7.9 1.3 1.5 1.8 1 .8 2.2 1.2 3.5 1.2.6 0 1 .4 1 1s-.4.8-1 .8zm-33-20.3.2.3c1.5 2.7 3.6 5 6 6.8l1.3.9c3.1 2 6.8 3.3 10.6 3.5.3 0 .6.2.8.5 1.9 3.2 5.1 5.5 8.7 6.1-.6-.5-1-1.1-1.4-1.8-.6-1.2-1-2.5-1-3.7v-1c0-.4.3-.8.7-1 5.2-1.6 9.6-4.9 12.4-9.3 3.4-5.2 4.4-11.4 3-17.4-1.5-6-5.2-11-10.6-14.1-10-5.8-23.3-2.6-29.7 7-4.6 7-4.9 15.9-1 23.2z" fill="#48515a"/></svg>