<svg enable-background="new 0 0 193 193" viewBox="0 0 193 193" xmlns="http://www.w3.org/2000/svg" xmlns:xlink="http://www.w3.org/1999/xlink"><clipPath id="a"><path d="m0 0h193v193h-193z"/></clipPath><g clip-path="url(#a)"><path d="m176 70.6 4.7 4.7 2.6-1.6z" fill="#dededd"/><path d="m177.2 77.4-6.8-6.8-4.8 9.7-7.2-17.3-3.1-1.3 12.3 29.6 4.8-9.7 7.1 7.1 2.9-2.8-7.3-7.3z" fill="#dededd"/><path d="m153.3 50.7 5.2 2.2v-11.6h-126v35h126v-13.1z" fill="#5fe0ed"/><path d="m187.5 122.3h-49.6l-10.8-5 10.8-5h49.6c2.8 0 5 2.2 5 5s-2.2 5-5 5zm-49.2-2h49.2c1.7 0 3-1.3 3-3s-1.3-3-3-3h-49.2l-6.5 3z" fill="#475059"/><path d="m179.9 113.7h2v7.6h-2z" fill="#475059"/><path d="m138.9 116.3h42v2h-42z" fill="#475059"/><path d="m26.5 11.3h138v11.4h-138z" fill="#dededd"/><g fill="#475059"><path d="m165.5 180.3h-140v-65h2v63h136v-4h2z"/><path d="m33.8 20.9c-1.9 0-3.4-1.5-3.4-3.4s1.5-3.4 3.4-3.4 3.4 1.5 3.4 3.4-1.6 3.4-3.4 3.4zm0-4.8c-.8 0-1.4.6-1.4 1.4s.6 1.4 1.4 1.4 1.4-.6 1.4-1.4-.7-1.4-1.4-1.4z"/><path d="m43.4 20.9c-1.9 0-3.4-1.5-3.4-3.4s1.5-3.4 3.4-3.4 3.4 1.5 3.4 3.4-1.5 3.4-3.4 3.4zm0-4.8c-.8 0-1.4.6-1.4 1.4s.6 1.4 1.4 1.4 1.4-.6 1.4-1.4-.6-1.4-1.4-1.4z"/><path d="m53 20.9c-1.9 0-3.4-1.5-3.4-3.4s1.5-3.4 3.4-3.4 3.4 1.5 3.4 3.4-1.5 3.4-3.4 3.4zm0-4.8c-.8 0-1.4.6-1.4 1.4s.6 1.4 1.4 1.4 1.4-.6 1.4-1.4-.6-1.4-1.4-1.4z"/><path d="m31.8 92.8h32.4v2h-32.4z" transform="matrix(.7071 -.7071 .7071 .7071 -52.2357 61.4471)"/><path d="m36.6 110.3v-2h21.9v-25h-22v-2h24v29z"/><path d="m47 81.6h2v32.5h-2z" transform="matrix(.7071 -.7071 .7071 .7071 -55.1043 62.604)"/><path d="m32.5 113.3h16v2h-16z"/><path d="m32.5 117.3h13v2h-13z"/><path d="m64.5 110.3v-29h29v29zm2-27v25h25v-25z"/><path d="m78 76.7h2v38.2h-2z" transform="matrix(.7071 -.7071 .7071 .7071 -44.6093 83.936)"/><path d="m59.9 94.8h38.2v2h-38.2z" transform="matrix(.7071 -.7071 .7071 .7071 -44.6096 83.9372)"/><path d="m65.5 113.3h16v2h-16z"/><path d="m65.5 117.3h13v2h-13z"/><path d="m97.5 110.3v-29h29v29zm2-27v25h25v-25z"/><path d="m111 76.7h2v38.2h-2z" transform="matrix(.7071 -.7071 .7071 .7071 -34.9442 107.27)"/><path d="m92.9 94.8h38.2v2h-38.2z" transform="matrix(.7071 -.7071 .7071 .7071 -34.9443 107.2714)"/><path d="m98.6 113.3h16v2h-16z"/><path d="m98.6 117.3h13v2h-13z"/><path d="m130.5 110.3v-29h29v29zm2-27v25h25v-25z"/><path d="m144 76.7h2v38.2h-2z" transform="matrix(.7071 -.7071 .7071 .7071 -25.2788 130.6046)"/><path d="m125.9 94.8h38.2v2h-38.2z" transform="matrix(.7071 -.7071 .7071 .7071 -25.2786 130.6062)"/><path d="m159.5 36.3h-128v-10h128zm-126-2h124v-6h-124z"/><path d="m35.5 73.3v-29h29v29zm2-27v25h25v-25z"/><path d="m49 39.7h2v38.2h-2z" transform="matrix(.7071 -.7071 .7071 .7071 -26.9463 52.5965)"/><path d="m30.9 57.8h38.2v2h-38.2z" transform="matrix(.7071 -.7071 .7071 .7071 -26.9463 52.5958)"/><path d="m90.5 50.3h38v2h-38z"/><path d="m90.5 54.3h26v2h-26z"/><path d="m90.5 60.3h38v2h-38z"/><path d="m90.5 64.3h26v2h-26z"/><path d="m132.5 30.3h23v2h-23z"/><path d="m31.5 153.3v-29h29v29zm2-27v25h25v-25z"/><path d="m45 119.8h2v38.2h-2z" transform="matrix(.7071 -.7071 .7071 .7071 -84.6983 73.2031)"/><path d="m26.9 137.8h38.2v2h-38.2z" transform="matrix(.7071 -.7071 .7071 .7071 -84.6989 73.2042)"/><path d="m32.5 156.3h16v2h-16z"/><path d="m32.5 160.3h13v2h-13z"/><path d="m64.5 153.3v-29h29v29zm2-27v25h25v-25z"/><path d="m78 119.8h2v38.2h-2z" transform="matrix(.7071 -.7071 .7071 .7071 -75.0329 96.5377)"/><path d="m59.9 137.8h38.2v2h-38.2z" transform="matrix(.7071 -.7071 .7071 .7071 -75.0333 96.5391)"/><path d="m65.5 156.3h16v2h-16z"/><path d="m65.5 160.3h13v2h-13z"/><path d="m97.5 153.3v-29h29v29zm2-27v25h25v-25z"/><path d="m111 119.8h2v38.2h-2z" transform="matrix(.7071 -.7071 .7071 .7071 -65.3678 119.8717)"/><path d="m92.9 137.8h38.2v2h-38.2z" transform="matrix(.7071 -.7071 .7071 .7071 -65.368 119.8733)"/><path d="m98.6 156.3h16v2h-16z"/><path d="m98.6 160.3h13v2h-13z"/><path d="m156 151.3h-22.1l11.1-11.1 11 11.1v-1h3.5v-26h-29v29h25.5zm1.5-1.4-11.1-11.1 11.1-11.1zm-1.4-23.6-11.1 11.1-11.1-11.1zm-23.6 1.5 11.1 11.1-11.1 11.1z"/><path d="m131.6 156.3h16v2h-16z"/><path d="m131.6 160.3h13v2h-13z"/></g><path d="m74.5 167.3h42v6h-42z" fill="#5fe0ed"/><path d="m163.5 55.1 2 .8v-45.6h-140v67h2v-65h136z" fill="#475059"/><path d="m163.5 75.4v66.9h2v-62.1z" fill="#475059"/><path d="m165.5 82.7-14-33.9 32.1 13.7-8.8 5.3 8 8-4.2 4.2-7.8-7.8zm-10.3-30.1 10.5 25.3 4.5-9 8.4 8.4 1.4-1.4-8.4-8.4 7.7-4.6z" fill="#48515a"/><path d="m35.9 101.7-1.9-.6.3-1-1.3-.4c-1.5-.5-2.5-1.9-2.5-3.5s1-3 2.5-3.5l1.3-.4-.7-2.2-1.3.4c-1.5.5-3.2 0-4.1-1.3-1-1.3-.9-3 0-4.3l.8-1.1-1.8-1.3-.8 1.1c-1 1.3-2.6 1.8-4.1 1.3s-2.5-1.9-2.5-3.5v-1.3h-2.3v1.3c0 1.6-1 3-2.5 3.5s-3.2 0-4.1-1.3l-.8-1.1-1.8 1.3.8 1.1c1 1.3.9 3 0 4.3-1 1.3-2.6 1.8-4.1 1.3l-1.3-.4-.3 1-1.9-.6.9-2.9 3.2 1c.8.3 1.5-.1 1.9-.6.3-.5.5-1.2 0-2l-2-2.7 5.1-3.7 2 2.7c.5.7 1.3.8 1.9.6s1.2-.7 1.2-1.6v-3.3h6.3v3.3c0 .9.6 1.4 1.2 1.6s1.3.1 1.9-.6l2-2.7 5.1 3.7-2 2.7c-.5.7-.3 1.5 0 2s1 .9 1.9.6l3.2-1 1.9 6-3.2 1c-.9.3-1.2 1-1.2 1.6s.3 1.3 1.2 1.6l3.2 1z" fill="#475059"/><path d="m26.7 98.8-1.9-.6c.5-1.6.4-3.4-.4-4.9s-2.1-2.7-3.8-3.2c-3.4-1.1-7.1.8-8.2 4.1l-1.9-.6c1.4-4.4 6.2-6.9 10.7-5.4 2.2.7 3.9 2.2 4.9 4.2 1.2 1.9 1.3 4.2.6 6.4z" fill="#f58e70"/><path d="m18.7 104.6c-.9 0-1.8-.1-2.6-.4-2.2-.7-3.9-2.2-4.9-4.2s-1.2-4.3-.5-6.5l1.9.6c-.5 1.6-.4 3.4.4 4.9s2.1 2.7 3.8 3.2c1.6.5 3.4.4 4.9-.4s2.7-2.1 3.2-3.8l1.9.6c-.7 2.2-2.2 3.9-4.2 4.9-1.3.7-2.6 1.1-3.9 1.1z" fill="#f58e70"/><path d="m21.8 114.2h-6.3v-3.3c0-.9-.6-1.4-1.2-1.6s-1.3-.1-1.9.6l-2 2.7-5.1-3.7 2-2.7c.5-.7.3-1.5 0-2s-1-.9-1.9-.6l-3.2 1-1.9-6 3.2-1c.9-.3 1.2-1 1.2-1.6s-.3-1.3-1.2-1.6l-3.2-1 1.1-3.3 1.9.6-.3 1.5 1.3.4c1.5.5 2.5 1.9 2.5 3.5s-1 3-2.5 3.5l-1.3.4.7 2.2 1.3-.4c1.5-.5 3.2 0 4.1 1.3 1 1.3.9 3 0 4.3l-.8 1.1 1.8 1.3.8-1.1c1-1.3 2.6-1.8 4.1-1.3s2.5 1.9 2.5 3.5v1.3h2.3v-1.3c0-1.6 1-3 2.5-3.5s3.2 0 4.1 1.3l.8 1.1 1.8-1.3-.8-1.1c-1-1.3-.9-3 0-4.3 1-1.3 2.6-1.8 4.1-1.3l1.3.4.5-1.5 1.9.6-1.1 3.4-3.2-1c-.8-.3-1.5.1-1.9.6-.3.5-.5 1.2 0 2l2 2.7-5.1 3.7-2-2.7c-.5-.7-1.3-.8-1.9-.6s-1.2.7-1.2 1.6z" fill="#475059"/><circle cx="18.6" cy="96.2" fill="#ffd15d" r="4"/><path d="m18.6 100.7c-2.5 0-4.5-2-4.5-4.5s2-4.5 4.5-4.5 4.5 2 4.5 4.5-2 4.5-4.5 4.5zm0-8c-1.9 0-3.5 1.6-3.5 3.5s1.6 3.5 3.5 3.5 3.5-1.6 3.5-3.5-1.5-3.5-3.5-3.5z" fill="#ffd15d"/><path d="m162.5 156.8h-7.5v-7.5h7.5zm-5.5-2h3.5v-3.5h-3.5z" fill="#475059"/><path d="m158.8 142.8h18.4v2h-18.4z" fill="#475059" transform="matrix(.7071 -.7071 .7071 .7071 -52.4691 160.9524)"/><path d="m176.5 139.3c-2.2 0-4-1.8-4-4s1.8-4 4-4 4 1.8 4 4-1.8 4-4 4zm0-6c-1.1 0-2 .9-2 2s.9 2 2 2 2-.9 2-2-.9-2-2-2z" fill="#475059"/><path d="m140.4 161.3h18.4v2h-18.4z" fill="#475059" transform="matrix(.7071 -.7071 .7071 .7071 -70.9354 153.303)"/><path d="m141.1 174.8c-1.1 0-2.1-.4-2.8-1.2-.8-.8-1.2-1.8-1.2-2.8 0-2.2 1.8-4 4-4 1.1 0 2.1.4 2.8 1.2s1.2 1.8 1.2 2.8c0 2.2-1.8 4-4 4zm0-6c-1.1 0-2 .9-2 2 0 .5.2 1 .6 1.4s.9.6 1.4.6c1.1 0 2-.9 2-2 0-.5-.2-1-.6-1.4-.3-.4-.8-.6-1.4-.6z" fill="#475059"/><path d="m166.1 152.2h2v18h-2z" fill="#475059" transform="matrix(.7071 -.7071 .7071 .7071 -65.0627 165.3769)"/><path d="m173.5 169.6c-.5 0-1-.2-1.4-.6-.1-.1-.2-.2-.2-.3-.1-.1-.1-.2-.2-.3 0-.1-.1-.2-.1-.4 0-.1 0-.3 0-.4 0-.5.2-1 .6-1.4.8-.7 2.1-.7 2.8 0 .4.4.6.9.6 1.4s-.2 1-.6 1.4c-.5.4-1 .6-1.5.6z" fill="#475059"/><path d="m176.6 182.7-2.7-2.7 11.6-11.6 2.7 2.7-1.4 1.4-1.3-1.3-8.8 8.8 1.4 1.3z" fill="#475059"/><path d="m177.8 178.2-10-1.8-8.9-21.1 2.2-2.2 21.2 8.9 1.8 10-2 .4-1.6-9-18.9-8-.3.4 8 18.9 8.9 1.6z" fill="#475059"/><path d="m178.5 35.3h2v4h-2z" fill="#48515a"/><path d="m178.5 45.3h2v4h-2z" fill="#48515a"/><path d="m182.5 41.3h4v2h-4z" fill="#48515a"/><path d="m172.5 41.3h4v2h-4z" fill="#48515a"/><path d="m11.4 145.4h2v4h-2z" fill="#48515a"/><path d="m11.4 155.4h2v4h-2z" fill="#48515a"/><path d="m15.4 151.4h4v2h-4z" fill="#48515a"/><path d="m5.4 151.4h4v2h-4z" fill="#48515a"/><circle cx="175.3" cy="98.1" fill="#ffd15d" r="2.8"/><circle cx="17.8" cy="42.6" fill="#ffd15d" r="2.8"/><circle cx="17.8" cy="130.6" fill="#5fe0ed" r="2.8"/></g></svg>