<svg enable-background="new 0 0 193 193" viewBox="0 0 193 193" xmlns="http://www.w3.org/2000/svg" xmlns:xlink="http://www.w3.org/1999/xlink"><clipPath id="a"><path d="m0 0h193v193h-193z"/></clipPath><g clip-path="url(#a)"><path d="m107.3 96.3h5.3v10.1h-.6l8.1 20h12.5v-10.1h-5.3l3-13.5-15.7-38.8z" fill="#dededd"/><path d="m139.6 182.4h26.2l-55.8-27.7-5.1-2.5-2.4-1.2h-11.3l-2.1 1-5.3 2.6-55.9 27.7h26.2l12.8-6.3h60zm-64-10.6 21.3-10.6 21.3 10.6z" fill="#dededd"/><path d="m27.7 22.3c-1.6 0-3.2-.6-4.4-1.8-2.4-2.4-2.4-6.4 0-8.8 1.2-1.2 2.7-1.8 4.4-1.8s3.2.6 4.4 1.8c2.4 2.4 2.4 6.4 0 8.8-1.2 1.2-2.8 1.8-4.4 1.8zm0-10.4c-1.1 0-2.2.4-3 1.2-1.6 1.6-1.6 4.3 0 5.9s4.3 1.6 5.9 0 1.6-4.3 0-5.9c-.7-.8-1.7-1.2-2.9-1.2z" fill="#48515a"/><path d="m33 15.1h57.6v2h-57.6z" fill="#48515a"/><path d="m166.9 22.3c-1.6 0-3.2-.6-4.4-1.8-2.4-2.4-2.4-6.4 0-8.8 1.2-1.2 2.7-1.8 4.4-1.8s3.2.6 4.4 1.8c2.4 2.4 2.4 6.4 0 8.8-1.2 1.2-2.8 1.8-4.4 1.8zm0-10.4c-1.1 0-2.2.4-3 1.2-1.6 1.6-1.6 4.3 0 5.9s4.3 1.6 5.9 0 1.6-4.3 0-5.9c-.7-.8-1.7-1.2-2.9-1.2z" fill="#48515a"/><path d="m103.1 15.1h59v2h-59z" fill="#48515a"/><path d="m119.7 130.5-12.9-31.6-.7 3.4 10.6 26.2h-39.6l10.6-26.1h-.1l-.7-3.4-12.8 31.5z" fill="#48515a"/><path d="m103 25-.8.3 13.6 33.8-.4 1.7 49 120.6h-24.1l-12.7-31.4h-61.4l-12.7 31.4h-24.1l49.2-121.3-.2-1 13.1-33.5-.9-.4-64.2 158.2h28.4l12.8-31.4h58.6l12.8 31.4h28.4z" fill="#48515a"/><path d="m106.8 103.4h-20l-9.4-44.4 17.8-45.6h3.3l18.3 45.6zm-18.4-2h16.8l9.5-42.2-17.6-43.7h-.6l-17.1 43.7z" fill="#48515a"/><path d="m104.1 20.1h-2v-8.5h-10.5v8.5h-2v-10.5h14.5z" fill="#48515a"/><path d="m96.6 68.4c-2.2 0-4-1.8-4-4s1.8-4 4-4 4 1.8 4 4-1.8 4-4 4zm0-6c-1.1 0-2 .9-2 2s.9 2 2 2 2-.9 2-2-.9-2-2-2z" fill="#48515a"/><path d="m95.6 13.5h2v48.9h-2z" fill="#48515a"/><path d="m35.3 96-1.9-.6.3-.9-1.2-.4c-1.5-.5-2.4-1.8-2.4-3.4s1-2.9 2.5-3.4l1.2-.4-.8-1.9-1.2.4c-1.5.5-3 0-4-1.3s-.9-2.9 0-4.2l.7-1-1.5-1.2-.7 1c-.9 1.3-2.5 1.8-4 1.3s-2.4-1.8-2.4-3.4v-1.2h-2.1v1.2c0 1.6-1 2.9-2.5 3.4s-3 0-4-1.3l-.7-1-1.7 1.2.7 1c.9 1.3.9 2.9 0 4.2s-2.5 1.8-4 1.3l-1.1-.4-.3.9-1.9-.6.9-2.8 3.1 1c.8.3 1.4-.1 1.7-.6.3-.4.5-1.1 0-1.8l-1.9-2.6 4.9-3.6 1.9 2.6c.5.7 1.2.7 1.7.6.5-.2 1.1-.6 1.1-1.5v-3.2h6.1v3.2c0 .8.6 1.3 1.1 1.5s1.2.1 1.7-.6l1.9-2.6 4.9 3.6-1.9 2.6c-.5.7-.3 1.4 0 1.8s.9.8 1.7.6l3.1-1 1.9 5.8-3.1 1c-.8.3-1.1.9-1.1 1.5s.3 1.2 1.1 1.5l3.1 1z" fill="#475059"/><path d="m26.5 93.2-1.9-.6c.5-1.6.4-3.2-.4-4.7s-2-2.5-3.6-3-3.2-.4-4.7.4c-1.5.7-2.5 2-3 3.6l-1.9-.7c.7-2.1 2.1-3.7 4-4.7s4.1-1.2 6.2-.5 3.7 2.1 4.7 4c1.1 2 1.3 4.2.6 6.2z" fill="#475059"/><path d="m18.8 98.8c-.8 0-1.7-.1-2.5-.4-4.3-1.4-6.6-6-5.2-10.2l1.9.6c-1 3.2.7 6.7 3.9 7.7s6.7-.7 7.7-3.9l1.9.6c-1.1 3.4-4.3 5.6-7.7 5.6z" fill="#475059"/><path d="m21.8 108h-6.1v-3.2c0-.8-.6-1.3-1.1-1.5s-1.2-.1-1.7.6l-1.9 2.6-4.9-3.6 1.9-2.6c.5-.7.3-1.4 0-1.8s-.9-.8-1.7-.6l-3.1 1-1.9-5.8 3.1-1c.8-.3 1.1-.9 1.1-1.5s-.3-1.2-1.1-1.5l-3.1-1 1-3.2 1.9.6-.4 1.3 1.2.4c1.5.5 2.4 1.8 2.4 3.4s-1 2.9-2.5 3.4l-1.2.4.6 2 1.4-.4c1.5-.5 3 0 4 1.3.9 1.3.9 2.9 0 4.2l-.7 1 1.7 1.2.7-1c.9-1.3 2.5-1.8 4-1.3s2.4 1.8 2.4 3.4v1.2h2.1v-1.2c0-1.6 1-2.9 2.5-3.4s3 0 4 1.3l.7 1 1.7-1.2-.7-1c-.9-1.3-.9-2.9 0-4.2s2.5-1.8 4-1.3l1.2.4.5-1.4 1.9.6-1.1 3.3-3.1-1c-.8-.3-1.4.1-1.7.6-.3.4-.5 1.1 0 1.8l1.9 2.6-4.9 3.6-1.9-2.6c-.5-.7-1.2-.7-1.7-.6-.5.2-1.1.6-1.1 1.5z" fill="#475059"/><circle cx="178.6" cy="112.4" fill="#ffd15d" r="8.5"/><g fill="#48515a"><path d="m184.9 129.7c-.6 0-1-.4-1-1v-3c0-2 .8-3.9 2.3-5.3 2.2-2.1 3.4-4.9 3.4-7.9 0-3.1-1.2-5.9-3.4-8s-5.1-3.2-8.2-3c-5.7.3-10.2 5-10.4 10.6-.1 3.1 1.2 6.2 3.4 8.4 1.5 1.4 2.3 3.2 2.3 5.1v3.2c0 .6-.4 1-1 1s-1-.4-1-1v-3.2c0-1.4-.6-2.7-1.7-3.7-2.7-2.6-4.2-6.2-4.1-9.9.2-6.7 5.6-12.2 12.3-12.6 3.6-.2 7.1 1.1 9.7 3.6s4.1 5.8 4.1 9.5c0 3.6-1.4 6.9-4 9.4-1.1 1.1-1.7 2.4-1.7 3.9v3c0 .5-.4.9-1 .9z"/><path d="m178.7 136.9c-.5 0-1-.4-1-1s.4-1 1-1h2.7c.6-.1 1.2-.4 1.7-.8.5-.5.9-1.3.9-2.1v-3.1c0-.6.4-1 1-1s1 .4 1 1v3.1c0 1.3-.5 2.5-1.4 3.5-.8.8-1.8 1.3-2.9 1.4h-.1z"/><path d="m187.2 129.7h-17c-.6 0-1-.4-1-1s.4-1 1-1h17c.6 0 1 .4 1 1s-.4 1-1 1z"/><path d="m178.7 136.9h-2.5c-1.3 0-2.5-.5-3.5-1.4-.9-.9-1.4-2.2-1.4-3.5v-2.8c0-.6.4-1 1-1s1 .4 1 1v2.8c0 .8.3 1.5.9 2.1.5.6 1.3.9 2.1.9h2.5c.6 0 1 .4 1 1s-.6.9-1.1.9z"/><path d="m181.7 128.7h-2v-7.3l5.2-9.9v-1.2h2v1.7l-5.2 9.9z"/><path d="m177.5 128.7h-2v-6.8l-5.2-9.9v-1.7h2v1.2l5.2 9.9z"/><path d="m181.8 111c0-.6.4-1 1-1 .5 0 1 .4 1 1 0 .5-.5 1-1 1-.6 0-1-.4-1-1zm-4 0c0-.6.4-1 1-1 .5 0 1 .4 1 1 0 .5-.5 1-1 1-.6 0-1-.4-1-1zm-4 0c0-.6.4-1 1-1 .6 0 1 .4 1 1 0 .5-.4 1-1 1-.6 0-1-.4-1-1z"/><path d="m25.6 121.4h2v4h-2z"/><path d="m25.6 131.4h2v4h-2z"/><path d="m29.6 127.4h4v2h-4z"/><path d="m19.6 127.4h4v2h-4z"/><path d="m142.6 40.4h2v4h-2z"/><path d="m142.6 50.4h2v4h-2z"/><path d="m146.6 46.4h4v2h-4z"/><path d="m136.6 46.4h4v2h-4z"/><path d="m166.6 76.4h2v4h-2z"/><path d="m166.6 86.4h2v4h-2z"/><path d="m170.6 82.4h4v2h-4z"/><path d="m160.6 82.4h4v2h-4z"/></g><circle cx="25.6" cy="163.4" fill="#f58e70" r="3"/><circle cx="133.6" cy="79.4" fill="#ffd15d" r="3"/><circle cx="37.6" cy="55.4" fill="#ffd15d" r="3"/><circle cx="179.6" cy="151.4" fill="#5fe0ed" r="3"/><path d="m81 96.9h31.8v9.4h-31.8z" fill="#f58e70"/><path d="m81.9 105.6h29.8v-8.1h-29.8zm31.8 2h-33.8v-12.1h33.8z" fill="#48515a"/></g></svg>