<svg enable-background="new 0 0 193 193" viewBox="0 0 193 193" xmlns="http://www.w3.org/2000/svg" xmlns:xlink="http://www.w3.org/1999/xlink"><clipPath id="a"><path d="m0 0h193v193h-193z"/></clipPath><g clip-path="url(#a)"><path d="m109 68.7c2.9 7.9 8 14.6 14.7 19.5 1.5-1.6 2.5-3.7 2.7-6-6.9-3-12.9-7.6-17.4-13.5z" fill="#dfe0e0"/><path d="m181.9 28.9c1.6 4.5 2.5 9.4 2.5 14.4 0 23.2-18.8 42-42 42-2.1 0-4.2-.2-6.2-.5-2.4 2.6-5.5 4.6-9 5.6 1.7 1 3.4 1.9 5.2 2.6-.5 5.2-4.8 9.2-10.1 9.2h5.1c5.9 0 11.2-2.5 14.9-6.5 2 .3 4.1.5 6.2.5 23.2 0 42-18.8 42-42-.1-9.5-3.2-18.3-8.6-25.3z" fill="#dfe0e0"/><path d="m77.2 80.9c.3 1.2.3 2.4 0 3.6l-4.6 19.1c0 2.8 2.3 5.1 5.1 5.1h10c-2.8 0-5.1-2.3-5.1-5.1l4.6-19.1c.3-1.2.3-2.4 0-3.6l-2.1-8c-1.4-5.9-6.6-9.9-12.6-9.9v4.7c1.2 1.5 2.2 3.2 2.7 5.2z" fill="#dfe0e0"/><path d="m115.2 123.9h.4c4.3 0 7.8-3.6 7.6-8-.2-4.1-3.9-7.2-8-7.2h-10c4.1 0 7.8 3.1 8 7.2.2 4.4-3.3 8-7.6 8h-.4c4.1 0 7.8 3.1 8 7.2s-2.9 7.6-6.9 8c-.2 0-3 0-3.3 0 4.7 0 8.3 4.2 7.5 9-.6 3.6-4 6.1-7.7 6.2v.4c3.2 1 5.4 4.1 5.2 7.6-.2 4.1-3.9 7.2-8 7.2h5c4.1 0 7.8-3.1 8-7.2.2-4.4-3.3-8-7.6-8h7.2c3.8 0 7.3-2.5 7.9-6.2.9-4.8-2.8-9-7.5-9h3.3c4-.4 7.1-3.9 6.9-8s-3.9-7.2-8-7.2z" fill="#dfe0e0"/><path d="m115.6 124.9h-12.7c-.6 0-1-.4-1-1s.4-1 1-1h12.7c.6 0 1 .4 1 1s-.4 1-1 1z" fill="#48515a"/><path d="m115.6 140.1h-12.7c-.6 0-1-.4-1-1s.4-1 1-1h12.7c.6 0 1 .4 1 1s-.4 1-1 1z" fill="#48515a"/><path d="m105.5 155.4h-2.5c-.6 0-1-.4-1-1s.4-1 1-1h2.5c.6 0 1 .4 1 1 0 .5-.5 1-1 1z" fill="#48515a"/><path d="m95.8 116.9c-.3 0-.5-.1-.7-.3s-.3-.4-.3-.7.1-.5.3-.7c.4-.4 1-.4 1.4 0 .2.2.3.4.3.7s-.1.5-.3.7-.4.3-.7.3z" fill="#48515a"/><path d="m95.8 132.1c-.3 0-.5-.1-.7-.3s-.3-.4-.3-.7.1-.5.3-.7c.4-.4 1-.4 1.4 0 .2.2.3.4.3.7s-.1.5-.3.7-.4.3-.7.3z" fill="#48515a"/><path d="m95.8 147.4c-.3 0-.5-.1-.7-.3s-.3-.4-.3-.7c0-.1 0-.3.1-.4 0-.1.1-.2.2-.3.4-.4 1-.4 1.4 0 .1.1.2.2.2.3s.1.2.1.4c0 .3-.1.5-.3.7s-.4.3-.7.3z" fill="#48515a"/><path d="m.6 106.2h33.9v69.1h-33.9z" fill="#5fe0ed"/><g fill="#48515a"><path d="m125.4 32.2h34v2h-34z"/><path d="m125.4 36.4h34v2h-34z"/><path d="m95.8 162.4c-.3 0-.5-.1-.7-.3s-.3-.4-.3-.7.1-.5.3-.7c.4-.4 1-.4 1.4 0 .2.2.3.4.3.7s-.1.5-.3.7-.4.3-.7.3z"/><path d="m27.9 168.3c-2.2 0-4-1.8-4-4s1.8-4 4-4 4 1.8 4 4-1.8 4-4 4zm0-6c-1.1 0-2 .9-2 2s.9 2 2 2 2-.9 2-2-.9-2-2-2z"/><path d="m27.9 162c-.6 0-1-.4-1-1v-8.7c0-.6.4-1 1-1s1 .4 1 1v8.7c0 .6-.5 1-1 1z"/><path d="m121.4 92.3h-5.1c-.6 0-1-.4-1-1s.4-1 1-1c4.5 0 8.3-3.2 9-7.6-15.7-6.8-25.9-22.2-25.9-39.4 0-23.7 19.3-43 43-43s43 19.3 43 43-19.3 43-43 43c-1.9 0-3.9-.1-5.9-.4-3.9 4.1-9.4 6.4-15.1 6.4zm21-90c-22.6 0-41 18.4-41 41 0 16.6 9.9 31.5 25.3 37.9.4.2.7.6.6 1-.3 3.4-2.1 6.3-4.6 8.1 4.9-.3 9.3-2.5 12.7-6.1.2-.2.6-.4.9-.3 2 .3 4.1.5 6.1.5 22.6 0 41-18.4 41-41s-18.3-41.1-41-41.1z"/><path d="m125.4 40.4h34v2h-34z"/><path d="m150.6 57.7-3.8-3.8 1.5-1.4 2.3 2.4 9.1-9.1 1.5 1.4z"/><path d="m132.4 47.6h2v11.3h-2z" transform="matrix(.7071 -.7071 .7071 .7071 1.4059 109.9675)"/><path d="m127.8 52.3h11.3v2h-11.3z" transform="matrix(.7071 -.7071 .7071 .7071 1.4039 109.9628)"/><path d="m141.4 61.3h-16v-16h16zm-14-2h12v-12h-12z"/><path d="m159.4 61.3h-16v-16h12.9v2h-10.9v12h12v-6.9h2z"/></g><path d="m154.3 192.2c-.2 0-.5 0-.8 0-5.1-.2-9.8-2.4-13.3-6.1-3.5-3.8-5.3-8.6-5.1-13.7.1-2.8.8-5.5 2.1-8l-1.9-11.3 11.4 2.4c2.6-1.1 5.3-1.6 8.2-1.5 10.5.4 18.8 9.3 18.4 19.9-.3 10.2-8.8 18.3-19 18.3zm-16.4-36.6 1.5 9-.2.3c-1.2 2.3-1.9 4.8-2 7.5-.2 4.6 1.4 8.9 4.5 12.3s7.3 5.3 11.9 5.5c9.4.4 17.4-7 17.8-16.5.4-9.4-7-17.4-16.5-17.8-2.6-.1-5.2.4-7.6 1.4l-.3.1z" fill="#475059"/><path d="m163.2 174.2c.7-.9 1.2-2.1 1.2-3.4 0-3-2.4-5.5-5.5-5.5-1.9 0-3.5.9-4.5 2.4-1-1.4-2.6-2.4-4.5-2.4-3 0-5.5 2.4-5.5 5.5 0 1.3.5 2.5 1.2 3.4.2.3 8.7 9 8.7 9s8.7-8.8 8.9-9z" fill="#f58e70"/><path d="m154.4 184.7-.7-.7c-3.2-3.3-8.6-8.9-8.8-9.1-.9-1.2-1.4-2.6-1.4-4 0-3.6 2.9-6.5 6.5-6.5 1.7 0 3.3.7 4.5 1.8 1.2-1.2 2.8-1.8 4.5-1.8 3.6 0 6.5 2.9 6.5 6.5 0 1.5-.5 2.9-1.4 4-.4.5-5.7 5.9-8.8 9.1zm-4.5-18.4c-2.5 0-4.5 2-4.5 4.5 0 1 .3 2 1 2.8.3.3 4.7 4.8 8 8.2 3.3-3.4 7.6-7.8 8-8.2.6-.8 1-1.8 1-2.8 0-2.5-2-4.5-4.5-4.5-1.5 0-2.8.7-3.7 1.9l-.8 1.2-.8-1.2c-.8-1.2-2.2-1.9-3.7-1.9z" fill="#f58e70"/><path d="m66.3 24.2 2.7 5.4 5.9.9c1.6.2 2.3 2.3 1.1 3.4l-4.3 4.1 1 5.9c.3 1.6-1.4 2.9-2.9 2.1l-5.3-2.8-5.3 2.8c-1.5.8-3.2-.5-2.9-2.1l1-5.9-4.3-4.2c-1.2-1.2-.5-3.2 1.1-3.4l5.9-.9 2.7-5.4c.8-1.4 2.9-1.4 3.6.1z" fill="#ffd15d"/><path d="m58.3 46.8c-.5 0-1-.2-1.5-.5-.8-.6-1.2-1.5-1-2.4l1-5.6-4.1-4c-.7-.7-.9-1.7-.6-2.6s1.1-1.6 2-1.7l5.7-.8 2.5-5.1c.4-.9 1.3-1.4 2.2-1.4 1 0 1.8.5 2.2 1.4l2.5 5.1 5.8.8c.9.1 1.7.8 2 1.7s.1 1.9-.6 2.6l-4.1 4 1 5.6c.2.9-.2 1.9-1 2.4-.8.6-1.8.6-2.6.2l-5.1-2.7-5.1 2.7c-.4.2-.8.3-1.2.3zm6.2-23.2c-.6 0-1.1.3-1.3.8l-2.8 5.6-6.2.9c-.6.1-1 .5-1.2 1-.2.6 0 1.1.4 1.5l4.5 4.4-1.1 6.2c-.1.6.1 1.1.6 1.5.5.3 1.1.4 1.6.1l5.5-2.9 5.5 2.9c.5.3 1.1.2 1.6-.1s.7-.9.6-1.5l-1.1-6.2 4.5-4.4c.4-.4.6-1 .4-1.5-.2-.6-.6-.9-1.2-1l-6.2-.9-2.8-5.6c-.2-.5-.7-.8-1.3-.8z" fill="#ffd15d"/><path d="m173.9 150.3c-10.2 0-18.5-8.3-18.5-18.5s8.3-18.5 18.5-18.5 18.5 8.3 18.5 18.5-8.3 18.5-18.5 18.5zm0-35c-9.1 0-16.5 7.4-16.5 16.5s7.4 16.5 16.5 16.5 16.5-7.4 16.5-16.5-7.4-16.5-16.5-16.5z" fill="#f58e70"/><path d="m169.6 126.9c-.4-.7-1.1-1.1-1.8-1.1-.8 0-1.4.4-1.8 1.1l-1.7-1c.7-1.3 2.1-2.1 3.5-2.1s2.8.8 3.5 2.1z" fill="#4f4f4f"/><path d="m181.9 126.9c-.4-.7-1.1-1.1-1.8-1.1-.8 0-1.4.4-1.8 1.1l-1.7-1c.7-1.3 2.1-2.1 3.5-2.1s2.8.8 3.5 2.1z" fill="#4f4f4f"/><path d="m173.9 143.8c-6.1 0-11-4.9-11-11v-1h22v1c0 6.1-4.9 11-11 11zm-8.9-10c.5 4.5 4.3 8 8.9 8s8.4-3.5 8.9-8z" fill="#4f4f4f"/><path d="m49.7 81.8-1.9-.6.3-1-1.3-.4c-1.5-.5-2.5-1.9-2.5-3.5s1-3 2.5-3.5l1.3-.4-.7-2.2-1.3.4c-1.5.5-3.2 0-4.1-1.3-1-1.3-.9-3 0-4.3l.8-1.1-1.8-1.3-.8 1.1c-1 1.3-2.6 1.8-4.1 1.3s-2.5-1.9-2.5-3.5v-1.3h-2.3v1.3c0 1.6-1 3-2.5 3.5s-3.2 0-4.1-1.3l-.8-1.1-1.8 1.3.8 1.1c1 1.3.9 3 0 4.3-1 1.3-2.6 1.8-4.1 1.3l-1.3-.4-.3 1-1.9-.6 1-2.9 3.2 1c.9.3 1.5-.1 1.9-.6.3-.5.5-1.2 0-2l-2-2.7 5.1-3.7 2 2.7c.5.7 1.3.8 1.9.6s1.2-.7 1.2-1.6v-3.3h6.3v3.3c0 .9.6 1.4 1.2 1.6s1.3.1 1.9-.6l2-2.7 5.1 3.7-2 2.7c-.5.7-.3 1.5 0 2s1 .9 1.9.6l3.2-1 1.9 6-3.2 1c-.9.3-1.2 1-1.2 1.6s.3 1.3 1.2 1.6l3.2 1z" fill="#475059"/><path d="m40.5 78.9-1.9-.6c.5-1.6.4-3.4-.4-4.9s-2.1-2.7-3.8-3.2c-3.4-1.1-7.1.8-8.2 4.2l-1.9-.6c1.4-4.4 6.2-6.9 10.7-5.4 2.2.7 3.9 2.2 4.9 4.2 1.2 1.8 1.3 4.1.6 6.3z" fill="#f58e70"/><path d="m32.5 84.6c-.9 0-1.8-.1-2.6-.4-4.4-1.4-6.9-6.2-5.4-10.7l1.9.6c-1.1 3.4.8 7.1 4.1 8.2 3.4 1.1 7.1-.8 8.2-4.1l1.9.6c-.7 2.2-2.2 3.9-4.2 4.9-1.3.6-2.6.9-3.9.9z" fill="#f58e70"/><path d="m35.6 94.3h-6.3v-3.3c0-.9-.6-1.4-1.2-1.6s-1.3-.1-1.9.6l-2 2.7-4.9-3.7 2-2.7c.5-.7.3-1.5 0-2s-1-.9-1.9-.6l-3.2 1-1.9-6 3.2-1c.9-.3 1.2-1 1.2-1.6s-.3-1.3-1.2-1.6l-3.2-1 1.1-3.3 1.9.6-.4 1.4 1.3.4c1.5.5 2.5 1.9 2.5 3.5s-1 3-2.5 3.5l-1.4.4.7 2.2 1.3-.4c1.5-.5 3.2 0 4.1 1.3 1 1.3.9 3 0 4.3l-.8 1.1 1.8 1.3.8-1.1c1-1.3 2.6-1.8 4.1-1.3s2.5 1.9 2.5 3.5v1.3h2.3v-1.3c0-1.6 1-3 2.5-3.5s3.2 0 4.1 1.3l.8 1.1 1.8-1.3-.8-1.1c-1-1.3-.9-3 0-4.3 1-1.3 2.6-1.8 4.1-1.3l1.3.4.5-1.5 1.9.6-1.1 3.4-3.2-1c-.8-.3-1.5.1-1.9.6-.3.5-.5 1.2 0 2l2 2.7-5.1 3.7-2-2.7c-.5-.7-1.3-.8-1.9-.6s-1.2.7-1.2 1.6z" fill="#475059"/><circle cx="32.4" cy="76.3" fill="#ffd15d" r="4"/><path d="m32.4 80.8c-2.5 0-4.5-2-4.5-4.5s2-4.5 4.5-4.5 4.5 2 4.5 4.5-2 4.5-4.5 4.5zm0-8c-1.9 0-3.5 1.6-3.5 3.5s1.6 3.5 3.5 3.5 3.5-1.6 3.5-3.5-1.5-3.5-3.5-3.5z" fill="#ffd15d"/><path d="m26.4 16.3h2v4h-2z" fill="#48515a"/><path d="m26.4 26.3h2v4h-2z" fill="#48515a"/><path d="m30.4 22.3h4v2h-4z" fill="#48515a"/><path d="m20.4 22.3h4v2h-4z" fill="#48515a"/><path d="m62.8 166.4c-3.5-.8-6.9-1.7-10.3-2.8-.1 0-.2-.1-.3-.1h-9.2v2h9c3.8 1.3 7.8 2.3 11.7 3.1z" fill="#48515a"/><path d="m124.2 131.1c-.2-3-2-5.7-4.7-7.1.9-.4 1.7-1 2.4-1.8 1.6-1.7 2.5-4 2.4-6.4-.2-4.5-4.3-8.2-9-8.2h-27.6c-2.2 0-4-1.8-4.1-4l4.6-19c.3-1.3.3-2.8 0-4.1l-2.1-8c-1.6-6.2-7.2-10.5-13.6-10.5-.6 0-1 .4-1 1v15l-11.4 29.6c-.6 1.6-2.1 2.6-3.8 2.6h-13.3v2h13.3c2.5 0 4.8-1.6 5.7-3.9l11.4-29.7c0-.1.1-.2.1-.4v-14.2c5.1.4 9.4 4 10.7 9l2.1 8c.3 1 .3 2.1 0 3.1l-4.6 19.1v.2c0 3.4 2.7 6.1 6.1 6.1h27.5c3.7 0 6.9 2.8 7 6.3.1 1.8-.5 3.6-1.8 4.9s-3 2.1-4.8 2.1h-.4c-.6 0-1 .4-1 1s.4 1 1 1c3.7 0 6.9 2.8 7 6.3.2 3.5-2.4 6.6-5.9 6.9-.2 0-2.2 0-2.8 0h-.3c-.6 0-1.1.4-1.1 1s.4 1 1 1h.1c1.9 0 3.7.9 5 2.4s1.8 3.5 1.4 5.5c-.5 3.1-3.5 5.4-6.9 5.4h-7.2c-.6 0-1 .4-1 1s.4 1 1 1c1.8 0 3.5.7 4.8 2.1 1.3 1.3 1.9 3.1 1.8 4.9-.2 3.5-3.3 6.3-7 6.3h-21.7c-1.6 0-3.2-.1-4.8-.1l5 2.1h21.5c4.7 0 8.8-3.7 9-8.2.1-2.4-.7-4.7-2.4-6.4-.2-.2-.5-.5-.7-.7h1.7c4.4 0 8.2-3 8.9-7 .5-2.6-.2-5.2-1.9-7.1-.5-.5-1-1-1.5-1.4 3.6-1.2 6.2-4.7 5.9-8.7z" fill="#48515a"/><path d="m72.6 192.7-14-33.9 32.1 13.7-8.8 5.3 8 8-4.2 4.2-7.8-7.8zm-10.3-30.1 10.5 25.3 4.5-9 8.4 8.4 1.4-1.4-8.4-8.4 7.7-4.6z" fill="#48515a"/><circle cx="147.4" cy="107.3" fill="#5fe0ed" r="3"/><circle cx="182.4" cy="92.3" fill="#5fe0ed" r="2"/><path d="m162.4 90.3h2v4h-2z" fill="#48515a"/><path d="m162.4 100.3h2v4h-2z" fill="#48515a"/><path d="m166.4 96.3h4v2h-4z" fill="#48515a"/><path d="m156.4 96.3h4v2h-4z" fill="#48515a"/><path d="m92.4 6.3h2v4h-2z" fill="#48515a"/><path d="m92.4 16.3h2v4h-2z" fill="#48515a"/><path d="m96.4 12.3h4v2h-4z" fill="#48515a"/><path d="m86.4 12.3h4v2h-4z" fill="#48515a"/><path d="m133.4 135.7c-.4 0-.9-.1-1.2-.4-.6-.5-1-1.2-.8-2l.5-2.7-1.9-1.9c-.6-.6-.8-1.4-.5-2.1.2-.8.9-1.3 1.7-1.4l2.7-.4 1.2-2.4c.4-.7 1.1-1.2 1.9-1.2s1.5.4 1.9 1.2l1.2 2.4 2.7.4c.8.1 1.4.7 1.7 1.4.2.8 0 1.6-.5 2.1l-1.9 1.9.5 2.7c.1.8-.2 1.6-.8 2-.6.5-1.5.5-2.2.2l-2.4-1.3-2.4 1.3c-.7.2-1.1.2-1.4.2zm3.4-3.6c.2 0 .3 0 .5.1l2.8 1.5 1.1-.2-1 .2-.5-3.2c-.1-.3.1-.7.3-.9l2.3-2.2.1-1.1-.1 1-3.2-.5c-.3 0-.6-.3-.8-.5l-1.4-2.9s0 0-.1 0l-1.5 2.9c-.1.3-.4.5-.8.5l-3.2.5-.7.8.7-.7 2.3 2.2c.2.2.3.6.3.9l-.5 3.2.1.1 2.8-1.5c.1-.1.3-.2.5-.2z" fill="#48515a"/><path d="m43.4 171.3h-9v-2h7v-60.2h-7v-2h9z" fill="#48515a"/></g></svg>