<svg enable-background="new 0 0 192.1 154" viewBox="0 0 192.1 154" xmlns="http://www.w3.org/2000/svg"><path d="m10 154h154v-154zm125-29h-55l55-55z" fill="#ffd15d"/><g fill="#48515a"><path d="m154 148h2v6h-2z"/><path d="m142 148h2v6h-2z"/><path d="m130 148h2v6h-2z"/><path d="m118 148h2v6h-2z"/><path d="m106 148h2v6h-2z"/><path d="m94 148h2v6h-2z"/><path d="m82 148h2v6h-2z"/><path d="m70 148h2v6h-2z"/><path d="m58 148h2v6h-2z"/><path d="m46 148h2v6h-2z"/><path d="m34 148h2v6h-2z"/><path d="m22 148h2v6h-2z"/><path d="m158 144h6v2h-6z"/><path d="m158 132h6v2h-6z"/><path d="m158 120h6v2h-6z"/><path d="m158 108h6v2h-6z"/><path d="m158 96h6v2h-6z"/><path d="m158 84h6v2h-6z"/><path d="m158 72h6v2h-6z"/><path d="m158 60h6v2h-6z"/><path d="m158 48h6v2h-6z"/><path d="m158 36h6v2h-6z"/><path d="m158 24h6v2h-6z"/><path d="m158 12h6v2h-6z"/><path d="m26.6 110.4 4.1-11.2 74.7-74.7c1.9-2 5.1-2 7.1 0s2 5.1 0 7.1l-74.7 74.7zm5.8-10.1-2.5 6.7 6.7-2.5 74.4-74.4c1.2-1.2 1.2-3.1 0-4.2s-3.1-1.1-4.2 0z"/><path d="m103 29h2v8h-2z" transform="matrix(.7071 -.7071 .7071 .7071 7.1256 83.2108)"/><path d="m20.3 66.7h98v2h-98z" transform="matrix(.7071 -.7071 .7071 .7071 -27.5377 68.8529)"/><path d="m6 61h2v4h-2z"/><path d="m6 71h2v4h-2z"/><path d="m10 67h4v2h-4z"/><path d="m0 67h4v2h-4z"/><path d="m184.1 131h2v4h-2z"/><path d="m184.1 141h2v4h-2z"/><path d="m188.1 137h4v2h-4z"/><path d="m178.1 137h4v2h-4z"/><path d="m126.1.9h2v4h-2z"/><path d="m126.1 10.9h2v4h-2z"/><path d="m130.1 6.9h4v2h-4z"/><path d="m120.1 6.9h4v2h-4z"/></g><circle cx="36" cy="68" fill="#5fe0ed" r="4"/><circle cx="12" cy="118" fill="#f58e70" r="2"/><circle cx="178" cy="80" fill="#f58e70" r="2"/><path d="m49.4 45.6-6.3-2 1.1-3.3c.3-1-.2-2-1.2-2.3-.6-.2-1.2-.1-1.7.3l-2.8 2.1-3.8-5.3 2.8-2.1c.8-.6 1-1.8.4-2.6-.4-.5-.9-.8-1.5-.8h-3.5v-6.6h3.5c1 0 1.9-.8 1.9-1.9 0-.6-.3-1.2-.8-1.5l-2.8-2.1 3.9-5.3 2.8 2.1c.8.6 2 .4 2.6-.4.4-.5.4-1.1.3-1.7l-1.1-3.3 6.3-2 1.1 3.3c.2.8 1 1.3 1.8 1.3.8 0 1.5-.5 1.8-1.3l1.1-3.3 6.3 2-1.1 3.3c-.3 1 .2 2 1.2 2.3.6.2 1.2.1 1.7-.3l2.8-2.1 3.8 5.3-3 2.1c-.8.6-1 1.8-.4 2.6.4.5.9.8 1.5.8h3.5v6.6h-3.5c-1 0-1.9.8-1.9 1.9 0 .6.3 1.2.8 1.5l2.8 2.1-3.8 5.2-2.8-2.1c-.8-.6-2-.4-2.6.4-.4.5-.4 1.1-.3 1.7l1.1 3.3-6.3 2-1.1-3.3c-.2-.8-1-1.3-1.8-1.3-.8 0-1.5.5-1.8 1.3zm-3.7-3.3 2.5.8.5-1.4c.5-1.6 2-2.7 3.7-2.7 1.7 0 3.2 1.1 3.7 2.7l.5 1.4 2.5-.8-.5-1.4c-.7-2 .5-4.2 2.5-4.9 1.2-.4 2.5-.2 3.5.5l1.2.9 1.5-2.1-1.2-.9c-1.7-1.3-2.1-3.7-.9-5.4.7-1 1.9-1.6 3.1-1.6h1.5v-2.6h-1.5c-2.1 0-3.9-1.7-3.9-3.9 0-1.2.6-2.4 1.6-3.1l1.2-.9-1.5-2-1.2.9c-1.7 1.3-4.1.9-5.4-.9-.7-1-.9-2.3-.6-3.5l.5-1.4-2.5-.8-.5 1.5c-.5 1.6-2 2.7-3.7 2.7-1.7 0-3.2-1.1-3.7-2.7l-.5-1.4-2.5.8.5 1.4c.7 2-.4 4.2-2.5 4.9-1.2.4-2.5.2-3.5-.5l-1.1-1-1.5 2.1 1.2.9c1.7 1.3 2.1 3.7.9 5.4-.7 1-1.9 1.6-3.1 1.6h-1.5v2.6h1.5c2.1 0 3.9 1.7 3.9 3.9 0 1.2-.6 2.4-1.6 3.1l-1.2.9 1.5 2 1.2-.9c1.7-1.3 4.1-.9 5.4.9.7 1 .9 2.3.5 3.5z" fill="#48515a"/><path d="m52.3 29.9c-2.1 0-3.7-1.7-3.7-3.8s1.7-3.7 3.8-3.7 3.7 1.7 3.7 3.8c0 .8-.3 1.6-.7 2.2-.8.9-1.9 1.5-3.1 1.5zm0-5.5c-1 0-1.8.8-1.8 1.7 0 1 .8 1.8 1.7 1.8 1 0 1.8-.8 1.8-1.7 0-.6-.3-1.1-.7-1.4-.3-.3-.6-.4-1-.4z" fill="#f58e70"/><path d="m51.5 37.7c-.5 0-1-.5-.9-1.1 0-.6.5-1 1.1-.9.5 0 1 .5.9 1.1-.1.5-.5.9-1.1.9zm2.9-1.1c-.2-.5.1-1.1.7-1.2.5-.2 1.1.1 1.2.7.2.5-.1 1.1-.7 1.2-.1 0-.2 0-.3 0-.3 0-.7-.3-.9-.7zm-7.1.1c-.5-.2-.7-.8-.5-1.3.2-.5.8-.7 1.3-.5.5.2.7.8.5 1.3-.2.3-.5.6-.9.6-.1-.1-.2-.1-.4-.1zm10.8-1.6c-.3-.4-.3-1.1.2-1.4.4-.3 1-.3 1.4.1.3.4.3 1.1-.2 1.4-.2.1-.4.2-.6.2-.4.1-.6 0-.8-.3zm-14.2-.9c-.4-.4-.4-1 0-1.4.4-.4 1-.4 1.4 0 .4.4.4 1 0 1.4-.2.2-.4.3-.7.3-.3 0-.5-.1-.7-.3zm17-1.8c-.5-.3-.6-.9-.4-1.4.3-.5.9-.6 1.4-.4.5.3.6.9.4 1.4-.2.3-.5.5-.9.5-.2.1-.3 0-.5-.1zm-19.3-1.8c-.2-.5 0-1.1.5-1.3.5-.2 1.1 0 1.3.5.2.5 0 1.1-.5 1.3-.1 0-.2.1-.4.1-.4 0-.8-.2-.9-.6zm21-1.7c-.5-.1-.9-.6-.8-1.1.1-.5.6-.9 1.1-.8.5.1.9.6.8 1.2-.1.5-.5.8-1 .8 0-.1-.1-.1-.1-.1zm-21.9-2.5c0-.6.4-1 1-1 .6 0 1 .4 1 1 0 .6-.4 1-1 1-.5 0-1-.4-1-1zm21-2.2c-.1-.5.2-1.1.8-1.2.5-.1 1.1.2 1.2.8.1.5-.2 1.1-.8 1.2-.1 0-.1 0-.2 0-.5 0-.9-.3-1-.8zm-19.7-.7c-.5-.2-.8-.8-.6-1.3.2-.5.8-.8 1.3-.6.5.2.8.8.6 1.3-.1.4-.5.7-.9.7-.2-.1-.3-.1-.4-.1zm18.3-2.6c-.3-.5-.2-1.1.3-1.4.5-.3 1.1-.2 1.4.3.3.5.2 1.1-.3 1.4-.2.1-.3.2-.5.2-.3 0-.7-.2-.9-.5zm-16.7-1c-.4-.4-.5-1-.1-1.4.4-.4 1-.5 1.4-.1.4.4.5 1 .1 1.4-.2.2-.5.3-.8.3-.1.1-.4 0-.6-.2zm14.3-1.5c-.5-.3-.6-1-.2-1.4.3-.4.9-.6 1.4-.2.4.3.5.9.2 1.4-.2.3-.5.4-.8.4-.2 0-.4-.1-.6-.2zm-11.4-1.2c-.3-.5-.1-1.1.4-1.3.5-.3 1.1-.1 1.3.4.3.5.1 1.1-.4 1.4-.1.1-.3.1-.5.1-.3 0-.7-.2-.8-.6zm8.2-.3c-.5-.1-.9-.7-.7-1.2.1-.5.7-.9 1.2-.7.5.1.9.7.7 1.2-.1.4-.5.7-1 .8 0-.1-.1-.1-.2-.1zm-4.6-1.2c-.1-.5.3-1 .9-1.1.5-.1 1 .3 1.1.9.1.5-.3 1-.9 1.1h-.1c-.5 0-1-.3-1-.9z" fill="#48515a"/></svg>