<svg enable-background="new 0 0 193 193" viewBox="0 0 193 193" xmlns="http://www.w3.org/2000/svg" xmlns:xlink="http://www.w3.org/1999/xlink"><clipPath id="a"><path d="m0 0h193v193h-193z"/></clipPath><g clip-path="url(#a)"><path d="m88.5 137.5h16v12h-16z" fill="#dededd"/><path d="m98.5 137.5h6v50h-6z" fill="#dededd"/><path d="m16.5 29.5v100h160v-100zm3 97v-87.8l1.2-6.2h27.8l16.1 94zm154 0h-47-61.6l17.8-94h27.8l16.1 94 17.8-94h29.2v94z" fill="#dededd"/><path d="m177.5 130.5h-162v-102h162zm-160-2h158v-98h-158z" fill="#48515a"/><path d="m22.5 15.5h22v2h-22z" fill="#48515a"/><path d="m41.5 15.5h-2v-1.6l-1.4-1.4h-9.2l-1.4 1.4v1.6h-2v-2.4l2.6-2.6h10.8l2.6 2.6z" fill="#48515a"/><path d="m32.5 7.5h2v4h-2z" fill="#48515a"/><path d="m32.8 25.2h2v4.2h-2z" fill="#48515a"/><path d="m95.8 25.2h2v4.2h-2z" fill="#48515a"/><path d="m85.5 15.5h22v2h-22z" fill="#48515a"/><path d="m104.5 15.5h-2v-1.6l-1.4-1.4h-9.1l-1.5 1.4v1.6h-2v-2.4l2.6-2.6h10.9l2.5 2.6z" fill="#48515a"/><path d="m95.5 7.5h2v4h-2z" fill="#48515a"/><path d="m156.8 25.2h2v4.2h-2z" fill="#48515a"/><path d="m22.5 25.5h22v-8h-22zm2-5h18v2h-18z" fill="#ffd15d"/><path d="m85.5 25.5h22v-8h-22zm2-5h18v2h-18z" fill="#ffd15d"/><path d="m146.6 17.5v8h22v-8zm20 5h-18v-2h18z" fill="#ffd15d"/><g fill="#48515a"><path d="m146.6 15.5h22v2h-22z"/><path d="m165.6 15.5h-2v-1.6l-1.4-1.4h-9.2l-1.4 1.4v1.6h-2v-2.4l2.6-2.6h10.8l2.6 2.6z"/><path d="m156.6 7.5h2v4h-2z"/><path d="m8.5 136.5h178v2h-178z"/><path d="m8.5 128.5h178v2h-178z"/><path d="m11.5 129.5h2v8h-2z"/><path d="m181.5 129.5h2v8h-2z"/><path d="m170.2 129.5h2v8h-2z"/><path d="m158.8 129.5h2v8h-2z"/><path d="m147.5 129.5h2v8h-2z"/><path d="m136.2 129.5h2v8h-2z"/><path d="m113.5 129.5h2v8h-2z"/><path d="m124.8 129.5h2v8h-2z"/><path d="m102.2 129.5h2v8h-2z"/><path d="m90.8 129.5h2v8h-2z"/><path d="m79.5 129.5h2v8h-2z"/><path d="m68.2 129.5h2v8h-2z"/><path d="m56.8 129.5h2v8h-2z"/><path d="m45.5 129.5h2v8h-2z"/><path d="m34.2 129.5h2v8h-2z"/><path d="m22.8 129.5h2v8h-2z"/><path d="m105.5 187.5h-2v-49h-14v49h-2v-51h18z"/><path d="m47 103.7c-.6 0-1.2-.2-1.7-.5-.9-.6-1.3-1.7-1.1-2.8l2.7-15.4-11.2-10.9c-.8-.8-1-1.9-.7-2.9s1.2-1.8 2.3-1.9l15.4-2.3 6.9-14c.5-1 1.4-1.6 2.5-1.6s2.1.6 2.5 1.6l6.9 14 15.5 2.2c1.1.2 1.9.9 2.3 1.9.3 1 .1 2.1-.7 2.9l-11.1 11 2.6 15.4c.2 1.1-.2 2.1-1.1 2.8s-2 .7-3 .2l-13.8-7.3-13.8 7.3c-.5.2-.9.3-1.4.3zm15.2-50.3c-.2 0-.5 0-.7.5l-7.4 15-16.5 2.4c-.5.1-.6.4-.7.6 0 .1-.1.5.2.8l11.9 11.6-2.8 16.4c-.1.5.2.7.3.8s.5.3.9.1l14.8-7.8 14.8 7.8c.4.2.7 0 .9-.1s.4-.3.3-.8l-2.8-16.4 11.9-11.6c.3-.3.3-.7.2-.8 0-.1-.2-.5-.7-.6l-16.5-2.4-7.4-15c-.2-.4-.6-.5-.7-.5z"/></g><path d="m62.5 91.6 13.6 7.1-2.6-15.1 11-10.7-15.2-2.2-6.8-13.8-6.8 13.8-15.2 2.2 11 10.7-2.6 15.1z" fill="#ffd15d"/><path d="m142.5 120.5h26v2h-26z" fill="#48515a"/><path d="m112 110.5h-3.9c-.6 0-1-.4-1-1s.4-1 1-1c1.5 0 2.9-.5 4.1-1.4.7-.6 1.3-1.3 1.8-2.1.6-1 .8-2.1.8-3.3v-.4c-6.1-2-11.4-6-14.9-11.4-4.2-6.5-5.6-14.3-3.7-21.9 1.8-7.6 6.6-13.9 13.4-17.8 12.8-7.4 29.2-3.5 37.4 8.8 5.8 8.7 6.3 19.9 1.3 29.1l-.2.4c-1.9 3.4-4.5 6.2-7.6 8.6l-1.6 1.1c-3.9 2.5-8.3 4-12.9 4.4-2.9 4.9-8.3 7.9-14 7.9zm11.4-62c-4.4 0-8.8 1.1-12.8 3.4-6.3 3.6-10.7 9.5-12.4 16.5s-.5 14.3 3.5 20.4c3.4 5.2 8.5 9 14.5 10.8.4.1.7.5.7 1v1.1c0 1.5-.4 3-1.1 4.2-.5.9-1.2 1.7-2 2.4 4.5-.6 8.5-3.2 10.8-7.2.2-.3.5-.5.8-.5 4.4-.3 8.7-1.7 12.4-4.1l1.5-1.1c2.9-2.2 5.2-4.8 7-8l.2-.4c4.7-8.6 4.2-18.9-1.2-27-4.8-7.3-13.3-11.5-21.9-11.5z" fill="#48515a"/><path d="m139.6 71.5h-32c-.6 0-1-.4-1-1s.4-1 1-1h32c.6 0 1 .4 1 1s-.4 1-1 1z" fill="#48515a"/><path d="m139.6 75.5h-32c-.6 0-1-.4-1-1s.4-1 1-1h32c.6 0 1 .4 1 1s-.4 1-1 1z" fill="#48515a"/><path d="m134.5 79.5h-27c-.6 0-1-.4-1-1s.4-1 1-1h27c.6 0 1 .4 1 1s-.4 1-1 1z" fill="#48515a"/><path d="m69.3 70.7-6.8-13.8-6.8 13.8-.7.1 3.9 22.7 3.6-1.9 8.2 4.3 4.6-24.3z" fill="#f4a75b" opacity=".3"/><path d="m184.5 5.5h2v4h-2z" fill="#48515a"/><path d="m184.5 15.5h2v4h-2z" fill="#48515a"/><path d="m188.5 11.5h4v2h-4z" fill="#48515a"/><path d="m178.5 11.5h4v2h-4z" fill="#48515a"/><path d="m6.5 146.5h2v4h-2z" fill="#48515a"/><path d="m6.5 156.5h2v4h-2z" fill="#48515a"/><path d="m10.5 152.5h4v2h-4z" fill="#48515a"/><path d="m.5 152.5h4v2h-4z" fill="#48515a"/><path d="m68.5 165.5h2v4h-2z" fill="#48515a"/><path d="m68.5 175.5h2v4h-2z" fill="#48515a"/><path d="m72.5 171.5h4v2h-4z" fill="#48515a"/><path d="m62.5 171.5h4v2h-4z" fill="#48515a"/><circle cx="39.5" cy="164.5" fill="#ffd15d" r="3"/><circle cx="123.5" cy="150.5" fill="#ffd15d" r="1"/><circle cx="181.5" cy="58.5" fill="#ffd15d" r="1"/><circle cx="11.5" cy="42.5" fill="#ffd15d" r="3"/><path d="m181.1 169.1-1.9-.6.3-.9-1.2-.4c-1.5-.5-2.4-1.8-2.4-3.4s1-2.9 2.5-3.4l1.2-.4-.6-2-1.2.4c-1.5.5-3 0-4-1.3s-.9-2.9 0-4.2l.7-1-1.7-1.2-.7 1c-.9 1.3-2.5 1.8-4 1.3s-2.4-1.8-2.4-3.4v-1.2h-2.1v1.2c0 1.6-1 2.9-2.5 3.4s-3 0-4-1.3l-.7-1-1.7 1.2.7 1c.9 1.3.9 2.9 0 4.2s-2.5 1.8-4 1.3l-1.2-.4-.3.9-1.9-.6.9-2.8 3.1 1c.8.3 1.4-.1 1.7-.6.3-.4.5-1.1 0-1.8l-1.9-2.6 4.9-3.6 1.9 2.6c.5.7 1.2.7 1.7.6.5-.2 1.1-.6 1.1-1.5v-3.2h6.1v3.2c0 .8.6 1.3 1.1 1.5s1.2.1 1.7-.6l1.9-2.6 4.9 3.6-1.9 2.6c-.5.7-.3 1.4 0 1.8s.9.8 1.7.6l3.1-1 1.9 5.8-3.1 1c-.8.3-1.1.9-1.1 1.5s.3 1.2 1.1 1.5l3.1 1z" fill="#475059"/><path d="m172.4 166.4-1.9-.6c.5-1.6.4-3.2-.4-4.7s-2-2.5-3.6-3-3.2-.4-4.7.4c-1.5.7-2.5 2-3 3.6l-1.9-.6c.7-2.1 2.1-3.7 4-4.7s4.1-1.2 6.2-.5 3.7 2.1 4.7 4c1.1 1.8 1.2 4 .6 6.1z" fill="#475059"/><path d="m164.7 171.9c-.8 0-1.7-.1-2.5-.4-4.3-1.4-6.6-6-5.2-10.2l1.9.6c-1 3.2.7 6.7 3.9 7.7s6.7-.7 7.7-3.9l1.9.6c-1.1 3.4-4.3 5.6-7.7 5.6z" fill="#475059"/><path d="m167.7 181.1h-6.1v-3.2c0-.8-.6-1.3-1.1-1.5s-1.2-.1-1.7.6l-1.9 2.6-4.9-3.6 1.9-2.6c.5-.7.3-1.4 0-1.8s-.9-.8-1.7-.6l-3.1 1-1.9-5.8 3.1-1c.8-.3 1.1-.9 1.1-1.5s-.3-1.2-1.1-1.5l-3.1-1 1-3.2 1.9.6-.4 1.3 1.2.4c1.5.5 2.4 1.8 2.4 3.4s-1 2.9-2.5 3.4l-1.2.4.6 2 1.2-.4c1.5-.5 3 0 4 1.3.9 1.3.9 2.9 0 4.2l-.7 1 1.7 1.2.7-1c.9-1.3 2.5-1.8 4-1.3s2.4 1.8 2.4 3.4v1.2h2.1v-1.2c0-1.6 1-2.9 2.5-3.4s3 0 4 1.3l.7 1 1.7-1.2-.7-1c-.9-1.3-.9-2.9 0-4.2s2.5-1.8 4-1.3l1.2.4.5-1.4 1.9.6-1.1 3.3-3.1-1c-.8-.3-1.4.1-1.7.6-.3.4-.5 1.1 0 1.8l1.9 2.6-4.9 3.6-1.9-2.6c-.5-.7-1.2-.7-1.7-.6-.5.2-1.1.6-1.1 1.5z" fill="#475059"/></g></svg>