<svg enable-background="new 0 0 192 188" viewBox="0 0 192 188" xmlns="http://www.w3.org/2000/svg"><path d="m177 169h-164v-94h164zm-162-2h160v-90h-160z" fill="#475059"/><path d="m17 165h156v-86h-156z" fill="#ffd15d"/><g fill="#475059"><path d="m169 161h-148v-78h148zm-146-2h144v-74h-144z"/><path d="m39 161h-8v-78h8zm-6-2h4v-74h-4z"/><path d="m63 161h-8v-78h8zm-6-2h4v-74h-4z"/><path d="m87 161h-8v-78h8zm-6-2h4v-74h-4z"/><path d="m111 161h-8v-78h8zm-6-2h4v-74h-4z"/><path d="m135 161h-8v-78h8zm-6-2h4v-74h-4z"/><path d="m159 161h-8v-78h8zm-6-2h4v-74h-4z"/><path d="m103.2 29h-16v-16h16zm-14-2h12v-12h-12z"/><path d="m95.2 46c-3.9 0-7-3.1-7-7h2c0 2.8 2.2 5 5 5s5-2.2 5-5-2.2-5-5-5h-1v-6h2v4.1c3.8.6 6.5 4.1 5.9 7.9-.4 3.4-3.4 6-6.9 6z"/><path d="m90.7 0h2v14h-2z"/><path d="m97.3 0h2v14h-2z"/><path d="m173 76h-2v-1.3l-75.8-32.3-76.2 32.3v1.3h-2v-2.6l78.3-33.2 77.7 33.2z"/></g><path d="m91.3 17h8v8h-8z" fill="#dededd"/><path d="m157.3 51h-6.2l-2-4.6-2.2-1.2-5 .5-3.1-5.4 3-4.1v-2.5l-3-4.1 3.1-5.4 5 .5 2.2-1.2 2-4.6h6.2l2 4.6 2.2 1.2 5-.5 3.1 5.4-3 4.1v2.5l3 4.1-3.1 5.4-5-.5-2.2 1.2zm-4.9-2h3.6l1.8-4 3.3-1.9 4.4.5 1.8-3.1-2.6-3.5v-3.8l2.6-3.5-1.8-3.1-4.4.5-3.3-1.9-1.8-4h-3.6l-1.8 4-3.3 1.9-4.4-.5-1.8 3.1 2.6 3.5v3.8l-2.6 3.5 1.8 3.1 4.4-.5 3.3 1.9z" fill="#475059"/><path d="m154.2 39c-2.2 0-4-1.8-4-4s1.8-4 4-4 4 1.8 4 4-1.8 4-4 4zm0-6c-1.1 0-2 .9-2 2s.9 2 2 2 2-.9 2-2-.9-2-2-2z" fill="#475059"/><path d="m154.2 43c-4.4 0-8-3.6-8-8s3.6-8 8-8 8 3.6 8 8-3.6 8-8 8zm0-14c-3.3 0-6 2.7-6 6s2.7 6 6 6 6-2.7 6-6-2.7-6-6-6z" fill="#475059"/><path d="m184 50h2v4h-2z" fill="#48515a"/><path d="m184 60h2v4h-2z" fill="#48515a"/><path d="m188 56h4v2h-4z" fill="#48515a"/><path d="m178 56h4v2h-4z" fill="#48515a"/><path d="m6 166h2v4h-2z" fill="#48515a"/><path d="m6 176h2v4h-2z" fill="#48515a"/><path d="m10 172h4v2h-4z" fill="#48515a"/><path d="m0 172h4v2h-4z" fill="#48515a"/><path d="m172 174h2v4h-2z" fill="#48515a"/><path d="m172 184h2v4h-2z" fill="#48515a"/><path d="m176 180h4v2h-4z" fill="#48515a"/><path d="m166 180h4v2h-4z" fill="#48515a"/><circle cx="184" cy="146" fill="#f58e70" r="2"/><circle cx="112" cy="62" fill="#f58e70" r="2"/><circle cx="28" cy="182" fill="#f58e70" r="2"/><path d="m81.6 65h-65.6c-2.8 0-5-2.2-5-5s2.2-5 5-5h65.6l10.8 5zm-65.6-8c-1.7 0-3 1.3-3 3s1.3 3 3 3h65.2l6.5-3-6.5-3z" fill="#475059"/><path d="m22 56h2v8h-2z" fill="#475059"/><path d="m23 59h58v2h-58z" fill="#475059"/></svg>