<svg enable-background="new 0 0 193 193" viewBox="0 0 193 193" xmlns="http://www.w3.org/2000/svg" xmlns:xlink="http://www.w3.org/1999/xlink"><clipPath id="a"><path d="m0 0h193v193h-193z"/></clipPath><g clip-path="url(#a)"><path d="m157.9 100.1c-1.2-1.8-15.7-22.6-25.4-32.6l-3.2 5.1-11.7-21.4 21.4 5.3-3.4 5.7c10.7 10.5 18.1 20.3 22.6 27-2.1-32.4-29-58-61.9-58-34.2 0-62 27.8-62 62 0 31.2 23 56.9 52.9 61.3 1.3-.7 2.7-1 4.2-1 2 0 3.8.6 5.2 1.7 1.1 0 2.3 0 3.4-.1 10.5-6.6 20.9-14.7 30.7-24.2l-5.1-3.2 21.4-11.7-4.6 18.6c8.5-9.6 14.1-21.5 15.5-34.5zm-28.4 13.4-2.8 2.8-8.1-8.1-4.8 9.7-7.2-17.6-2.8 5.5-12.3-29.5 28 12-7.5 4.5 17.5 7.5-8.2 4.9z" fill="#5fe0ed"/><path d="m136.2 133.7c-7 6.9-14.3 13.1-21.7 18.6 10-3.1 19-8.6 26.1-15.9z" fill="#5fe0ed"/><path d="m112 92.8 7.5-4.5-28-12 12.3 29.6 2.7-5.5-5-12.1z" fill="none"/><path d="m112 92.8-.7.5 8.2 8.2-2.8 2.8-8.1-8.1-2.1 4.2 7.3 17.6 4.8-9.8 8.1 8.1 2.8-2.8-8.2-8.2 8.2-5z" fill="#4bced1"/><path d="m41.3 16.9c-.6 0-1.2.3-1.5.8.9-.2 1.7-.3 2.6-.4-.4-.2-.7-.4-1.1-.4z" fill="none"/><path d="m45.4 93c0-27.6 12.5-51.4 30.4-61.6-25.8 8.6-44.4 33-44.4 61.6s18.6 53 44.4 61.6c-17.9-10.2-30.4-34-30.4-61.6zm-5-29h6c.6 0 1 .4 1 1s-.4 1-1 1h-6c-.6 0-1-.4-1-1s.4-1 1-1zm6 58h-6c-.6 0-1-.4-1-1s.4-1 1-1h6c.6 0 1 .4 1 1s-.5 1-1 1z" fill="none"/><path d="m138.1 127.5-.3.2.2.1z" fill="none"/><path d="m124.2 21.8c.2.5 0 1.1-.6 1.3.3.7 1 1.1 1.7 1.1 1.1 0 1.9-.9 1.9-1.9 0-.2 0-.4-.1-.6h-.1c-.4 0-.8-.3-1-.7-.1-.2-.1-.4 0-.5-.2-.1-.5-.1-.7-.1-.7 0-1.3.3-1.6.9.3.2.4.3.5.5z" fill="none"/><path d="m144.7 81.9c.5 3.6.7 7.3.7 11.1 0 7.6-.9 15-2.8 22.1-.1.5-.7.9-1.2.7-.5-.1-.9-.7-.7-1.2 1.8-6.9 2.7-14.2 2.7-21.6 0-4.9-.4-9.7-1.2-14.3-3.3-4.2-6.7-8.2-9.6-11.3l-3.2 5.1-3.5-6.5h-5.4c-.6 0-1-.4-1-1s.4-1 1-1h4.3l-7.1-12.9 16.8 4.1c-7.3-13.7-18.4-23.5-31.2-26.3 8.9 7.7 15.3 30.3 16.1 58.3l2.4 1-2.4 1.4v3.4c0 2.3 0 4.6-.1 6.8l1.7 1.7-1.8 1.8c-1 19-4.6 35.2-9.8 45.3 7.3-5.3 14.5-11.3 21.5-18l-5.1-3.2 21.4-11.7-5.3 21.4-5.7-3.4c-9.1 8.9-18.6 16.7-28.4 23.2 26.5-4.8 47.5-25.7 52.4-52.2-1.3-2.6-2.2-4.6-2.2-4.6s-6.2-8.9-13.3-18.2zm-12.3 40.1h-12c-.6 0-1-.4-1-1s.4-1 1-1h12c.6 0 1 .4 1 1s-.5 1-1 1zm20 0h-4c-.6 0-1-.4-1-1s.4-1 1-1h4c.6 0 1 .4 1 1s-.5 1-1 1z" fill="none"/><path d="m41.3 20.7c.9 0 1.7-.7 1.9-1.6-1.2.1-2.4.3-3.5.6.2.7.9 1 1.6 1z" fill="none"/><path d="m117.3 97.9c0-1.6.1-3.2.1-4.9 0-.7 0-1.5 0-2.2l-4.4 2.7z" fill="none"/><path d="m112.4 30c10.1 4.9 18.7 14.1 24.6 25.8l2 .5-1 1.7c1.6 3.5 3 7.3 4.1 11.2 7.4 8.9 15.4 19.9 19.2 25.3 0-.5 0-1 0-1.6.1-30.2-20.8-55.7-48.9-62.9zm40 36h-8c-.6 0-1-.4-1-1s.4-1 1-1h8c.6 0 1 .4 1 1s-.5 1-1 1z" fill="none"/><path d="m116.7 105.7-7.8-7.8-5.2 10.4-14-33.9 27.6 11.8c-1.1-31.5-9.8-57.1-20.2-58.2-.3 0-.7 0-1 0-11.3.5-20.7 30.1-20.7 65 0 27.2 5.7 51.2 13.6 60.6.8-.2 1.6-.4 2.5-.4 2.6 0 4.9 1.1 6.6 2.9 2.5-1.5 4.9-3.1 7.4-4.8 5.8-8.9 10.2-25.9 11.5-45.9zm-36.3-41.7h32c.6 0 1 .4 1 1s-.4 1-1 1h-32c-.6 0-1-.4-1-1s.4-1 1-1zm32 58h-32c-.6 0-1-.4-1-1s.4-1 1-1h32c.6 0 1 .4 1 1s-.5 1-1 1z" fill="none"/><path d="m138.8 65.4c-.6-1.8-1.3-3.6-2.1-5.3l-1.1 1.9c1 1 2.1 2.2 3.2 3.4z" fill="none"/><path d="m103.8 103.5 4.5-9 8.4 8.4.4-.4c0-.6.1-1.3.1-1.9l-7.5-7.5 7.6-4.6-23.9-10.3z" fill="none"/><path d="m87 154.4c-8.1-10.2-13.7-33.6-13.7-61.4 0-31.3 7-56.9 16.8-64.6-24 3.5-42.8 31.2-42.8 64.6 0 30.9 16 56.8 37.3 63.4.8-.8 1.6-1.4 2.4-2zm-30.6-90.4h16c.6 0 1 .4 1 1s-.4 1-1 1h-16c-.6 0-1-.4-1-1s.4-1 1-1zm16 58h-18c-.6 0-1-.4-1-1s.4-1 1-1h18c.6 0 1 .4 1 1s-.5 1-1 1z" fill="none"/><path d="m129.6 60.4.1-.2h-.3z" fill="none"/><g fill="#48515a"><path d="m112.4 30c28.1 7.2 49 32.7 49 63v1.6c.9 1.2 1.5 2.2 1.9 2.7.1-1.4.1-2.8.1-4.3 0-36.9-30.1-67-67-67 .3 0 .6 0 .9.1 5.3.2 10.3 1.6 15.1 3.9z"/><path d="m96.4 26c-.2 0-.4 0-.6 0h.2z"/><path d="m75.8 154.6c-25.8-8.6-44.4-33-44.4-61.6s18.6-53 44.4-61.6c5.2-3 10.8-4.8 16.6-5.2-35.1 2-63.1 31.3-63.1 66.9 0 32.4 23.2 59.6 53.8 65.7l.3-.6c-2.6-1-5.1-2.1-7.6-3.6z"/><path d="m107.9 157c-1.3.9-2.7 1.8-4 2.6 28.5-3.2 51.7-24.4 57.8-51.9-.5-1-1-2-1.4-2.9-4.9 26.5-25.9 47.4-52.4 52.2z"/><path d="m138.8 65.4c1.1 1.2 2.2 2.5 3.3 3.8-1.1-3.9-2.5-7.7-4.1-11.2l-1.2 2.1c.7 1.7 1.4 3.5 2 5.3z"/><path d="m84.7 156.4c-21.3-6.6-37.3-32.5-37.3-63.4 0-33.5 18.8-61.1 42.8-64.6 0 0 .1-.1.1-.1-5 .5-9.9 1.5-14.5 3.1-17.9 10.2-30.4 34-30.4 61.6s12.5 51.4 30.4 61.6c2.8.9 5.6 1.7 8.5 2.2z"/><path d="m143.4 93c0 7.4-.9 14.7-2.7 21.6-.1.5.2 1.1.7 1.2s1.1-.2 1.2-.7c1.8-7.1 2.8-14.5 2.8-22.1 0-3.8-.2-7.5-.7-11.1-.8-1.1-1.6-2.1-2.5-3.2.7 4.6 1.2 9.4 1.2 14.3z"/><path d="m95.4 26c-1 0-2 0-2.9.1 1.1-.1 2.2-.1 3.4-.1-.3 0-.4 0-.5 0z"/><path d="m97.1 28.1c-.2 0-.5-.1-.7-.1-.1 0-.2 0-.3 0 .3 0 .7 0 1 .1z"/><path d="m103.2 28.9c12.8 2.8 23.9 12.6 31.2 26.3l2.6.6c-5.9-11.8-14.5-20.9-24.6-25.8-3.2-.8-6.5-1.4-9.9-1.7.2.2.4.4.7.6z"/><path d="m112.4 30c-4.7-2.3-9.8-3.7-15.1-3.9 1.8.2 3.5 1 5.2 2.2 3.3.3 6.7.9 9.9 1.7z"/><path d="m75.8 154.6c2.5 1.4 5.1 2.6 7.7 3.4.2-.4.5-.8.8-1.2-2.9-.5-5.8-1.2-8.5-2.2z"/><path d="m90.3 28.3c1.8-1.4 3.8-2.2 5.8-2.3-.1 0-.2 0-.2 0-1.1 0-2.3 0-3.4.1-5.9.5-11.5 2.3-16.6 5.2 4.5-1.5 9.4-2.5 14.4-3z"/><path d="m40.4 66h6c.6 0 1-.4 1-1s-.4-1-1-1h-6c-.6 0-1 .4-1 1s.4 1 1 1z"/><path d="m56.4 66h16c.6 0 1-.4 1-1s-.4-1-1-1h-16c-.6 0-1 .4-1 1s.4 1 1 1z"/><path d="m152.4 64h-8c-.6 0-1 .4-1 1s.4 1 1 1h8c.6 0 1-.4 1-1s-.5-1-1-1z"/><path d="m46.4 120h-6c-.6 0-1 .4-1 1s.4 1 1 1h6c.6 0 1-.4 1-1s-.5-1-1-1z"/><path d="m72.4 120h-18c-.6 0-1 .4-1 1s.4 1 1 1h18c.6 0 1-.4 1-1s-.5-1-1-1z"/><path d="m80.4 66h32c.6 0 1-.4 1-1s-.4-1-1-1h-32c-.6 0-1 .4-1 1s.4 1 1 1z"/><path d="m112.4 120h-32c-.6 0-1 .4-1 1s.4 1 1 1h32c.6 0 1-.4 1-1s-.5-1-1-1z"/><path d="m152.4 120h-4c-.6 0-1 .4-1 1s.4 1 1 1h4c.6 0 1-.4 1-1s-.5-1-1-1z"/><path d="m117.2 86.3 2 .9c-.8-28-7.2-50.5-16.1-58.3-2-.4-4-.7-6.1-.8 10.4 1.1 19.1 26.7 20.2 58.2z"/><path d="m117.4 93c0 1.6 0 3.3-.1 4.9l2 2c.1-2.2.1-4.5.1-6.8 0-1.1 0-2.3 0-3.4l-2 1.2z"/><path d="m73.4 93c0 27.9 5.6 51.2 13.7 61.4.6-.3 1.2-.6 1.9-.8-7.9-9.5-13.6-33.4-13.6-60.6 0-34.9 9.5-64.5 20.7-65-.1 0-.2 0-.3 0-1.1 0-2.2 0-3.2.1-.8.1-1.6.2-2.4.3-9.8 7.7-16.8 33.3-16.8 64.6z"/><path d="m105.4 151.4c1.3-.9 2.6-1.8 3.9-2.7 5.2-10.1 8.8-26.3 9.8-45.3l-2.1 2.2c-1.4 19.9-5.8 36.9-11.6 45.8z"/><path d="m118.1 101.5-.9-.9c0 .6 0 1.3-.1 1.9z"/><path d="m95.4 28c-.9 0-1.9 0-2.8.1 1.1-.1 2.2-.1 3.2-.1-.2 0-.3 0-.4 0z"/><path d="m97.3 26.1c-.3-.1-.6-.1-.9-.1-.1 0-.2 0-.3 0 .4 0 .8 0 1.2.1z"/><path d="m96.4 28c.2 0 .5 0 .7.1 2.1.1 4.1.4 6.1.8-.2-.2-.5-.4-.7-.6-2.1-.2-4.1-.3-6.1-.3z"/><path d="m96.4 28c-.2 0-.4 0-.6 0h.3z"/><path d="m92.5 28.1c-.8 0-1.5.1-2.3.2 0 0-.1.1-.1.1.8-.1 1.6-.2 2.4-.3z"/><path d="m95.4 28h.4.6c2.1 0 4.1.1 6.1.3-1.7-1.3-3.4-2-5.2-2.2-.4 0-.8 0-1.2 0-2 .1-3.9.9-5.8 2.3.8-.1 1.5-.1 2.3-.2.9-.2 1.8-.2 2.8-.2z"/><path d="m132.4 120h-12c-.6 0-1 .4-1 1s.4 1 1 1h12c.6 0 1-.4 1-1s-.5-1-1-1z"/><path d="m120.4 64c-.6 0-1 .4-1 1s.4 1 1 1h5.4l-1.1-2z"/><path d="m173.2 25c-.2.2-.5.3-.7.3-.3 0-.5-.1-.7-.3 7.2 7.2 9.4 18.8 6.3 33.5l2 .4c3.2-15.3.9-27.4-6.5-35.1 0 .4-.1.9-.4 1.2z"/><path d="m177.7 61.6c-.1.1-.2.2-.2.3-.1.1-.1.2-.1.4 0 .3.1.5.3.7s.4.3.7.3.5-.1.7-.3.3-.4.3-.7c0-.1 0-.3-.1-.4s-.1-.2-.2-.3c-.3-.4-1-.4-1.4 0z"/><path d="m30.1 113.9c.1 0 .2-.1.3-.2.2-.2.3-.4.3-.7s-.1-.5-.3-.7c0 0-.1-.1-.2-.1 0 0-.1-.1-.2-.1s-.1 0-.2-.1c-.2 0-.4 0-.6.1-.1 0-.2.1-.3.2-.2.2-.3.5-.3.7 0 .3.1.5.3.7s.4.3.7.3c.2 0 .3 0 .5-.1z"/><path d="m20.9 140.4c0 .6.4 1 .9 1.1h.1c.5 0 1-.4 1-.9 0-.6-.4-1-.9-1.1s-1 .3-1.1.9z"/><path d="m24.2 132.6c.1-.5-.2-1.1-.8-1.2-.5-.1-1.1.2-1.2.8-.1.5.2 1.1.8 1.2h.2c.4 0 .9-.4 1-.8z"/><path d="m23.4 136.5c.1-.5-.3-1.1-.8-1.1-.5-.1-1 .3-1.1.8s.3 1.1.8 1.1h.1c.5.1.9-.3 1-.8z"/><path d="m25.1 128.6c.1-.5-.2-1.1-.7-1.2-.5-.2-1.1.2-1.2.7s.2 1.1.7 1.2h.3c.4.1.8-.2.9-.7z"/><path d="m26.2 124.8c.2-.5-.1-1.1-.7-1.3-.5-.2-1.1.1-1.2.6-.2.5.1 1.1.7 1.3h.3c.4.1.8-.2.9-.6z"/><path d="m27.8 163.4c-.3-.5-.9-.6-1.4-.2-.4.3-.6.9-.2 1.4.2.3.5.4.8.4.2 0 .4-.1.6-.2.4-.4.5-1 .2-1.4z"/><path d="m23.4 152.5c-.1-.6-.6-.9-1.2-.8s-.9.6-.8 1.2c.1.5.5.8 1 .8h.2c.5-.2.9-.7.8-1.2z"/><path d="m24.4 156.3c-.2-.5-.7-.8-1.3-.7-.5.2-.8.7-.6 1.3.1.4.5.7 1 .7h.3c.4-.2.7-.8.6-1.3z"/><path d="m27.5 120.9c.2-.5-.1-1.1-.6-1.3s-1.1.1-1.3.6.1 1.1.6 1.3c.1 0 .2.1.3.1.5 0 .9-.3 1-.7z"/><path d="m28.1 117.8c.4 0 .8-.2.9-.6.2-.5 0-1.1-.5-1.3s-1.1 0-1.3.5 0 1.1.5 1.3c.1 0 .2.1.4.1z"/><path d="m21.7 145.5c.6 0 1-.4 1-1 0-.5-.4-1-1-1-.5 0-1 .4-1 1s.5 1 1 1z"/><path d="m24.5 159.5c-.5.2-.7.8-.5 1.3.2.3.5.6.9.6.2 0 .3 0 .4-.1.5-.2.7-.8.5-1.3s-.8-.7-1.3-.5z"/><path d="m22 149.6c.5 0 1-.5.9-1.1 0-.5-.5-1-1.1-.9-.5 0-1 .5-.9 1.1 0 .5.5.9 1.1.9-.1 0-.1 0 0 0z"/><path d="m30 166.2c-.2-.1-.5-.1-.8 0-.1 0-.2.1-.3.2-.2.2-.3.4-.3.7s.1.5.3.7l1.4-1.4c0-.1-.1-.2-.3-.2z"/><path d="m154.4 17.5s.1 0 0 0c.6 0 1-.4 1.1-.9 0-.5-.4-1-.9-1.1-.5 0-1 .4-1.1.9 0 .6.4 1.1.9 1.1z"/><path d="m150.5 17.3c.5 0 1-.4 1-1s-.5-1-1-1-1 .5-1 1c0 .6.5 1 1 1z"/><path d="m146.5 17.5s.1 0 0 0c.6 0 1-.5 1-1.1s-.5-1-1.1-.9c-.5 0-1 .5-.9 1.1.1.5.5.9 1 .9z"/><path d="m142.5 17.9h.1c.5-.1.9-.6.9-1.1-.1-.6-.6-.9-1.1-.9-.6.1-.9.6-.9 1.1.1.6.5.9 1 .9z"/><path d="m138.6 18.6h.2c.5-.1.9-.6.8-1.2-.1-.5-.6-.9-1.2-.8-.5.1-.9.6-.8 1.2.1.5.5.8 1 .8z"/><path d="m158.3 18.1h.2c.5 0 .9-.3 1-.8.1-.6-.2-1.1-.8-1.2-.5-.1-1.1.2-1.2.8-.1.5.2 1.1.8 1.2z"/><path d="m119.6 24.7c.1 0 .3 0 .4-.1.5-.2.7-.8.5-1.3s-.8-.7-1.3-.5c-.5.2-.7.8-.5 1.3.1.4.5.6.9.6z"/><path d="m134.7 19.5h.2c.5-.1.8-.7.7-1.2s-.7-.9-1.2-.7c-.5.1-.9.7-.7 1.2.1.4.5.7 1 .7z"/><path d="m169.4 22.7c.3 0 .6-.2.8-.4.3-.5.2-1.1-.2-1.4-.5-.3-1.1-.2-1.4.2-.3.5-.2 1.1.2 1.4.2.1.4.2.6.2z"/><path d="m116 26.4c.1 0 .3 0 .4-.1.5-.2.7-.8.5-1.3s-.8-.7-1.3-.5-.7.8-.5 1.3c.1.4.5.6.9.6z"/><path d="m162 19h.3c.4 0 .8-.3 1-.7.2-.5-.1-1.1-.6-1.3s-1.1.1-1.3.6c-.2.7.1 1.3.6 1.4z"/><path d="m173.2 23.6c.1.1.2.2.3.3-.1-.1-.2-.3-.3-.3-.4-.4-1-.4-1.4 0s-.4 1 0 1.4z"/><path d="m165.6 20.5c.1.1.3.1.4.1.4 0 .7-.2.9-.5.2-.5 0-1.1-.5-1.3s-1.1 0-1.3.5c-.2.4 0 1 .5 1.2z"/><path d="m130.8 20.6h.3c.5-.2.8-.7.7-1.2-.2-.5-.7-.8-1.2-.7-.5.2-.8.7-.7 1.2.1.4.5.7.9.7z"/><path d="m171.8 25c.2.2.5.3.7.3s.5-.1.7-.3c.3-.3.4-.7.2-1.1-.1-.1-.2-.2-.3-.3z"/><path d="m125.4 26.3c2.2 0 3.9-1.8 3.9-3.9s-1.8-3.9-3.9-3.9-3.9 1.8-3.9 3.9 1.7 3.9 3.9 3.9zm-3-3.7c-.2-.5 0-1.1.6-1.3.3-.1.6-.1.8.1.3-.5.9-.9 1.6-.9.3 0 .5.1.7.1.1-.3.3-.6.6-.7.5-.2 1.1.1 1.3.6s-.1 1.1-.6 1.3c-.1 0-.1 0-.2 0 .1.2.1.4.1.6 0 1.1-.9 1.9-1.9 1.9-.8 0-1.5-.5-1.7-1.1-.1 0-.2.1-.3.1-.5-.1-.9-.3-1-.7z"/><path d="m127.2 21.8h.2c.5-.2.8-.8.6-1.3s-.8-.8-1.3-.6c-.3.1-.6.4-.6.7.5.2.9.7 1.1 1.2z"/><path d="m123.6 23.1c-.1-.2-.2-.5-.2-.8 0-.4.1-.7.3-1-.3-.1-.6-.2-.8-.1-.5.2-.8.8-.6 1.3.1.4.5.6.9.6.2.1.3.1.4 0z"/><path d="m26.8 25c.4.4.4 1 0 1.4 2.9-2.9 6.5-4.9 10.8-6.2-.2-.5-.3-.9-.3-1.5 0-.2 0-.4.1-.6-4.6 1.3-8.5 3.5-11.7 6.5.4.1.8.1 1.1.4z"/><path d="m45.2 19c4.6-.3 9.7.1 15.2 1.2l.4-2c-5.8-1.2-11.2-1.6-16.1-1.2.3.5.5 1.2.5 1.8z"/><path d="m63.5 20.5c.2.2.4.3.7.3s.5-.1.7-.3c.1-.1.2-.2.2-.3.1-.1.1-.2.1-.4 0-.3-.1-.5-.3-.7-.4-.4-1-.4-1.4 0-.2.2-.3.4-.3.7 0 .1 0 .3.1.4s.1.2.2.3z"/><path d="m115.6 167.8c-.4-.4-1-.4-1.4 0-.1.1-.2.2-.2.3s-.1.2-.1.4 0 .3.1.4.1.2.2.3c.2.2.4.3.7.3.1 0 .3 0 .4-.1.1 0 .2-.1.3-.2s.2-.2.2-.3c.1-.1.1-.2.1-.4s0-.3-.1-.4c-.1 0-.1-.1-.2-.3z"/><path d="m142.4 175.3c-.5 0-1 .3-1.1.9 0 .6.4 1 .9 1.1h.1c.5 0 1-.4 1-.9.1-.6-.3-1.1-.9-1.1z"/><path d="m146.4 175.5c-.5 0-1 .4-1 1s.4 1 1 1c.5 0 1-.4 1-1s-.4-1-1-1z"/><path d="m150.4 175.3c-.5 0-1 .5-.9 1.1 0 .5.5.9 1 .9h.1c.5 0 1-.5.9-1.1-.1-.5-.5-.9-1.1-.9z"/><path d="m154.4 174.8c-.5.1-.9.6-.8 1.2.1.5.5.8 1 .8h.2c.5-.1.9-.6.8-1.2-.2-.5-.7-.9-1.2-.8z"/><path d="m138.4 174.8c-.5-.1-1.1.3-1.1.8-.1.5.3 1 .8 1.1h.1c.5 0 .9-.4 1-.9.1-.4-.2-.9-.8-1z"/><path d="m126.6 172c-.5-.2-1.1.1-1.2.6-.2.5.1 1.1.7 1.3h.3c.4 0 .8-.3 1-.7.1-.5-.2-1-.8-1.2z"/><path d="m130.5 173.1c-.5-.1-1.1.2-1.2.7s.2 1.1.7 1.2h.3c.4 0 .8-.3 1-.7.1-.5-.2-1-.8-1.2z"/><path d="m158.2 173.9c-.5.2-.8.7-.7 1.3.1.4.5.7 1 .7h.3c.5-.2.8-.7.6-1.3-.1-.6-.7-.9-1.2-.7z"/><path d="m134.4 174.1c-.5-.1-1.1.2-1.2.8-.1.5.2 1.1.8 1.2h.2c.5 0 .9-.3 1-.8.1-.6-.2-1.1-.8-1.2z"/><path d="m122.8 170.7c-.5-.2-1.1.1-1.3.6s.1 1.1.6 1.3c.1 0 .2.1.3.1.4 0 .8-.3.9-.7.3-.5 0-1.1-.5-1.3z"/><path d="m119 169.2c-.5-.2-1.1 0-1.3.6-.2.5 0 1.1.5 1.3.1 0 .2.1.4.1.4 0 .8-.2.9-.6.3-.6 0-1.2-.5-1.4z"/><path d="m165.2 170.4c-.5.3-.6.9-.2 1.4.2.3.5.4.8.4.2 0 .4-.1.6-.2.5-.3.6-.9.2-1.4-.3-.4-.9-.5-1.4-.2z"/><path d="m161.9 172.4c-.5.2-.7.8-.5 1.3.2.4.5.6.9.6.2 0 .3 0 .4-.1.5-.2.7-.8.5-1.3s-.8-.8-1.3-.5z"/><path d="m168.3 167.9c-.2.2-.3.4-.3.7s.1.5.3.7c.1.1.2.2.3.2s.2.1.4.1c.1 0 .3 0 .4-.1s.2-.1.3-.2z"/><path d="m21.3 63.3c-.1-.5-.7-.9-1.2-.7-.5.1-.9.7-.7 1.2.1.4.5.8 1 .8h.2c.6-.2.9-.8.7-1.3z"/><path d="m19.7 60.6c.5-.1.9-.6.8-1.2s-.6-.9-1.2-.8c-.5.1-.9.6-.8 1.2.1.5.5.8 1 .8z"/><path d="m21.5 68.4h.3c.5-.2.8-.7.7-1.2-.2-.5-.7-.8-1.2-.7-.5.2-.8.7-.7 1.2 0 .4.4.7.9.7z"/><path d="m18.9 56.7c.6-.1.9-.6.9-1.1-.1-.5-.6-.9-1.1-.8s-.9.6-.9 1.1c.1.5.5.8 1 .8z"/><path d="m18.2 48.7c.6 0 1-.4 1-1s-.5-1-1-1c-.6 0-1 .5-1 1 0 .6.5 1 1 1z"/><path d="m18.4 52.7c.6 0 1-.5.9-1.1s-.5-1-1.1-.9-1 .5-.9 1.1c.1.5.5.9 1.1.9z"/><path d="m25.2 77.7c-.5.2-.7.8-.5 1.3.2.4.5.6.9.6.1 0 .3 0 .4-.1.5-.2.7-.8.5-1.3s-.8-.7-1.3-.5z"/><path d="m23.7 74c-.5.2-.8.8-.6 1.3.2.4.5.6.9.6.1 0 .2 0 .4-.1.5-.2.8-.8.6-1.3-.2-.4-.8-.7-1.3-.5z"/><path d="m18.8 40.7h.2c.5 0 .9-.3 1-.8s-.2-1.1-.8-1.2c-.5-.1-1.1.2-1.2.8s.2 1.1.8 1.2z"/><path d="m22.4 70.2c-.5.2-.8.8-.6 1.3.1.4.5.7.9.7.1 0 .2 0 .3-.1.5-.2.8-.8.6-1.3-.1-.5-.7-.7-1.2-.6z"/><path d="m26.1 26.7c.3 0 .5-.1.7-.3l-1.4-1.4c.1-.1.2-.2.3-.3-.1 0-.2.1-.3.2-.4.4-.4 1 0 1.4.2.3.5.4.7.4z"/><path d="m26.4 82.7c.2.4.5.6.9.6.1 0 .3 0 .4-.1.5-.2.7-.8.5-1.3-.2-.5-.8-.7-1.3-.5-.6.2-.8.8-.5 1.3z"/><path d="m19.7 36.8c.1 0 .2.1.3.1.4 0 .8-.3 1-.7.2-.5-.1-1.1-.6-1.3s-1.1.1-1.3.6c-.2.6 0 1.2.6 1.3z"/><path d="m23.5 29.8c.3 0 .6-.1.8-.4.3-.4.2-1.1-.2-1.4s-1.1-.2-1.4.2-.2 1.1.2 1.4c.2.1.4.2.6.2z"/><path d="m18.3 44.7s.1 0 0 0c.6 0 1-.4 1.1-.9 0-.5-.3-1-.9-1.1-.6 0-1 .4-1.1.9-.1.6.4 1.1.9 1.1z"/><path d="m21 33.1c.1.1.3.1.5.1.4 0 .7-.2.9-.6.2-.5 0-1.1-.5-1.4-.5-.2-1.1 0-1.3.5-.2.6 0 1.2.4 1.4z"/><path d="m26.8 26.4c.4-.4.4-1 0-1.4-.3-.3-.7-.4-1.1-.2-.1.1-.2.2-.3.3z"/><path d="m41.3 16.9c.4 0 .8.1 1.1.3.4-.1.8-.1 1.3-.2.3 0 .7-.1 1.1-.1-.7-1.2-1.9-2.1-3.4-2.1-2 0-3.6 1.5-3.9 3.3.8-.2 1.5-.4 2.3-.6.3-.3.8-.6 1.5-.6z"/><path d="m43.1 19.2c-.2.9-.9 1.6-1.9 1.6-.7 0-1.3-.4-1.7-1-.7.2-1.3.3-2 .5.6 1.4 2 2.5 3.6 2.5 2.1 0 3.8-1.7 3.9-3.8-.4 0-.9.1-1.3.1-.1 0-.3 0-.6.1z"/><path d="m37.6 20.3c.6-.2 1.3-.4 2-.5-.2-.3-.3-.6-.3-.9 0-.4.1-.8.4-1.1-.8.2-1.6.3-2.3.6 0 .2-.1.4-.1.6.1.4.2.8.3 1.3z"/><path d="m42.3 17.3c.5.3.8.9.8 1.6v.3c.2 0 .5-.1.7-.1.4 0 .9-.1 1.3-.1v-.1c0-.7-.2-1.3-.5-1.8-.4 0-.7 0-1.1.1-.3-.1-.7 0-1.2.1z"/><path d="m121.7 88.2-2.4-1c0 .8 0 1.6.1 2.5z"/><path d="m120.9 101.5-1.7-1.7c0 1.2-.1 2.4-.1 3.5z"/><path d="m117.2 100.6c0-.9.1-1.8.1-2.7l-4.4-4.4 4.4-2.7c0-.8 0-1.5 0-2.3l-7.6 4.6z"/><path d="m103.7 108.4 5.2-10.4 7.8 7.8.3-.3c.1-1 .1-2 .2-3l-.4.4-8.4-8.4-4.5 9-10.5-25.3 23.9 10.2c0-.7 0-1.5-.1-2.2l-27.5-11.8z"/><path d="m117.3 88.5v2.3l2-1.2c0-.8 0-1.7-.1-2.5l-2-.9c.1.8.1 1.5.1 2.3z"/><path d="m117.2 100.6.9.9-1 1c-.1 1-.1 2-.2 3l2.1-2.2c.1-1.2.1-2.3.1-3.5l-2-2c.2 1 .1 1.9.1 2.8z"/><path d="m6.4 83.1h2v4h-2z"/><path d="m6.4 93.1h2v4h-2z"/><path d="m10.4 89.1h4v2h-4z"/><path d="m.4 89.1h4v2h-4z"/><path d="m184.6 93.1h2v4h-2z"/><path d="m184.6 103.1h2v4h-2z"/><path d="m188.6 99.1h4v2h-4z"/><path d="m178.6 99.1h4v2h-4z"/><path d="m46.5 151.2h2v4h-2z"/><path d="m46.5 161.2h2v4h-2z"/><path d="m50.5 157.2h4v2h-4z"/><path d="m40.5 157.2h4v2h-4z"/></g><path d="m170.5 145.4c-.8 0-1.7-.1-2.5-.4-4.2-1.4-6.6-5.9-5.2-10.2s0 0 0-.1c1.4-4.2 6-6.5 10.2-5.1 2.1.7 3.7 2.1 4.7 4s1.2 4.1.5 6.1c-.7 2-2.1 3.7-4 4.7-1.2.7-2.4 1-3.7 1zm-5.8-10c-.5 1.5-.4 3.2.4 4.6.7 1.5 2 2.5 3.6 3 3.2 1 6.6-.7 7.7-3.9.5-1.5.4-3.2-.4-4.7-.7-1.5-2-2.5-3.6-3-3.2-.9-6.7.8-7.7 4z" fill="#475059"/><path d="m173.5 154.6h-6.1v-3.2c0-.8-.5-1.3-1.1-1.5-.5-.2-1.2-.1-1.7.6l-1.9 2.6-4.9-3.6 1.9-2.6c.5-.7.3-1.4 0-1.8s-.9-.8-1.7-.6l-3.1 1-1.9-5.8 3.1-1c.8-.3 1.1-.9 1.1-1.5 0-.5-.3-1.2-1.1-1.5l-3.1-1 1.9-5.7 3.1 1c.8.3 1.4-.1 1.7-.6s.5-1.1 0-1.8l-1.9-2.6 4.9-3.6 1.9 2.6c.5.7 1.2.7 1.7.6.5-.2 1.1-.6 1.1-1.5v-3.2h6.1v3.2c0 .8.5 1.3 1.1 1.5.5.2 1.2.1 1.7-.6l1.9-2.6 4.9 3.6-1.9 2.6c-.5.7-.3 1.4 0 1.8s.9.8 1.7.6l3.1-1 1.9 5.8-3.1 1c-.8.3-1.1.9-1.1 1.5 0 .5.3 1.2 1.1 1.5l3.1 1-1.9 5.7-3.1-1c-.8-.3-1.4.1-1.7.6-.3.4-.5 1.1 0 1.8l1.9 2.6-4.9 3.6-1.9-2.6c-.5-.7-1.2-.7-1.7-.6-.5.2-1.1.6-1.1 1.5zm-4-2h2.1v-1.2c0-1.6 1-2.9 2.5-3.4s3 0 4 1.3l.7 1 1.7-1.2-.7-1c-.9-1.3-.9-2.9 0-4.2s2.5-1.8 4-1.3l1.2.4.6-1.9-1.2-.4c-1.5-.5-2.4-1.8-2.4-3.4s1-2.9 2.5-3.4l1.2-.4-.6-2-1.2.4c-1.5.5-3 0-4-1.3s-.9-2.9 0-4.2l.7-1-1.7-1.2-.7 1c-.9 1.3-2.5 1.8-4 1.3s-2.4-1.8-2.4-3.4v-1.2h-2.1v1.2c0 1.6-1 2.9-2.5 3.4s-3 0-4-1.3l-.7-1-1.7 1.2.7 1c.9 1.3.9 2.9 0 4.2s-2.5 1.8-4 1.3l-1.2-.4-.6 1.9 1.2.4c1.5.5 2.4 1.8 2.4 3.4s-1 2.9-2.5 3.4l-1.2.4.6 2 1.2-.4c1.5-.5 3 0 4 1.3.9 1.3.9 2.9 0 4.2l-.7 1 1.7 1.2.7-1c.9-1.3 2.5-1.8 4-1.3s2.4 1.8 2.4 3.4z" fill="#475059"/><path d="m85.7 18.7c-1.7 0-3-1.3-3-3s1.3-3 3-3 3 1.3 3 3-1.3 3-3 3zm0-4c-.6 0-1 .4-1 1s.4 1 1 1 1-.4 1-1-.5-1-1-1z" fill="#475059"/><circle cx="167.4" cy="51.3" fill="#5fe0ed" r="4.3"/><circle cx="33.4" cy="137.3" fill="#5fe0ed" r="1.7"/><circle cx="108.4" cy="176.3" fill="#5fe0ed" r="4"/><path d="m129.7 60.2h-.3l.2.2z" fill="#5fe0ed"/><path d="m86.1 164.9c-3.8 1.8-7.7 3.4-11.4 4.7-19.6 6.8-35.3 5.7-44.3-3.2l-1.4 1.4c5.5 5.5 13.2 8.2 22.8 8.2 7 0 14.9-1.5 23.6-4.5 3.9-1.4 7.9-3 11.9-5-.6-.4-1-1-1.2-1.6z" fill="#48515a"/><path d="m129.7 127.6 4.3 2.8c-12 11.8-24.8 21.7-37.7 29.2.3.6.5 1.3.5 2 13.3-7.7 26.7-18 39.1-30.3l4.7 2.8 3.5-14.3zm9.6 3.3-5.6-3.3 7.4-4z" fill="#48515a"/><path d="m175.8 148.7c-.4 8-2.9 14.5-7.6 19.2l1.4 1.4c4.8-4.8 7.5-11.5 8.1-19.5-.7-.2-1.4-.6-1.9-1.1z" fill="#48515a"/><path d="m172 120.8h.6c-7.2-19.4-21.2-40.1-39.5-58.6l2.8-4.7-14.3-3.5 7.9 14.5 2.8-4.3c17.7 17.9 31.2 38 38.3 56.8.4-.1.9-.2 1.4-.2zm-42.5-56.3-4-7.4 7.3 1.8z" fill="#48515a"/><path d="m91.4 169.3c-3.9 0-7-3.1-7-7s3.1-7 7-7 7 3.1 7 7-3.1 7-7 7zm0-12c-2.8 0-5 2.2-5 5s2.2 5 5 5 5-2.2 5-5-2.2-5-5-5z" fill="#48515a"/></g></svg>