<svg enable-background="new 0 0 193 193" viewBox="0 0 193 193" xmlns="http://www.w3.org/2000/svg" xmlns:xlink="http://www.w3.org/1999/xlink"><clipPath id="a"><path d="m0 0h193v193h-193z"/></clipPath><g clip-path="url(#a)"><path d="m66.4 152.1c2.2 0 4-1.8 4-4s-1.8-4-4-4h-4c2.2 0 4 1.8 4 4s-1.8 5-4 5h-8c-2.2 0-4-1.8-4-4 0 .8.3 1.9.7 4h-10.1c-1.8 0-3.6-.5-5-1.6-1.1-.9-2.6-1.4-4-1.4h-5.8v4.8h-5v2h-20.7v16h20.6v-3h5v-4.8h5.8c1.4 0 2.8.5 3.9 1.3 1.5 1.1 3.2 1.7 5 1.7h20.6.9c2.2 0 4-1.8 4-4 0-1.5-.8-2.7-1.9-3.4v-.6h1.9c2.2 0 4-1.8 4-4 .1-2.2-1.7-4-3.9-4z" fill="#dededd"/><path d="m-12.2 124.2h46.1v20.8h-46.1z" fill="#5fe0ed" transform="matrix(.00000012 -1 1 .00000012 -123.6887 145.4674)"/><circle cx="31.5" cy="177.4" fill="#ffd15d" r="2"/><path d="m27.2 155.7h-6.1v-2h4.1v-37h-4.1v-2h6.1z" fill="#48515a"/><path d="m17.1 151.7c-.6 0-1-.4-1-1v-4c0-.6.4-1 1-1s1 .4 1 1v4c0 .5-.4 1-1 1z" fill="#48515a"/><path d="m17.1 155.7c-1.7 0-3-1.3-3-3s1.3-3 3-3 3 1.3 3 3-1.3 3-3 3zm0-4c-.6 0-1 .4-1 1s.4 1 1 1 1-.4 1-1-.4-1-1-1z" fill="#48515a"/><path d="m36.4 133.9c-.6 0-1-.4-1-1s.4-1 1-1c3.1 0 5.8-2.1 6.7-5l2.1-7.3h14.5c3.3 0 6-2.7 6-6l-25.1.1c-1 0-1.9.5-2.5 1.4l-5 7.7-6.8.2c-.5 0-1-.4-1-1s.4-1 1-1l5.8-.1 4.5-6.8c.9-1.4 2.5-2.2 4.2-2.3l27.1-.1v2c0 4.4-3.6 8-8 8h-13.2l-1.7 5.9c-1 3.6-4.6 6.3-8.6 6.3z" fill="#48515a"/><g fill="#475059"><path d="m62.4 153.9h-8c-2.8 0-5-2.2-5-5s2.2-5 5-5h8c2.8 0 5 2.2 5 5s-2.2 5-5 5zm-8-8c-1.7 0-3 1.3-3 3s1.3 3 3 3h8c1.7 0 3-1.3 3-3s-1.3-3-3-3z"/><path d="m66.4 145.9h-12c-2.8 0-5-2.2-5-5s2.2-5 5-5h12c2.8 0 5 2.2 5 5s-2.2 5-5 5zm-12-8c-1.7 0-3 1.3-3 3s1.3 3 3 3h12c1.7 0 3-1.3 3-3s-1.3-3-3-3z"/><path d="m66.4 137.9h-12c-2.8 0-5-2.2-5-5s2.2-5 5-5h12c2.8 0 5 2.2 5 5s-2.2 5-5 5zm-12-8c-1.7 0-3 1.3-3 3s1.3 3 3 3h12c1.7 0 3-1.3 3-3s-1.3-3-3-3z"/><path d="m66.4 129.9h-12c-2.8 0-5-2.2-5-5s2.2-5 5-5h12c2.8 0 5 2.2 5 5s-2.2 5-5 5zm-12-8c-1.7 0-3 1.3-3 3s1.3 3 3 3h12c1.7 0 3-1.3 3-3s-1.3-3-3-3z"/><path d="m54.4 153.9h-13.5c-1.8 0-3.6-.6-5.1-1.7-1.1-.8-2.5-1.3-3.9-1.3h-6.5v-2h6.5c1.8 0 3.6.6 5.1 1.7 1.1.8 2.5 1.3 3.9 1.3h13.5z"/><path d="m74.5 108.9h-36v-29h36zm-34-2h32v-25h-32z"/><path d="m133.5 132.9h-5.2l-55.2-24.1.8-1.8 54.8 23.9h2.8v-73h-2.8l-54.8 23.9-.8-1.8 55.2-24.1h5.2z"/><path d="m66.5 84.9c0-.6.4-1 1-1 .5 0 1 .4 1 1 0 .5-.5 1-1 1-.6 0-1-.5-1-1zm-4 0c0-.6.4-1 1-1 .5 0 1 .4 1 1 0 .5-.5 1-1 1-.6 0-1-.5-1-1zm-4 0c0-.6.4-1 1-1 .5 0 1 .4 1 1 0 .5-.5 1-1 1-.6 0-1-.5-1-1zm-4 0c0-.6.4-1 1-1 .5 0 1 .4 1 1 0 .5-.5 1-1 1-.6 0-1-.5-1-1zm-4 0c0-.6.4-1 1-1 .5 0 1 .4 1 1 0 .5-.5 1-1 1-.6 0-1-.5-1-1zm-4 0c0-.6.4-1 1-1 .5 0 1 .4 1 1 0 .5-.5 1-1 1-.6 0-1-.5-1-1zm-4 0c0-.6.4-1 1-1 .5 0 1 .4 1 1 0 .5-.5 1-1 1-.6 0-1-.5-1-1z"/><path d="m45.5 107.9h2v5h-2z"/><path d="m50.4 142.9h-4.9v-22h2v20h2.9z"/><path d="m57.5 107.9h2v4h-2z"/><path d="m39.1 104.1h-9.6v-19.2h9v2h-7v15.2h7.6z"/></g><path d="m129.1 128.9h.4v-51l-53 12v16.1z" fill="#dededd"/><path d="m137.5 61.9c-.4 0-.7-.2-.9-.6-.2-.5 0-1.1.4-1.3l8-4c.5-.2 1.1 0 1.3.4.2.5 0 1.1-.4 1.3l-8 4c-.1.2-.3.2-.4.2z" fill="#48515a"/><path d="m145.5 131.9c-.2 0-.3 0-.4-.1l-8-4c-.5-.2-.7-.8-.4-1.3s.8-.7 1.3-.4l8 4c.5.2.7.8.4 1.3-.2.3-.6.5-.9.5z" fill="#48515a"/><path d="m145.5 94.9h-8c-.6 0-1-.4-1-1s.4-1 1-1h8c.6 0 1 .4 1 1s-.5 1-1 1z" fill="#48515a"/><path d="m137.5 78.4c-.4 0-.8-.3-1-.7-.2-.5.1-1.1.7-1.3l8-2.5c.5-.2 1.1.1 1.3.7.2.5-.1 1.1-.7 1.3l-8 2.5c-.1 0-.2 0-.3 0z" fill="#48515a"/><path d="m145.5 113.9c-.1 0-.2 0-.3 0l-8-2.5c-.5-.2-.8-.7-.7-1.3.2-.5.7-.8 1.3-.7l8 2.5c.5.2.8.7.7 1.3-.2.4-.6.7-1 .7z" fill="#48515a"/><circle cx="75" cy="68.4" fill="#ffd15d" r="1.5"/><circle cx="125.5" cy="40.4" fill="#5fe0ed" r="3"/><path d="m157.9 69h-3.3c-.6 0-1-.4-1-1s.4-1 1-1c1.3 0 2.5-.4 3.5-1.2.6-.5 1.1-1.1 1.5-1.8.5-.8.7-1.8.7-2.7v-.3c-5.3-1.7-9.8-5.2-12.8-9.9-3.7-5.7-4.8-12.4-3.2-19s5.7-12 11.6-15.4c11.1-6.4 25.3-3 32.4 7.6 5 7.6 5.4 17.2 1.1 25.2l-.2.4c-1.7 2.9-3.9 5.4-6.5 7.4l-1.3 1c-3.4 2.2-7.2 3.5-11.1 3.8-2.9 4.3-7.5 6.9-12.4 6.9zm9.8-53.3c-3.8 0-7.5.9-10.9 2.9-5.4 3.1-9.2 8.1-10.6 14.1-1.5 6-.4 12.2 3 17.4 2.9 4.5 7.3 7.7 12.4 9.3.4.1.7.5.7 1v1c0 1.3-.3 2.6-1 3.7-.4.7-.8 1.3-1.4 1.8 3.6-.6 6.8-2.8 8.7-6.1.2-.3.5-.5.8-.5 3.8-.3 7.5-1.5 10.6-3.5l1.3-.9c2.4-1.8 4.5-4.1 6-6.8l.2-.3c4-7.3 3.6-16.2-1-23.1-4.2-6.5-11.5-10-18.8-10z" fill="#48515a"/><path d="m167.9 56.1c-10.2 0-18.5-8.3-18.5-18.5s8.3-18.5 18.5-18.5 18.5 8.3 18.5 18.5-8.3 18.5-18.5 18.5zm0-35c-9.1 0-16.5 7.4-16.5 16.5s7.4 16.5 16.5 16.5 16.5-7.4 16.5-16.5-7.4-16.5-16.5-16.5z" fill="#f58e70"/><path d="m163.6 32.7c-.4-.7-1.1-1.1-1.8-1.1s-1.4.4-1.8 1.1l-1.7-1c.7-1.3 2.1-2.1 3.5-2.1s2.8.8 3.5 2.1z" fill="#4f4f4f"/><path d="m175.9 32.7c-.4-.7-1.1-1.1-1.8-1.1s-1.4.4-1.8 1.1l-1.7-1c.7-1.3 2.1-2.1 3.5-2.1s2.8.8 3.5 2.1z" fill="#4f4f4f"/><path d="m167.9 49.6c-6.1 0-11-4.9-11-11v-1h22v1c0 6.1-4.9 11-11 11zm-8.9-10c.5 4.5 4.3 8 8.9 8s8.4-3.5 8.9-8z" fill="#4f4f4f"/><path d="m175.2 89.3c.1.3.1.7 0 1l-1.3 5.5c0 .8.7 1.5 1.5 1.5h2.9c-.8 0-1.5-.7-1.5-1.5l1.3-5.5c.1-.3.1-.7 0-1l-.6-2.3c-.4-1.7-1.9-2.8-3.7-2.8v1.3c.4.4.6.9.8 1.5z" fill="#dfe0e0"/><path d="m186.2 101.7h.1c1.3 0 2.3-1.1 2.2-2.3s-1.1-2.1-2.3-2.1h-2.9c1.2 0 2.3.9 2.3 2.1.1 1.3-.9 2.3-2.2 2.3h-.1c1.2 0 2.3.9 2.3 2.1.1 1.2-.8 2.2-2 2.3-.1 0-.9 0-1 0 1.3 0 2.4 1.2 2.2 2.6-.2 1.1-1.2 1.8-2.2 1.8v.1c.9.3 1.6 1.2 1.5 2.2-.1 1.2-1.1 2.1-2.3 2.1h1.4c1.2 0 2.3-.9 2.3-2.1.1-1.3-.9-2.3-2.2-2.3h2.1c1.1 0 2.1-.7 2.3-1.8.2-1.4-.8-2.6-2.2-2.6h1c1.2-.1 2-1.1 2-2.3s-1.1-2.1-2.3-2.1z" fill="#dfe0e0"/><path d="m183.2 115.9h-6.2c-3.1 0-6.2-.5-9.2-1.5h-2.8c-.6 0-1-.4-1-1s.4-1 1-1h2.9c.1 0 .2 0 .3.1 2.8.9 5.8 1.4 8.7 1.4h6.3c.7 0 1.3-.5 1.3-1.1 0-.3-.1-.7-.3-.9s-.5-.4-.9-.4c-.6 0-1-.4-1-1s.4-1 1-1h2.1c.6 0 1.2-.4 1.3-1 .1-.4 0-.7-.3-1-.2-.3-.6-.4-.9-.4-.6 0-1-.4-1-1s.5-1 1-1h.1.8c.6-.1 1.1-.6 1-1.3 0-.6-.6-1.1-1.3-1.1-.6 0-1-.4-1-1s.4-1 1-1h.1c.3 0 .6-.1.9-.4.2-.2.3-.6.3-.9 0-.6-.6-1.1-1.3-1.1h-8c-1.4 0-2.5-1.1-2.5-2.5 0-.1 0-.2 0-.2l1.3-5.5c0-.2 0-.4 0-.6l-.6-2.3c-.2-.9-.9-1.6-1.7-1.9v3.2c0 .1 0 .2-.1.4l-3.3 8.6c-.4.9-1.3 1.6-2.3 1.6h-3.9c-.6 0-1-.4-1-1s.4-1 1-1h4.1c.2 0 .4-.1.4-.3l3.2-8.4v-4.2c0-.6.4-1 1-1 2.2 0 4.1 1.5 4.6 3.6l.6 2.3c.1.5.1 1 0 1.5l-1.3 5.4c0 .2.2.4.5.4h8c1.8 0 3.2 1.3 3.3 3 0 .9-.3 1.7-.9 2.4.5.5.8 1.2.9 2 .1 1.1-.5 2.1-1.3 2.8.5.7.7 1.6.5 2.4-.2 1.2-1.2 2.2-2.4 2.5.2.5.3 1 .3 1.5 0 1.6-1.5 2.9-3.3 2.9z" fill="#48515a"/><path d="m186.3 102.7h-3.7c-.6 0-1-.4-1-1s.4-1 1-1h3.7c.6 0 1 .4 1 1s-.4 1-1 1z" fill="#48515a"/><path d="m186.3 107.1h-3.7c-.6 0-1-.4-1-1s.4-1 1-1h3.7c.6 0 1 .4 1 1s-.4 1-1 1z" fill="#48515a"/><path d="m183.4 111.5h-.7c-.6 0-1-.4-1-1s.4-1 1-1h.7c.6 0 1 .4 1 1s-.5 1-1 1z" fill="#48515a"/><path d="m153 95.9h12v20.1h-12z" fill="#5fe0ed"/><path d="m184.4 61 2.1 4.2 4.7.7c1.3.2 1.8 1.8.9 2.7l-3.4 3.3.8 4.7c.2 1.3-1.1 2.3-2.3 1.7l-4.2-2.3-4.2 2.2c-1.2.6-2.5-.4-2.3-1.7l.8-4.7-3.4-3.3c-.9-.9-.4-2.5.9-2.7l4.7-.7 2.1-4.2c.5-1.1 2.2-1.1 2.8.1z" fill="#ffd15d"/><path d="m173.4 163.3c-.2 0-.5 0-.8 0-10.5-.4-18.8-9.3-18.4-19.9.1-2.8.8-5.5 2.1-8l-1.9-11.3 11.4 2.4c2.6-1.1 5.3-1.6 8.2-1.5 5.1.2 9.8 2.4 13.3 6.1 3.5 3.8 5.3 8.6 5.1 13.7-.3 10.4-8.8 18.5-19 18.5zm-16.4-36.6 1.5 9-.2.3c-1.2 2.3-1.9 4.8-2 7.5-.4 9.4 7 17.4 16.5 17.8s17.4-7 17.8-16.5c.2-4.6-1.4-8.9-4.5-12.3s-7.3-5.3-11.9-5.5c-2.6-.1-5.2.4-7.6 1.4l-.3.1z" fill="#475059"/><path d="m182.3 145.3c.7-.9 1.2-2.1 1.2-3.4 0-3-2.4-5.5-5.5-5.5-1.9 0-3.5.9-4.5 2.4-1-1.4-2.6-2.4-4.5-2.4-3 0-5.5 2.4-5.5 5.5 0 1.3.5 2.5 1.2 3.4.2.3 8.7 9 8.7 9s8.7-8.7 8.9-9z" fill="#f58e70"/><path d="m173.5 155.8-.7-.7c-3.2-3.3-8.6-8.9-8.8-9.1-.9-1.2-1.4-2.6-1.4-4.1 0-3.6 2.9-6.5 6.5-6.5 1.7 0 3.3.7 4.5 1.8 1.2-1.2 2.8-1.8 4.5-1.8 3.6 0 6.5 2.9 6.5 6.5 0 1.5-.5 2.9-1.4 4-.4.5-5.7 5.9-8.8 9.1zm-4.5-18.3c-2.5 0-4.5 2-4.5 4.5 0 1 .3 2 1 2.8.3.3 4.7 4.8 8 8.2 3.3-3.4 7.6-7.8 8-8.2.6-.8 1-1.8 1-2.8 0-2.5-2-4.5-4.5-4.5-1.5 0-2.8.7-3.7 1.9l-.8 1.2-.8-1.2c-.8-1.2-2.2-1.9-3.7-1.9z" fill="#f58e70"/><path d="m141.6 141.4 1.3 2.6 2.9.4c.8.1 1.1 1.1.5 1.6l-2.1 2 .5 2.8c.1.8-.7 1.4-1.4 1l-2.6-1.3-2.6 1.3c-.7.4-1.5-.2-1.4-1l.5-2.8-2.1-2c-.6-.6-.3-1.5.5-1.6l2.9-.4 1.3-2.6c.4-.7 1.4-.7 1.8 0z" fill="#ffd15d"/><path d="m109.6 175.4-12.9-31.2 29.5 12.7-8.1 4.8 7.3 7.3-4 4-7.1-7.1zm-9.2-27.4 9.3 22.6 4-8.1 7.7 7.7 1.2-1.2-7.7-7.7 6.9-4.1z" fill="#48515a"/><path d="m82.5 26.1h30.6v19h-30.6z" fill="#ffd15d"/><path d="m114.1 46.1h-32.6v-21h32.6zm-30.6-2h28.6v-17h-28.6z" fill="#ffd15d"/><path d="m97.8 36.8c-.2 0-.4-.1-.5-.2l-13.3-8.3c-.5-.3-.6-.9-.3-1.4s.9-.6 1.4-.3l12.7 8 11.9-7.6c.5-.3 1.1-.2 1.4.3s.2 1.1-.3 1.4l-12.4 8c-.2 0-.4.1-.6.1z" fill="#48515a"/><path d="m110.7 43.6c-.3 0-.6-.1-.8-.4l-6.2-7.4c-.4-.4-.3-1.1.1-1.4.4-.4 1.1-.3 1.4.1l6.2 7.4c.4.4.3 1.1-.1 1.4-.1.2-.3.3-.6.3z" fill="#48515a"/><path d="m84.9 43.6c-.2 0-.5-.1-.6-.2-.4-.4-.5-1-.1-1.4l6.2-7.4c.4-.4 1-.5 1.4-.1s.5 1 .1 1.4l-6.2 7.4c-.3.2-.6.3-.8.3z" fill="#48515a"/><path d="m54.1 68.4h-35.6c-2.8 0-5-2.2-5-5s2.2-5 5-5h35.6l10.8 5zm-35.6-8c-1.7 0-3 1.3-3 3s1.3 3 3 3h35.2l6.5-3-6.5-3z" fill="#475059"/><path d="m24.1 59.8h2v7.6h-2z" fill="#475059"/><path d="m25.1 62.4h28v2h-28z" fill="#475059"/><path d="m138.5 165.4h2v4h-2z" fill="#48515a"/><path d="m138.5 175.4h2v4h-2z" fill="#48515a"/><path d="m142.5 171.4h4v2h-4z" fill="#48515a"/><path d="m132.5 171.4h4v2h-4z" fill="#48515a"/><path d="m132.5 17.4h2v4h-2z" fill="#48515a"/><path d="m132.5 27.4h2v4h-2z" fill="#48515a"/><path d="m136.5 23.4h4v2h-4z" fill="#48515a"/><path d="m126.5 23.4h4v2h-4z" fill="#48515a"/></g></svg>