<svg enable-background="new 0 0 192 175.8927917" viewBox="0 0 192 175.8927917" xmlns="http://www.w3.org/2000/svg"><path d="m115.0507812 161.4596863h-100.9882812c-2.7568359 0-5-2.2543945-5-5.0253906 0-2.7543945 2.2431641-4.9746094 5-4.9746094h100.987793l10.8432617 4.9995117zm-100.9882812-8c-1.6821289 0-3 1.2954102-3 2.9492188 0 1.6933594 1.3457031 3.0507812 3 3.0507812h100.5488281l6.5058594-3.0004883-6.5053711-2.9995117z" fill="#475059"/><path d="m20 152.459686h2v8h-2z" fill="#475059"/><path d="m21 155.459686h93v2h-93z" fill="#475059"/><path d="m34.8077278 128.6840515-.7667465 2.3514099-2.1218662-.6919098c-2.3442574-.7644348-4.2971401 1.9174805-2.8499107 3.9138184l1.309967 1.8069916-3.2972889 2.390274-1.3100395-1.8070831c-1.4472237-1.9963379-4.6035557-.9744873-4.6061554 1.4912109l-.0023537 2.2319489-4.0725384-.0042877.0023537-2.2319031c.0025997-2.4656982-3.1515808-3.4942322-4.6030064-1.5009613l-1.3137913 1.804245-3.2922173-2.3972473 1.3138208-1.8042908c1.4514217-1.9932709-.4958057-4.679306-2.8416643-3.9198456l-2.1234903.6874695-1.2544227-3.874527 2.1233935-.6874313c2.3458629-.7594604 2.3493595-4.0770416.0051022-4.8414764l-2.121866-.6919098.721169-2.2116089-.0899925.2760162.6094987-1.8696213 2.1219174.6917572c2.3443136.7642517 4.2969818-1.9178162 2.8495989-3.9140472l-1.3101077-1.8068924 3.2970977-2.3905334 1.3101788 1.8069992c1.4473791 1.9962234 4.6036263.974144 4.6060314-1.4915619l.0021782-2.2319489 4.0725327.0039902-.0021782 2.2318954c-.0024052 2.4657059 3.1518517 3.4940033 4.6031189 1.5006332l1.3136463-1.8043518 3.2924023 2.3970108-1.3136768 1.80439c-1.4512653 1.9933701.496172 4.6792755 2.8419666 3.9196396l2.1234322-.6876297 1.2547035 3.8744354-2.1233139.6875839c-2.3458004.7596359-2.3490353 4.0772324-.0047226 4.8414841l2.1219177.6917496-.6094971 1.8696136z" fill="#fff"/><path d="m19.1381836 132.1637878c-.8330078 0-1.6796875-.1293945-2.5136719-.4013672-2.0639648-.6728516-3.7421875-2.109375-4.7255859-4.0444412-.9726562-1.9145508-1.1503906-4.090332-.5024414-6.1352539h-.0004883c1.3886719-4.2607422 5.9838867-6.5991211 10.2460938-5.2075195 4.237793 1.3813477 6.5717773 5.9365234 5.2290039 10.1782227h.0004883-.0004883c0 .0009766-.0004883.0014648-.0004883.0024414-.0014648.0039062-.0029297.0083008-.0039062.0126953-.0058594.0175781-.0112305.034668-.0170898.0522461l-.0004883-.0004883c-1.1362306 3.3891678-4.3090821 5.5434646-7.7109376 5.5434646zm-5.8212891-10.0200271c-.5048828 1.5537109-.375 3.2114258.3652344 4.6679688.7412109 1.458992 2.0063477 2.5419998 3.5625 3.049324 3.2041016 1.046875 6.6640625-.706543 7.71875-3.9067459.4892578-1.5424805.3554688-3.1845703-.378418-4.6289062-.7416992-1.4589844-2.0068359-2.5415039-3.5629883-3.0488281-3.1904296-1.0371095-6.6347656.6923827-7.7050781 3.8671874z" fill="#475059"/><path d="m22.1625977 141.3717957-6.0727539-.0063477.003418-3.2319336c.0009766-.828125-.550293-1.3027344-1.0664062-1.4707031-.515625-.1689453-1.2402344-.1098633-1.7280273.559082l-1.902832 2.612793-4.9086914-3.5742188 1.9018555-2.612793c.487793-.6694336.3208008-1.3774414.0024414-1.8168945-.3188477-.4394531-.9404297-.8188477-1.7270508-.5629883l-3.0751953.9956055-1.8701172-5.7768631 3.0742188-.9956055c.7875977-.2553711 1.0693359-.9262695 1.0698242-1.4692383.0004883-.5424805-.2792969-1.2138672-1.0664062-1.4707031l-3.0727539-1.0019531 1.8608398-5.706543 3.0727539 1.0019531c.7885742.2563477 1.4082031-.1210938 1.7280273-.5600586.3193359-.4384766.487793-1.1459961.0019531-1.8164062l-1.8969727-2.6166992 4.9160156-3.5639648 1.8969727 2.6162109c.4863281.6704102 1.2109375.7304688 1.7275391.5629883.5166016-.1669922 1.0683594-.640625 1.0693359-1.4682617l.0029297-3.2319336 6.0727539.0058594-.003418 3.2319336c-.0009766.8276367.550293 1.3022461 1.0664062 1.4702148.5141602.1704102 1.2412109.1098633 1.7280273-.559082l1.902832-2.612793 4.9091797 3.5742188-1.9023438 2.612793c-.4873047.6689453-.3203125 1.3769531-.0019531 1.8164062.3193359.4399414.9399414.8188477 1.7270508.5634766l3.074707-.996582 1.8710938 5.777832-3.074707.9951172c-.7871094.2553711-1.0683594.9257812-1.0688477 1.46875-.0009766.5429688.2792969 1.2143555 1.0664062 1.4711914l3.0722656 1.0009766-1.8613281 5.7094803-3.0727539-1.0019531c-.7875977-.2553711-1.4086914.1210938-1.7280273.5595703-.3193359.4389648-.487793 1.1464844-.0019531 1.8168945l1.8969727 2.6162109-4.9165039 3.5644531-1.8969727-2.6166992c-.4858398-.6704102-1.2124023-.7324219-1.7270508-.5634766-.5166016.1674805-1.0688477.6411133-1.0698242 1.46875zm-4.0708008-2.0043946 2.0727539.0024414.0009766-1.2319336c.0019531-1.5649414.9648438-2.8876953 2.4541016-3.3696289 1.487793-.4804688 3.043457.0253906 3.9619141 1.2924805l.7231445.9975586 1.6782227-1.2167969-.7231445-.9970703c-.918457-1.2670898-.9169922-2.902832.0043945-4.1679688.9208984-1.2641602 2.4770508-1.7675781 3.9648438-1.2836914l1.1713867.3818359.6210938-1.9057693-1.1708984-.3818359c-1.487793-.4853516-2.4482422-1.8100586-2.4462891-3.375.0014648-1.5644531.9643555-2.8867188 2.4526367-3.3686523l1.1723633-.3798828-.6386719-1.9711914-1.1723633.3793945c-1.4882812.4819336-3.0439453-.0249023-3.9624023-1.2919922-.918457-1.2666016-.9169922-2.9023438.0039062-4.1674805l.7255859-.9960938-1.6757812-1.2197266-.7250977.9960938c-.9208984 1.2651367-2.4790039 1.769043-3.965332 1.2836914-1.487793-.4853516-2.4477539-1.8095703-2.4462891-3.3740234l.0014648-1.2319336-2.0727539-.0019531-.0009766 1.2319336c-.0014648 1.5644531-.9643555 2.887207-2.453125 3.3691406s-3.0444336-.0249023-3.9628906-1.2919922l-.7231445-.9970703-1.6777344 1.2163086.7231445.9975586c.918457 1.2666016.9169922 2.9023438-.0039062 4.1674805s-2.4755859 1.7705078-3.965332 1.2841797l-1.1713867-.3818359-.6206055 1.9038086 1.1713867.3818359c1.487793.4853516 2.4477539 1.8095703 2.4462891 3.3745117-.0019531 1.5644531-.9648438 2.887207-2.4536133 3.3691406l-1.171875.3793945.6386719 1.9721756 1.171875-.3793945c1.4863281-.4829102 3.043457.0239258 3.9624023 1.2915039.918457 1.2670898.9165039 2.902832-.0048828 4.1679688l-.7246095.9960937 1.675293 1.2197266.7255859-.9960938c.9204102-1.2646484 2.4785156-1.7680664 3.9648438-1.2836914 1.4873047.4853516 2.4477539 1.8095703 2.4462891 3.3745117z" fill="#475059"/><path d="m6 78.453331h2v4h-2z" fill="#48515a"/><path d="m6 88.453331h2v4h-2z" fill="#48515a"/><path d="m10 84.453331h4v2h-4z" fill="#48515a"/><path d="m0 84.453331h4v2h-4z" fill="#48515a"/><path d="m164 28.459679h2v4h-2z" fill="#48515a"/><path d="m164 38.459679h2v4h-2z" fill="#48515a"/><path d="m168 34.459679h4v2h-4z" fill="#48515a"/><path d="m158 34.459679h4v2h-4z" fill="#48515a"/><path d="m184 136.459686h2v4h-2z" fill="#48515a"/><path d="m184 146.459686h2v4h-2z" fill="#48515a"/><path d="m188 142.459686h4v2h-4z" fill="#48515a"/><path d="m178 142.459686h4v2h-4z" fill="#48515a"/><circle cx="59.959202" cy="132.376114" fill="#f58e70" r="2"/><circle cx="36.959202" cy="89.376106" fill="#f58e70" r="1"/><circle cx="181.965195" cy="112.382111" fill="#ffd15d" r="2"/><path d="m95.8558884.0066068c-21.0979996.3880406-37.7820626 18.3185675-37.7820626 39.6791461v52.0196762h25.4357948l-.0686035-6.7857361c-2.3313599-2.4099121-4.8747559-5.4238892-7.0158691-8.9232407-5.2763672-8.6238327-7.3513184-19.8513222-7.3513184-30.7739716v-.8484879h23.6006775l-.2502747-11.3807182.0000076.0000114c7.7097931 7.3119125 17.8789139 11.3807068 28.4437485 11.3807068h4.2058411v.8484879c0 10.9673195-2.5439453 22.0996628-7.8788452 30.712059-3.5248413 5.689682-8.4020386 10.1776505-11.4370117 12.7906494l4.3347778 2.9802399h24.9810715v-52.6464538c0-21.8131981-17.5771713-39.4503917-39.2179336-39.0523684z" fill="#5fe0ed"/><path d="m66.4242325 124.0983429h12.9993973l-4.1243973-6.0736771h-2.125z" fill="#eaeae9"/><path d="m125.6736298 124.0983429h-12.9993973l4.1243973-6.0736771h2.125z" fill="#eaeae9"/><path d="m83.4248276 104.8620148-8.0023957 13.1602249 19.0018006 27.3297043h2.0179977z" fill="#eaeae9"/><path d="m110.0329971 95.1218643 8.3912354 8.7309036 8.0179977 19.2253952h-2l-4.9981994-5.0559234h-2l-8.0024033-13.1602249z" fill="#eaeae9"/><path d="m110.0737991 100.4874802v-14.5786591l-5.4134979 3.3862305c-1.4617996.9143829-3.1462402 1.3987045-4.8646088 1.3987045h-6.0345917c-2.1558914 0-4.244133-.7619476-5.9042358-2.1543121l-4.4192657-3.7065353.0022888 5.7362442z" fill="#eaeae9"/><path d="m99.4956055 91.9386826h-6.1967773c-2.4306641 0-4.5688477-.7832031-6.355957-2.328125-3.2543945-2.8129883-7.8681641-7.3681641-11.3706055-13.0922852-6.1977539-10.1293945-7.4985352-22.6098633-7.4985352-31.2958984v-.8481445h2v.8481445c0 8.4291992 1.25 20.5200195 7.2045898 30.2519531 3.3681641 5.5048828 7.8256836 9.902832 10.972168 12.6235352 1.4135742 1.2211914 3.1118164 1.8408203 5.0483398 1.8408203h6.1967773c2.1972656 0 3.9956055-.5854492 5.34375-1.7402344 1.8857422-1.6137695 7.6230469-6.5239258 11.5053711-12.7905273 4.9838867-8.0463867 7.7290039-18.7661133 7.7290039-30.1855469v-.8481445h2v.8481445c0 11.7861328-2.8515625 22.8803711-8.0288086 31.2387695-4.0458984 6.53125-9.9609375 11.5932617-11.9047852 13.2568359-1.720703 1.4736328-3.9565428 2.2207032-6.6445311 2.2207032z" fill="#48515a"/><path d="m82.423828 84.872765h2v10.755371h-2z" fill="#48515a"/><path d="m108.423828 85.631554h2v10.628906h-2z" fill="#48515a"/><path d="m158.3520508 175.8927917h-2v-1.0976562l-4.2563477-42.6679688c-1.2324219-9.2934647-7.3789062-17.1948318-16.0375977-20.5878983l-17.9853516-6.7504883.703125-1.8720703 17.9985352 6.7553711c9.3491211 3.6635742 15.9760742 12.1777344 17.3076172 22.224617l4.2651367 42.7993164z" fill="#48515a"/><path d="m36.5791016 175.8927917h-2v-1.0976562l4.2661133-42.8662109c1.3354492-10.0791092 7.9624023-18.5932693 17.2983398-22.2519608l17.9277344-6.7597656.7060547 1.8710938-17.9160156 6.7553711c-8.6469727 3.3886719-14.793457 11.2900391-16.0297852 20.6157303l-4.2573242 42.7348633z" fill="#48515a"/><path d="m97.7954102 146.3517761h-3.8935547l-19.0019531-27.3295975h-1.0600586l-4.9980469 5.0561523h-3.9165039l8.6508789-20.7895508 10.8486328-10.9824219v12.3989258zm-2.8486329-2h.1064453l-12.628418-39.3330154v-7.8422852l-7.1523438 7.2402344-7.3491211 17.6616211h.0834961l4.9980469-5.0561523h2.9399414z" fill="#48515a"/><path d="m98.9648438 146.3517761h-3.8935547l13.3701172-41.646492v-12.4023437l10.8310547 10.9858398 8.6704102 20.7895508h-3.9179688l-4.9985352-5.0561523h-1.0600586zm-1.1513672-2h.1064453l19.0014648-27.3295975h2.9399414l4.9985352 5.0561523h.0820312l-7.3657227-17.6616211-7.1347656-7.2368164-.0478516 7.987793z" fill="#48515a"/><path d="m151.9692383 105.269249c-13.7851562 0-25-11.2148438-25-25s11.2148438-25 25-25 25 11.2148438 25 25-11.2148438 25-25 25zm0-48c-12.6821289 0-23 10.3178711-23 23s10.3178711 23 23 23 23-10.3178711 23-23-10.3178711-23-23-23z" fill="#f58e70"/><g fill="#48515a"><path d="m153 92.4596786h-2v-13h8v2h-6z"/><path d="m152 101.4596786c-.5522461 0-1-.4477539-1-1v-3c0-.5522461.4477539-1 1-1s1 .4477539 1 1v3c0 .5522461-.4477539 1-1 1z"/><path d="m136 81.4596786h-4c-.5522461 0-1-.4477539-1-1s.4477539-1 1-1h4c.5522461 0 1 .4477539 1 1s-.4477539 1-1 1z"/><path d="m152 101.4596786c-.5522461 0-1-.4477539-1-1v-3c0-.5522461.4477539-1 1-1s1 .4477539 1 1v3c0 .5522461-.4477539 1-1 1z"/><path d="m136 81.4596786h-4c-.5522461 0-1-.4477539-1-1s.4477539-1 1-1h4c.5522461 0 1 .4477539 1 1s-.4477539 1-1 1z"/><path d="m141.8041992 98.7531357c-.1694336 0-.3413086-.0429688-.4990234-.1337891-.4780273-.2763672-.6420898-.8876953-.3662109-1.3662109l1.7773438-3.0791016c.2758789-.4780273.8857422-.6430664 1.3662109-.3662109.4780273.2763672.6420898.8876953.3662109 1.3662109l-1.7773438 3.0791016c-.1855469.3208008-.5214844.5-.8671875.5z"/><path d="m134.3740234 91.078331c-.3457031 0-.6816406-.1791992-.8671875-.5-.2758789-.4780273-.1123047-1.0898438.3662109-1.3662109l3.0791016-1.777832c.4770508-.2763672 1.0893555-.1123047 1.3662109.3662109.2758789.4780273.1123047 1.0898438-.3662109 1.3662109l-3.0791016 1.777832c-.1572265.0908203-.3295898.1337891-.4990234.1337891z"/><path d="m152 101.4596786c-.5522461 0-1-.4477539-1-1v-3c0-.5522461.4477539-1 1-1s1 .4477539 1 1v3c0 .5522461-.4477539 1-1 1z"/><path d="m172 81.4596786h-4c-.5522461 0-1-.4477539-1-1s.4477539-1 1-1h4c.5522461 0 1 .4477539 1 1s-.4477539 1-1 1z"/><path d="m162.1420898 98.7531357c-.3457031 0-.6816406-.1791992-.8671875-.5l-1.777832-3.0791016c-.2758789-.4780273-.1123047-1.0898438.3662109-1.3662109.4770508-.2768555 1.0893555-.1118164 1.3662109.3662109l1.777832 3.0791016c.2758789.4780273.1123047 1.0898438-.3662109 1.3662109-.1572265.0908203-.3295898.1337891-.4990234.1337891z"/><path d="m169.5722656 91.078331c-.1694336 0-.3417969-.0429688-.4990234-.1337891l-3.0791016-1.777832c-.4785156-.2763672-.6420898-.8881836-.3662109-1.3662109.2758789-.4785156.8881836-.6425781 1.3662109-.3662109l3.0791016 1.777832c.4785156.2763672.6420898.8881836.3662109 1.3662109-.1855469.3208008-.5214843.5-.8671875.5z"/><path d="m152 64.4596786c-.5522461 0-1-.4477539-1-1v-3c0-.5522461.4477539-1 1-1s1 .4477539 1 1v3c0 .5522461-.4477539 1-1 1z"/><path d="m152 64.4596786c-.5522461 0-1-.4477539-1-1v-3c0-.5522461.4477539-1 1-1s1 .4477539 1 1v3c0 .5522461-.4477539 1-1 1z"/><path d="m143.5834961 67.297081c-.3457031 0-.6816406-.1791992-.8671875-.5l-1.7773438-3.0791016c-.2758789-.4785156-.1118164-1.0898438.3662109-1.3662109.4785156-.2768555 1.0893555-.1118164 1.3662109.3662109l1.7773438 3.0791016c.2758789.4785156.1118164 1.0898438-.3662109 1.3662109-.1577148.0908203-.3295898.1337891-.4990234.1337891z"/><path d="m137.4511719 73.6706161c-.1694336 0-.3417969-.0429688-.4990234-.1337891l-3.0791016-1.777832c-.4785156-.2763672-.6420898-.8881836-.3662109-1.3662109.2758789-.4785156.8881836-.6425781 1.3662109-.3662109l3.0791016 1.777832c.4785156.2763672.6420898.8881836.3662109 1.3662109-.1855469.3208008-.5214844.5-.8671875.5z"/><path d="m152 64.4596786c-.5522461 0-1-.4477539-1-1v-3c0-.5522461.4477539-1 1-1s1 .4477539 1 1v3c0 .5522461-.4477539 1-1 1z"/><path d="m160.3623047 67.297081c-.1694336 0-.3417969-.0429688-.4990234-.1337891-.4785156-.2763672-.6420898-.8881836-.3662109-1.3662109l1.777832-3.0791016c.2763672-.4780273.8867188-.6430664 1.3662109-.3662109.4785156.2763672.6420898.8881836.3662109 1.3662109l-1.777832 3.0791016c-.1855469.3208008-.5214844.5-.8671875.5z"/><path d="m166.4951172 73.6706161c-.3457031 0-.6816406-.1791992-.8671875-.5-.2758789-.4780273-.1123047-1.0898438.3662109-1.3662109l3.0791016-1.777832c.4770508-.2763672 1.0893555-.1123047 1.3662109.3662109.2758789.4780273.1123047 1.0898438-.3662109 1.3662109l-3.0791016 1.777832c-.1572265.0908204-.3295898.1337891-.4990234.1337891z"/></g></svg>