<svg id="Layer_1" data-name="Layer 1" xmlns="http://www.w3.org/2000/svg" viewBox="0 0 289.65 82.19"><defs><style>.cls-1{fill:#fff;}</style></defs><path class="cls-1" d="M149,48.93a8.63,8.63,0,0,0,1.86-.18,9.11,9.11,0,0,0,1.53-.48V45h-2.16a1,1,0,0,1-.75-.25.86.86,0,0,1-.27-.65V41.26H157v9.23a11.27,11.27,0,0,1-1.75,1,10.94,10.94,0,0,1-1.94.73,14.17,14.17,0,0,1-2.19.42,21.46,21.46,0,0,1-2.49.14,11.37,11.37,0,0,1-4.44-.85,10.61,10.61,0,0,1-5.88-5.88,11.6,11.6,0,0,1-.84-4.45,12.11,12.11,0,0,1,.81-4.49,10.11,10.11,0,0,1,2.31-3.53,10.54,10.54,0,0,1,3.65-2.31,13.17,13.17,0,0,1,4.78-.83,13.85,13.85,0,0,1,2.56.23,12.47,12.47,0,0,1,2.21.61,10.09,10.09,0,0,1,1.86.93,10,10,0,0,1,1.5,1.17l-1.47,2.24a1.59,1.59,0,0,1-.51.49,1.16,1.16,0,0,1-.63.18,1.76,1.76,0,0,1-.93-.3c-.4-.24-.78-.44-1.14-.62a6.68,6.68,0,0,0-2.25-.67,11.55,11.55,0,0,0-1.38-.07,6.4,6.4,0,0,0-2.57.5,5.51,5.51,0,0,0-1.94,1.42,6.35,6.35,0,0,0-1.24,2.19,8.9,8.9,0,0,0-.43,2.86,9.2,9.2,0,0,0,.48,3.09A6.71,6.71,0,0,0,144.42,47a5.67,5.67,0,0,0,2,1.42A6.48,6.48,0,0,0,149,48.93Z" transform="translate(-11.43 -12.57)"/><path class="cls-1" d="M166.3,36.79a8,8,0,0,1,2.83.48,6.14,6.14,0,0,1,2.2,1.4,6.26,6.26,0,0,1,1.44,2.24,8.12,8.12,0,0,1,.52,3,6.36,6.36,0,0,1,0,.85,1.38,1.38,0,0,1-.16.53.64.64,0,0,1-.32.27,1.56,1.56,0,0,1-.52.07h-9a4.38,4.38,0,0,0,1.18,2.83,3.52,3.52,0,0,0,2.48.88,4.39,4.39,0,0,0,1.39-.2,7.39,7.39,0,0,0,1.05-.43l.84-.44a1.71,1.71,0,0,1,.8-.19,1,1,0,0,1,.84.4l1.35,1.67a6.87,6.87,0,0,1-1.55,1.34,7.82,7.82,0,0,1-1.71.81,9.34,9.34,0,0,1-1.76.41,14,14,0,0,1-1.67.11,8.66,8.66,0,0,1-3.07-.54,7,7,0,0,1-2.5-1.58,7.48,7.48,0,0,1-1.7-2.61,9.86,9.86,0,0,1-.62-3.63,8.3,8.3,0,0,1,.53-2.95,7.46,7.46,0,0,1,1.53-2.45,7.29,7.29,0,0,1,2.42-1.66A7.94,7.94,0,0,1,166.3,36.79Zm.09,3.21a2.84,2.84,0,0,0-2.09.76,4,4,0,0,0-1,2.18h5.81a4.32,4.32,0,0,0-.14-1.08,2.55,2.55,0,0,0-.47-.93,2.29,2.29,0,0,0-.85-.67A2.87,2.87,0,0,0,166.39,40Z" transform="translate(-11.43 -12.57)"/><path class="cls-1" d="M175.4,52.59V37h2.88a1.25,1.25,0,0,1,.72.2,1,1,0,0,1,.42.58l.27.9a11.3,11.3,0,0,1,.93-.78,5.25,5.25,0,0,1,1-.6,5.54,5.54,0,0,1,1.19-.39,6,6,0,0,1,1.39-.15,5.32,5.32,0,0,1,2.25.45,4.54,4.54,0,0,1,1.66,1.23,5.29,5.29,0,0,1,1,1.87,7.78,7.78,0,0,1,.35,2.36v9.89h-4.65V42.7a2.69,2.69,0,0,0-.53-1.77,1.86,1.86,0,0,0-1.54-.64,3.24,3.24,0,0,0-1.44.33,5.57,5.57,0,0,0-1.29.88V52.59Z" transform="translate(-11.43 -12.57)"/><path class="cls-1" d="M198.94,36.79a8,8,0,0,1,2.83.48,6.18,6.18,0,0,1,2.21,1.4,6.55,6.55,0,0,1,1.44,2.24,8.33,8.33,0,0,1,.51,3,6.61,6.61,0,0,1,0,.85,1.38,1.38,0,0,1-.17.53.6.6,0,0,1-.32.27,1.52,1.52,0,0,1-.52.07h-9a4.38,4.38,0,0,0,1.19,2.83,3.49,3.49,0,0,0,2.47.88,4.45,4.45,0,0,0,1.4-.2,6.79,6.79,0,0,0,1-.43l.84-.44a1.74,1.74,0,0,1,.8-.19,1,1,0,0,1,.84.4l1.35,1.67a6.66,6.66,0,0,1-1.55,1.34,7.41,7.41,0,0,1-1.71.81,9.24,9.24,0,0,1-1.75.41,14.33,14.33,0,0,1-1.68.11,8.56,8.56,0,0,1-3.06-.54,7,7,0,0,1-2.51-1.58,7.46,7.46,0,0,1-1.69-2.61,9.65,9.65,0,0,1-.63-3.63,8.09,8.09,0,0,1,.54-2.95,7.15,7.15,0,0,1,1.53-2.45,7.25,7.25,0,0,1,2.41-1.66A8,8,0,0,1,198.94,36.79ZM199,40a2.81,2.81,0,0,0-2.08.76,4,4,0,0,0-1,2.18h5.8a3.9,3.9,0,0,0-.14-1.08,2.54,2.54,0,0,0-.46-.93,2.37,2.37,0,0,0-.85-.67A2.92,2.92,0,0,0,199,40Z" transform="translate(-11.43 -12.57)"/><path class="cls-1" d="M217.75,40.44a1.23,1.23,0,0,1-.38.4,1,1,0,0,1-.52.12,1.57,1.57,0,0,1-.66-.14l-.71-.31a6.59,6.59,0,0,0-.86-.3,3.64,3.64,0,0,0-1.09-.15,2.37,2.37,0,0,0-1.36.34,1.11,1.11,0,0,0-.47.94.92.92,0,0,0,.31.72,2.67,2.67,0,0,0,.82.5A9.46,9.46,0,0,0,214,43c.43.13.87.28,1.31.44a12.74,12.74,0,0,1,1.32.56,4.72,4.72,0,0,1,1.15.8,3.4,3.4,0,0,1,.82,1.14,3.81,3.81,0,0,1,.31,1.62,5.33,5.33,0,0,1-.42,2.13,4.49,4.49,0,0,1-1.26,1.68,5.82,5.82,0,0,1-2.05,1.1,9.26,9.26,0,0,1-2.81.39,8.56,8.56,0,0,1-1.59-.15,10.88,10.88,0,0,1-1.54-.41,9,9,0,0,1-1.37-.6,6.22,6.22,0,0,1-1.08-.76l1.08-1.71a1.48,1.48,0,0,1,.46-.47,1.27,1.27,0,0,1,.71-.18,1.49,1.49,0,0,1,.73.18l.69.39a5.63,5.63,0,0,0,.88.39,3.8,3.8,0,0,0,1.27.18,3,3,0,0,0,.91-.11,1.54,1.54,0,0,0,.6-.31,1.21,1.21,0,0,0,.33-.43,1.25,1.25,0,0,0,.11-.5,1,1,0,0,0-.32-.76,2.82,2.82,0,0,0-.82-.52,9.92,9.92,0,0,0-1.17-.4c-.43-.13-.87-.27-1.32-.43a10.31,10.31,0,0,1-1.33-.58,4.43,4.43,0,0,1-1.16-.86,3.89,3.89,0,0,1-.83-1.26,4.71,4.71,0,0,1-.31-1.82,4.65,4.65,0,0,1,.38-1.88,4.49,4.49,0,0,1,1.15-1.57,5.72,5.72,0,0,1,1.92-1.07,8.43,8.43,0,0,1,2.7-.4,8.75,8.75,0,0,1,1.63.15,8.36,8.36,0,0,1,1.47.42,7.43,7.43,0,0,1,1.26.64,6.36,6.36,0,0,1,1,.8Z" transform="translate(-11.43 -12.57)"/><path class="cls-1" d="M226.08,32.77a2.5,2.5,0,0,1-.22,1,2.74,2.74,0,0,1-.62.85,3,3,0,0,1-.91.59,2.87,2.87,0,0,1-1.1.21,2.67,2.67,0,0,1-1.06-.21,3,3,0,0,1-.88-.59,2.53,2.53,0,0,1-.6-.85,2.64,2.64,0,0,1,0-2.11,2.61,2.61,0,0,1,.6-.87,2.78,2.78,0,0,1,.88-.59,2.67,2.67,0,0,1,1.06-.21,2.87,2.87,0,0,1,1.1.21,2.88,2.88,0,0,1,1.53,1.46A2.52,2.52,0,0,1,226.08,32.77ZM225.54,37V52.59h-4.65V37Z" transform="translate(-11.43 -12.57)"/><path class="cls-1" d="M238.24,40.44a1.15,1.15,0,0,1-.39.4,1,1,0,0,1-.51.12,1.57,1.57,0,0,1-.66-.14l-.71-.31a7.15,7.15,0,0,0-.86-.3,3.68,3.68,0,0,0-1.09-.15,2.35,2.35,0,0,0-1.36.34,1.11,1.11,0,0,0-.47.94.92.92,0,0,0,.31.72,2.61,2.61,0,0,0,.81.5,10.11,10.11,0,0,0,1.15.41c.43.13.87.28,1.32.44a12.74,12.74,0,0,1,1.32.56,4.93,4.93,0,0,1,1.15.8,3.54,3.54,0,0,1,.82,1.14,4,4,0,0,1,.3,1.62,5.33,5.33,0,0,1-.42,2.13,4.46,4.46,0,0,1-1.25,1.68,5.91,5.91,0,0,1-2,1.1,9.33,9.33,0,0,1-2.82.39,8.56,8.56,0,0,1-1.59-.15,10.74,10.74,0,0,1-1.53-.41,8.69,8.69,0,0,1-1.38-.6,6.22,6.22,0,0,1-1.08-.76l1.08-1.71a1.5,1.5,0,0,1,.47-.47,1.23,1.23,0,0,1,.7-.18,1.46,1.46,0,0,1,.73.18l.7.39a5.63,5.63,0,0,0,.88.39,3.74,3.74,0,0,0,1.26.18,3.09,3.09,0,0,0,.92-.11,1.54,1.54,0,0,0,.6-.31,1.21,1.21,0,0,0,.33-.43,1.24,1.24,0,0,0,.1-.5,1,1,0,0,0-.31-.76,2.88,2.88,0,0,0-.83-.52,9.73,9.73,0,0,0-1.16-.4c-.43-.13-.88-.27-1.33-.43a9.62,9.62,0,0,1-1.32-.58,4.32,4.32,0,0,1-1.17-.86,3.87,3.87,0,0,1-.82-1.26,4.7,4.7,0,0,1-.32-1.82,4.66,4.66,0,0,1,.39-1.88,4.34,4.34,0,0,1,1.14-1.57,5.72,5.72,0,0,1,1.92-1.07,8.43,8.43,0,0,1,2.7-.4,8.67,8.67,0,0,1,1.63.15,8.23,8.23,0,0,1,1.48.42,7.43,7.43,0,0,1,1.26.64,6.26,6.26,0,0,1,1,.8Z" transform="translate(-11.43 -12.57)"/><path class="cls-1" d="M106.17,57.79a23.68,23.68,0,0,1-2.7,5.5,41.42,41.42,0,0,0,1.34-12.75,41.08,41.08,0,0,0-74.1-21.17c-.43.61-.85,1.23-1.25,1.88a41,41,0,0,0-5.17,12.56A38.35,38.35,0,0,1,25.9,31.9a27.16,27.16,0,0,0-9.34,2.77h0a9.88,9.88,0,0,0-4.48,4.45h0c-.11.26-.21.52-.3.79a8.9,8.9,0,0,0-.24,1c0,.1,0,.2,0,.3s-.06.48-.07.72,0,.23,0,.35,0,.46,0,.7,0,.23,0,.34.07.49.12.73.06.22.08.34.13.5.21.76l.12.31q.14.4.3.81c0,.1.09.19.13.29.13.28.27.57.42.86l.14.25c.17.3.34.6.53.91l.14.21c.2.32.42.64.65,1l.13.17q.38.51.78,1l.12.13c.28.36.59.71.91,1.07l.09.1c.33.37.68.74,1,1.1l.07.07,1.18,1.15,0,0c.42.4.86.79,1.31,1.18h0c.46.4.93.8,1.42,1.19h0c.49.4,1,.8,1.53,1.19,8,6,19.43,11.77,32.76,16,2.44.78,4.85,1.46,7.24,2.08-14.91-2-27.38-4.58-38.86-12A41.09,41.09,0,0,0,96.58,78.49c7.78-1,13.1-3.72,14.48-8.07C112.24,66.7,110.35,62.3,106.17,57.79Zm-46.66-1A6.72,6.72,0,0,0,60.84,59a5.67,5.67,0,0,0,2,1.42,6.43,6.43,0,0,0,2.54.49,8.63,8.63,0,0,0,1.86-.18,9.11,9.11,0,0,0,1.53-.48V57H66.62a1,1,0,0,1-.75-.25.86.86,0,0,1-.27-.65V53.26h7.77v9.23a12.08,12.08,0,0,1-1.74,1.06,11.76,11.76,0,0,1-1.94.72,14.17,14.17,0,0,1-2.19.42,21.63,21.63,0,0,1-2.5.14A11.37,11.37,0,0,1,60.56,64,10.67,10.67,0,0,1,57,61.64a10.82,10.82,0,0,1-2.34-3.54,11.6,11.6,0,0,1-.85-4.45,12.11,12.11,0,0,1,.81-4.49A10.23,10.23,0,0,1,57,45.63a10.54,10.54,0,0,1,3.65-2.31,13.11,13.11,0,0,1,4.77-.83,14,14,0,0,1,2.57.23,12.47,12.47,0,0,1,2.21.61,10.12,10.12,0,0,1,3.35,2.1l-1.47,2.24a1.56,1.56,0,0,1-.5.49,1.19,1.19,0,0,1-.64.18A1.76,1.76,0,0,1,70,48c-.4-.24-.77-.44-1.13-.62A7.26,7.26,0,0,0,67.76,47a7.13,7.13,0,0,0-1.17-.24,11.55,11.55,0,0,0-1.38-.07,6.35,6.35,0,0,0-2.56.5,5.51,5.51,0,0,0-1.94,1.42,6.3,6.3,0,0,0-1.24,2.2A8.79,8.79,0,0,0,59,53.65,9.2,9.2,0,0,0,59.51,56.74Z" transform="translate(-11.43 -12.57)"/><path class="cls-1" d="M140,80.47V59h7.89a6.64,6.64,0,0,1,4.86,1.85,6.52,6.52,0,0,1,1.88,4.89,6.66,6.66,0,0,1-1.89,4.93,6.57,6.57,0,0,1-4.85,1.89H143v8Zm3-10.57h4.39a3.9,3.9,0,0,0,4.18-4.2,4.05,4.05,0,0,0-1.11-3,4.17,4.17,0,0,0-3-1.1H143Z" transform="translate(-11.43 -12.57)"/><path class="cls-1" d="M155.22,76.27a4.41,4.41,0,0,1,.95-2.87,5.27,5.27,0,0,1,2.51-1.66,17.7,17.7,0,0,1,2.91-.68,21.42,21.42,0,0,1,2.84-.18h.79v-.31q0-3.37-3.38-3.38a7.41,7.41,0,0,0-4.33,1.49l-1.19-2.16a7.39,7.39,0,0,1,2.56-1.31,10.3,10.3,0,0,1,3.2-.52,6.2,6.2,0,0,1,4.51,1.55,6,6,0,0,1,1.58,4.48v9.75H165.4V78.92l.09-1.22h-.06A5.8,5.8,0,0,1,163.37,80a5.35,5.35,0,0,1-3,.88,5.53,5.53,0,0,1-3.62-1.25A4.07,4.07,0,0,1,155.22,76.27Zm3-.24a2.31,2.31,0,0,0,.76,1.73,3,3,0,0,0,2.13.73,3.58,3.58,0,0,0,3-1.52,5.47,5.47,0,0,0,1.16-3.38V73h-.76C160.27,73,158.18,74,158.18,76Z" transform="translate(-11.43 -12.57)"/><path class="cls-1" d="M173,83.28a9.35,9.35,0,0,0,4.23,1,5.56,5.56,0,0,0,3.52-1A3.83,3.83,0,0,0,182.07,80V78.77l.09-1h-.06a5,5,0,0,1-4.63,2.5,6.23,6.23,0,0,1-5-2.22,9.49,9.49,0,0,1-.07-11.22,6.07,6.07,0,0,1,4.93-2.16,6.94,6.94,0,0,1,2.87.58,4.29,4.29,0,0,1,2,1.77h.09a1.08,1.08,0,0,1-.09-.46V65.06H185V79.83a7.48,7.48,0,0,1-.65,3.23,5.54,5.54,0,0,1-1.78,2.21,8.47,8.47,0,0,1-2.47,1.21,10.26,10.26,0,0,1-2.87.39A11.6,11.6,0,0,1,172,85.59Zm.61-10.94a6,6,0,0,0,1.2,3.91,4,4,0,0,0,3.28,1.48A3.8,3.8,0,0,0,181,76.48a5.9,5.9,0,0,0,1.14-4q0-5.18-4.36-5.18a3.76,3.76,0,0,0-3.09,1.36A5.7,5.7,0,0,0,173.57,72.34Z" transform="translate(-11.43 -12.57)"/><path class="cls-1" d="M187.52,72.77a8,8,0,0,1,2.2-5.86,7.46,7.46,0,0,1,5.54-2.22,6.14,6.14,0,0,1,4.91,2.06,7.67,7.67,0,0,1,1.76,5.16,10,10,0,0,1-.12,1.25H190.6a5.13,5.13,0,0,0,1.63,3.76,5.26,5.26,0,0,0,3.67,1.36,6.62,6.62,0,0,0,4.54-1.8l1.25,2.17a8.11,8.11,0,0,1-2.73,1.6,9.54,9.54,0,0,1-3.24.59,8,8,0,0,1-5.9-2.3A7.84,7.84,0,0,1,187.52,72.77ZM190.69,71H199a4.28,4.28,0,0,0-1.11-3A3.55,3.55,0,0,0,195.2,67a4.35,4.35,0,0,0-3,1.08A4.81,4.81,0,0,0,190.69,71Z" transform="translate(-11.43 -12.57)"/><path class="cls-1" d="M211.53,80.47V59h7.53a6.75,6.75,0,0,1,4.52,1.46,5,5,0,0,1,1.73,4,5.35,5.35,0,0,1-.72,2.77,4.77,4.77,0,0,1-2,1.86v.06a4.52,4.52,0,0,1,2.62,1.92,5.83,5.83,0,0,1,.95,3.29,5.47,5.47,0,0,1-2,4.52,7.64,7.64,0,0,1-5,1.6Zm3-12.46h4.51a3,3,0,0,0,2.3-.91,3.27,3.27,0,0,0,.87-2.35,3.15,3.15,0,0,0-.86-2.3,3.12,3.12,0,0,0-2.34-.87h-4.48Zm0,9.84h4.84a3.61,3.61,0,0,0,2.7-1,3.66,3.66,0,0,0,1-2.68,3.57,3.57,0,0,0-1-2.65,3.66,3.66,0,0,0-2.69-1h-4.84Z" transform="translate(-11.43 -12.57)"/><path class="cls-1" d="M228.6,74.93V65.06h3v9.2a5.43,5.43,0,0,0,.61,2.83,2.46,2.46,0,0,0,2.29,1,4.44,4.44,0,0,0,3.65-1.71,6.33,6.33,0,0,0,1.37-4.11V65.06h2.93V80.47h-2.87V78.34l.13-1.13h-.06a6.37,6.37,0,0,1-2.14,2.5,5.86,5.86,0,0,1-3.59,1.13C230.35,80.84,228.6,78.87,228.6,74.93Z" transform="translate(-11.43 -12.57)"/><path class="cls-1" d="M245.84,62V59h3v3Zm.06,18.52V65.06h3V80.47Z" transform="translate(-11.43 -12.57)"/><path class="cls-1" d="M252.33,76.24V59h2.93V75.75a2.51,2.51,0,0,0,.44,1.72,1.57,1.57,0,0,0,1.23.47,2.49,2.49,0,0,0,.52,0v2.62a6.42,6.42,0,0,1-1,.1C253.71,80.63,252.33,79.16,252.33,76.24Z" transform="translate(-11.43 -12.57)"/><path class="cls-1" d="M258.46,72.77a8.49,8.49,0,0,1,2-5.87,6.39,6.39,0,0,1,5-2.21,6,6,0,0,1,2.78.66,4.9,4.9,0,0,1,2,1.87h.06a8.1,8.1,0,0,1-.06-1V59h2.92V80.47h-2.8V78.92l.09-1h-.06a5.55,5.55,0,0,1-2,2.14,5.71,5.71,0,0,1-3.09.82,6.13,6.13,0,0,1-4.94-2.22A8.84,8.84,0,0,1,258.46,72.77Zm3,0a6.18,6.18,0,0,0,1.21,4,3.82,3.82,0,0,0,3.15,1.51,4.13,4.13,0,0,0,3.17-1.4,6,6,0,0,0,1.28-4.15,6.47,6.47,0,0,0-1.14-3.85,3.76,3.76,0,0,0-3.25-1.6,4,4,0,0,0-3.15,1.48A5.92,5.92,0,0,0,261.47,72.77Z" transform="translate(-11.43 -12.57)"/><path class="cls-1" d="M275.64,72.77a8,8,0,0,1,2.19-5.86,7.5,7.5,0,0,1,5.55-2.22,6.14,6.14,0,0,1,4.91,2.06,7.67,7.67,0,0,1,1.76,5.16,10,10,0,0,1-.12,1.25H278.72a5.13,5.13,0,0,0,1.63,3.76A5.26,5.26,0,0,0,284,78.28a6.62,6.62,0,0,0,4.54-1.8l1.25,2.17a8.11,8.11,0,0,1-2.73,1.6,9.54,9.54,0,0,1-3.24.59,8,8,0,0,1-5.9-2.3A7.84,7.84,0,0,1,275.64,72.77ZM278.81,71h8.26A4.24,4.24,0,0,0,286,68,3.53,3.53,0,0,0,283.32,67a4.35,4.35,0,0,0-3,1.08A4.81,4.81,0,0,0,278.81,71Z" transform="translate(-11.43 -12.57)"/><path class="cls-1" d="M292.55,80.47V65.06h2.87v2.77l-.1,1.13h.07A6.49,6.49,0,0,1,297.27,66a4.45,4.45,0,0,1,3-1.16,6.71,6.71,0,0,1,.79.06v2.93a4,4,0,0,0-.85-.06,3.92,3.92,0,0,0-3.52,1.87,8,8,0,0,0-1.2,4.41v6.39Z" transform="translate(-11.43 -12.57)"/></svg>