<svg id="Layer_1" data-name="Layer 1" xmlns="http://www.w3.org/2000/svg" viewBox="0 0 213.63 39.36"><path d="M45.34,22a11.15,11.15,0,0,1-1.29,2.61,19.26,19.26,0,0,0,.64-6.05,19.47,19.47,0,0,0-35.12-10c-.2.29-.4.59-.59.89a19.32,19.32,0,0,0-2.45,6,18,18,0,0,1,.76-5.65A13,13,0,0,0,2.86,11h0A4.69,4.69,0,0,0,.74,13.15h0a2.39,2.39,0,0,0-.15.37A4,4,0,0,0,.48,14a.71.71,0,0,0,0,.14c0,.12,0,.23,0,.34s0,.11,0,.17,0,.22,0,.33a1.11,1.11,0,0,0,0,.17c0,.11,0,.22.06.34a.94.94,0,0,0,0,.16L.66,16l.06.15c0,.13.09.25.14.38s.05.09.07.14.12.27.19.4l.07.12.25.44.07.1c.09.15.2.3.31.45l.06.09c.11.16.24.32.37.48l0,.06.43.51,0,0c.15.18.32.35.49.53l0,0,.56.54,0,0,.62.56h0c.22.19.44.38.68.57h0c.23.19.48.38.73.57a52.93,52.93,0,0,0,15.52,7.57c1.16.37,2.3.69,3.43,1-7.06-1-13-2.17-18.41-5.69a19.47,19.47,0,0,0,34.33,6.75c3.69-.48,6.21-1.76,6.86-3.82C48.21,26.22,47.32,24.14,45.34,22Zm-22.12-.5a3.16,3.16,0,0,0,.63,1.09,2.88,2.88,0,0,0,.95.67,3.18,3.18,0,0,0,1.21.23,3.91,3.91,0,0,0,.88-.09,3.79,3.79,0,0,0,.72-.22V21.6h-1a.48.48,0,0,1-.35-.12.38.38,0,0,1-.13-.3V19.86h3.68v4.37a5.9,5.9,0,0,1-.83.5,5.29,5.29,0,0,1-.92.34,6.48,6.48,0,0,1-1,.2,9,9,0,0,1-1.19.07,5.35,5.35,0,0,1-2.1-.41,4.92,4.92,0,0,1-2.78-2.78A5.44,5.44,0,0,1,20.53,20a5.68,5.68,0,0,1,.39-2.13A4.63,4.63,0,0,1,22,16.24a4.93,4.93,0,0,1,1.72-1.1A6.29,6.29,0,0,1,26,14.75a6.64,6.64,0,0,1,1.21.11,6.17,6.17,0,0,1,1.05.29,4.82,4.82,0,0,1,.88.44,5.12,5.12,0,0,1,.71.55l-.7,1.06a.76.76,0,0,1-.23.24.58.58,0,0,1-.31.08.78.78,0,0,1-.44-.14l-.53-.29a3.33,3.33,0,0,0-.52-.21,3.15,3.15,0,0,0-.55-.11,6.5,6.5,0,0,0-.66,0,2.94,2.94,0,0,0-1.21.24,2.7,2.7,0,0,0-.92.67,3,3,0,0,0-.59,1.05A4.07,4.07,0,0,0,23,20,4.34,4.34,0,0,0,23.22,21.5Z" style="fill:#fff"/><path d="M70.13,8.61a11.44,11.44,0,0,1,7.81,2.66l-1.89,2.84a9.06,9.06,0,0,0-5.59-2c-4.71,0-7.23,3.25-7.23,7.22,0,4.56,3.11,7.52,7.05,7.52a7.91,7.91,0,0,0,5.27-2.19V22.19H72.32V18.91H79V30H75.73V29c0-.44,0-.89,0-.89h0a8.91,8.91,0,0,1-6.1,2.25c-5.54,0-10.3-4.29-10.3-10.89A10.59,10.59,0,0,1,70.13,8.61Z" style="fill:#fff"/><path d="M88.43,14.53c4.35,0,6.69,3.16,6.69,7.16,0,.44-.09,1.45-.09,1.45H84.61a4.3,4.3,0,0,0,4.53,4,7.47,7.47,0,0,0,4.35-1.66l1.45,2.69a9.44,9.44,0,0,1-6.07,2.16,7.74,7.74,0,0,1-8.11-7.9C80.76,17.78,83.93,14.53,88.43,14.53Zm2.9,6a2.91,2.91,0,0,0-3-3.13,3.5,3.5,0,0,0-3.61,3.13Z" style="fill:#fff"/><path d="M97.43,14.88H101v1.75a9.1,9.1,0,0,1-.06,1H101a5.86,5.86,0,0,1,5.36-3.13c3.34,0,5.24,1.74,5.24,5.74V30h-3.73V21c0-1.84-.48-3.08-2.4-3.08A4.18,4.18,0,0,0,101.45,21a6.56,6.56,0,0,0-.26,2V30H97.43Z" style="fill:#fff"/><path d="M121.38,14.53c4.35,0,6.69,3.16,6.69,7.16,0,.44-.09,1.45-.09,1.45H117.56a4.3,4.3,0,0,0,4.53,4,7.44,7.44,0,0,0,4.35-1.66l1.45,2.69a9.44,9.44,0,0,1-6.07,2.16,7.74,7.74,0,0,1-8.11-7.9C113.71,17.78,116.88,14.53,121.38,14.53Zm2.9,6a2.91,2.91,0,0,0-3-3.13,3.5,3.5,0,0,0-3.61,3.13Z" style="fill:#fff"/><path d="M130.82,25.48a6.32,6.32,0,0,0,4.12,1.66c1.06,0,2-.48,2-1.37,0-2.25-7.34-1.95-7.34-6.8,0-2.82,2.52-4.44,5.77-4.44a7.22,7.22,0,0,1,5.06,1.71L139,19a5.71,5.71,0,0,0-3.7-1.31c-1,0-1.92.42-1.92,1.36,0,2.14,7.34,1.87,7.34,6.72,0,2.52-2.19,4.53-5.77,4.53a8.44,8.44,0,0,1-5.86-2.22Z" style="fill:#fff"/><path d="M143,9h3.73v3.35H143Zm0,5.92h3.76V30H143Z" style="fill:#fff"/><path d="M150.51,25.48a6.32,6.32,0,0,0,4.12,1.66c1.06,0,2-.48,2-1.37,0-2.25-7.34-1.95-7.34-6.8,0-2.82,2.51-4.44,5.77-4.44a7.25,7.25,0,0,1,5.06,1.71L158.71,19a5.71,5.71,0,0,0-3.7-1.31c-1,0-1.92.42-1.92,1.36,0,2.14,7.34,1.87,7.34,6.72,0,2.52-2.19,4.53-5.78,4.53a8.47,8.47,0,0,1-5.86-2.22Z" style="fill:#fff"/><path d="M169.64,9h8.11a6.44,6.44,0,0,1,6.69,6.84c0,4.08-2.76,6.93-6.69,6.93h-4.3V30h-3.81ZM177,19.41a3.3,3.3,0,0,0,3.52-3.61,3.25,3.25,0,0,0-3.46-3.55h-3.65v7.16Z" style="fill:#fff"/><path d="M186.42,14.88H190v2.61a10,10,0,0,1-.06,1.06H190a5.2,5.2,0,0,1,4.8-3.88,4.32,4.32,0,0,1,.68.06v3.7a6.33,6.33,0,0,0-.89-.06,4.27,4.27,0,0,0-4.11,3.17,8,8,0,0,0-.33,2.46v6h-3.76Z" style="fill:#fff"/><path d="M204.42,14.53c4.62,0,8.32,3.28,8.32,7.9s-3.7,7.9-8.29,7.9-8.32-3.25-8.32-7.9S199.83,14.53,204.42,14.53Zm0,12.61a4.49,4.49,0,0,0,4.47-4.71,4.49,4.49,0,1,0-9,0A4.5,4.5,0,0,0,204.45,27.14Z" style="fill:#fff"/></svg>